<svg width="46" height="46" viewBox="0 0 46 46" fill="none" xmlns="http://www.w3.org/2000/svg">
<path d="M45.5662 17.9383L35.4276 0.405245C35.3549 0.279683 35.1941 0.236643 35.0683 0.309135L17.5076 10.4318C17.4095 10.4883 17.3587 10.6012 17.3814 10.7119L23.0749 38.4906L22.2412 39.4292C20.8422 41.0044 19.6573 41.8578 17.405 41.8578C14.8794 41.8578 13.6939 40.5285 11.8162 38.1791C9.60393 35.4112 6.85802 31.9754 0.269048 31.8844C0.12234 31.8823 0 32.0024 0 32.149V34.9692C0 35.1127 0.117637 35.2277 0.261353 35.23C5.23732 35.3113 7.16177 37.7191 9.19723 40.2658C11.0469 42.5801 13.1433 45.2031 17.4049 45.2031C21.0841 45.2031 23.1084 43.4948 24.748 41.6488L30.7958 34.8395C30.796 34.8393 30.796 34.8391 30.7962 34.839L45.5351 18.2439C45.6103 18.1592 45.6228 18.0361 45.5662 17.9383Z" fill="black"/>
</svg>
