<svg width="40" height="40" viewBox="0 0 40 40" fill="none" xmlns="http://www.w3.org/2000/svg">
<path fill-rule="evenodd" clip-rule="evenodd" d="M20 0C8.95028 0 0 8.95028 0 20C0 28.8398 5.73358 36.329 13.6771 38.981C14.6716 39.1651 15.0399 38.5513 15.0399 38.011C15.0399 37.5322 15.0276 36.2799 15.0153 34.6102C9.45365 35.8134 8.27501 31.9337 8.27501 31.9337C7.36648 29.6255 6.05279 28.9994 6.05279 28.9994C4.23573 27.7594 6.18784 27.7839 6.18784 27.7839C8.18907 27.9312 9.25721 29.8465 9.25721 29.8465C11.0374 32.9036 13.9349 32.0196 15.0767 31.504C15.2609 30.2149 15.7765 29.3309 16.3413 28.8275C11.9091 28.3364 7.24371 26.6176 7.24371 18.9564C7.24371 16.771 8.01719 14.9908 9.30632 13.5912C9.0976 13.0755 8.41007 11.0497 9.49048 8.29957C9.49048 8.29957 11.1725 7.75936 14.9908 10.3499C16.5869 9.90792 18.2934 9.68692 20 9.67465C21.6943 9.68692 23.4131 9.90792 25.0092 10.3499C28.8275 7.75936 30.5095 8.29957 30.5095 8.29957C31.6022 11.0497 30.9147 13.0878 30.706 13.5912C31.9828 14.9908 32.7563 16.771 32.7563 18.9564C32.7563 26.6421 28.0786 28.3241 23.6219 28.8275C24.3339 29.4414 24.9847 30.6691 24.9847 32.5353C24.9847 35.2118 24.9601 37.3603 24.9601 38.0233C24.9601 38.5635 25.3161 39.1774 26.3352 38.981C34.2787 36.329 40 28.8398 40 20.0123C40 8.95028 31.0497 0 20 0Z" fill="#2D2C3D"/>
</svg>
