<svg width="150" height="44" viewBox="0 0 150 44" fill="none" xmlns="http://www.w3.org/2000/svg">
<g clip-path="url(#clip0)">
<path d="M16.161 21.5507C16.161 23.7325 17.4649 25.6156 19.335 26.4624C19.5844 26.5741 19.8571 26.3403 19.787 26.0779C19.4155 24.6312 19.2156 23.1143 19.2156 21.5507C19.2156 19.987 19.4155 18.4728 19.787 17.0234C19.8545 16.7585 19.5818 16.5247 19.335 16.639C17.4675 17.4831 16.161 19.3663 16.161 21.5507Z" fill="#593CF7"/>
<path d="M10.774 21.5506C10.774 27.4909 15.6078 32.3247 21.5481 32.3247C21.7403 32.3247 21.9299 32.3195 22.1169 32.3091C22.3792 32.2961 22.5169 32 22.3689 31.7818C21.9325 31.1428 21.5377 30.4753 21.1844 29.7818C21.1325 29.6779 21.0312 29.613 20.9169 29.6052C16.7533 29.2831 13.465 25.7922 13.465 21.548C13.465 17.3039 16.7533 13.813 20.9169 13.4909C21.0312 13.4831 21.1325 13.4156 21.1844 13.3143C21.5377 12.6208 21.9325 11.9532 22.3689 11.3143C22.5169 11.0987 22.3766 10.8026 22.1169 10.787C21.9273 10.7766 21.7377 10.7714 21.5481 10.7714C15.6078 10.774 10.774 15.6078 10.774 21.5506Z" fill="#593CF7"/>
<path d="M5.42856 22.7091C5.97921 30.561 12.2493 36.9481 20.0883 37.6468C22.4 37.8519 24.6182 37.5636 26.6597 36.8805C26.9221 36.7922 26.9714 36.452 26.748 36.2883C26.0961 35.8156 25.4805 35.3013 24.8961 34.7481C24.8156 34.6727 24.7039 34.6416 24.5974 34.6675C23.1403 35.0078 21.5922 35.1143 19.9948 34.9299C13.5221 34.1818 8.44155 28.787 8.09869 22.2779C7.6883 14.5221 13.8805 8.08053 21.548 8.08053C22.5974 8.08053 23.6182 8.20261 24.5974 8.43118C24.7039 8.45715 24.8156 8.42598 24.8961 8.35066C25.4779 7.79741 26.0961 7.28313 26.748 6.8104C26.9714 6.64936 26.9221 6.3065 26.6597 6.21819C25.0519 5.68053 23.3351 5.38702 21.548 5.38702C12.2545 5.38702 4.76622 13.2753 5.42856 22.7091Z" fill="#593CF7"/>
<path d="M30.1117 38.3403C27.1792 39.8416 23.8078 40.6026 20.2416 40.3584C10.7403 39.7091 3.13507 31.9169 2.71169 22.4026C2.23377 11.6208 10.8675 2.69351 21.5506 2.69351C24.6312 2.69351 27.5403 3.44156 30.1117 4.75845C30.1974 4.8026 30.2961 4.8052 30.3844 4.76884C31.2 4.42598 32.0468 4.14286 32.9169 3.92208C33.2026 3.84936 33.2597 3.46754 33.0104 3.31169C29.2831 0.958446 24.7922 -0.283112 19.9974 0.0545503C9.17922 0.818187 0.532468 9.68572 0.0233769 20.5169C-0.555844 32.8675 9.32467 43.0987 21.5481 43.0987C25.7558 43.0987 29.6857 41.8831 33.0078 39.7896C33.2597 39.6312 33.2026 39.252 32.9143 39.1766C32.0442 38.9558 31.1974 38.6701 30.3818 38.3299C30.2961 38.2935 30.1974 38.2987 30.1117 38.3403Z" fill="#593CF7"/>
<path d="M50.9247 10.6208H53.6623V30.8052H64.174V33.2338H50.9247V10.6208Z" fill="#2D2C3D"/>
<path d="M78.1351 16.2728H80.7402V33.2312H78.1351V30.3611H77.9584C77.1636 32.0832 75.4857 33.452 72.9247 33.452C69.7454 33.452 67.4493 31.3767 67.4493 27.0494V16.2728H70.0545V26.8728C70.0545 29.3455 71.6 30.9351 73.7636 30.9351C75.7065 30.9351 78.1351 29.478 78.1351 26.2987V16.2728Z" fill="#2D2C3D"/>
<path d="M88.1221 33.2312H85.5169V10.6208H88.1221V33.2312Z" fill="#2D2C3D"/>
<path d="M95.574 33.2312H92.9688V10.6208H95.574V33.2312Z" fill="#2D2C3D"/>
<path d="M99.6 28.4182C99.6 24.5325 103.034 23.8364 106.182 23.4286C109.273 23.0312 110.553 23.1403 110.553 21.8831V21.7948C110.553 19.6208 109.371 18.3507 106.977 18.3507C104.493 18.3507 103.135 19.6753 102.561 20.9117L100.088 20.0286C101.413 16.9377 104.327 16.0546 106.891 16.0546C109.055 16.0546 113.161 16.6727 113.161 22.0598V33.2338H110.556V30.9377H110.423C109.893 32.0416 108.348 33.6312 105.39 33.6312C102.161 33.6312 99.6 31.7299 99.6 28.4182ZM110.553 27.0935V24.7091C110.112 25.239 107.153 25.5481 106.049 25.6805C104.018 25.9455 102.208 26.5637 102.208 28.5507C102.208 30.3611 103.709 31.2883 105.784 31.2883C108.875 31.2883 110.553 29.213 110.553 27.0935Z" fill="#2D2C3D"/>
<path d="M118.068 10.6208H120.673V18.9688H120.894C121.468 18.0857 122.483 16.0546 125.795 16.0546C130.078 16.0546 133.039 19.4546 133.039 24.8C133.039 30.187 130.081 33.5896 125.839 33.5896C122.571 33.5896 121.468 31.5585 120.894 30.6312H120.584V33.2364H118.068V10.6208ZM125.488 31.2442C128.756 31.2442 130.434 28.374 130.434 24.7507C130.434 21.174 128.8 18.3922 125.488 18.3922C122.309 18.3922 120.631 20.9533 120.631 24.7507C120.629 28.5948 122.351 31.2442 125.488 31.2442Z" fill="#2D2C3D"/>
<path d="M135.823 39.5039L136.486 37.2078C138.384 37.6935 139.59 37.452 140.504 34.9117L141.078 33.3221L134.805 16.2728H137.631L142.312 29.787H142.488L147.169 16.2728H149.995L142.706 35.9715C141.735 38.5767 140.101 39.813 137.717 39.813C136.839 39.813 136.088 39.6364 135.823 39.5039Z" fill="#2D2C3D"/>
</g>
<defs>
<clipPath id="clip0">
<rect width="150" height="43.0987" fill="white"/>
</clipPath>
</defs>
</svg>
