<svg width="34" height="44" viewBox="0 0 34 44" fill="none" xmlns="http://www.w3.org/2000/svg">
<path d="M16.1621 21.5507C16.1621 23.7325 17.466 25.6156 19.3361 26.4624C19.5855 26.5741 19.8582 26.3403 19.7881 26.0779C19.4166 24.6312 19.2166 23.1143 19.2166 21.5507C19.2166 19.987 19.4166 18.4728 19.7881 17.0234C19.8556 16.7585 19.5829 16.5247 19.3361 16.639C17.4686 17.4831 16.1621 19.3663 16.1621 21.5507Z" fill="#593CF7"/>
<path d="M10.7749 21.5507C10.7749 27.4909 15.6087 32.3247 21.5489 32.3247C21.7411 32.3247 21.9308 32.3195 22.1178 32.3091C22.3801 32.2961 22.5178 32 22.3697 31.7818C21.9333 31.1429 21.5385 30.4753 21.1853 29.7818C21.1333 29.6779 21.032 29.613 20.9178 29.6052C16.7541 29.2831 13.4658 25.7922 13.4658 21.5481C13.4658 17.3039 16.7541 13.813 20.9178 13.4909C21.032 13.4831 21.1333 13.4156 21.1853 13.3143C21.5385 12.6208 21.9333 11.9533 22.3697 11.3143C22.5178 11.0987 22.3775 10.8026 22.1178 10.787C21.9282 10.7766 21.7385 10.7715 21.5489 10.7715C15.6087 10.7741 10.7749 15.6078 10.7749 21.5507Z" fill="#593CF7"/>
<path d="M5.42948 22.7091C5.98012 30.561 12.2503 36.9481 20.0892 37.6468C22.4009 37.8519 24.6191 37.5636 26.6607 36.8805C26.923 36.7922 26.9723 36.452 26.749 36.2883C26.097 35.8156 25.4814 35.3013 24.897 34.7481C24.8165 34.6727 24.7048 34.6416 24.5983 34.6675C23.1412 35.0078 21.5931 35.1143 19.9957 34.9299C13.523 34.1818 8.44246 28.787 8.09961 22.2779C7.68922 14.5221 13.8814 8.08053 21.549 8.08053C22.5983 8.08053 23.6191 8.20261 24.5983 8.43118C24.7048 8.45715 24.8165 8.42598 24.897 8.35066C25.4788 7.79741 26.097 7.28313 26.749 6.8104C26.9723 6.64936 26.923 6.3065 26.6607 6.21819C25.0529 5.68053 23.336 5.38702 21.549 5.38702C12.2555 5.38702 4.76714 13.2753 5.42948 22.7091Z" fill="#593CF7"/>
<path d="M30.1125 38.3403C27.1801 39.8416 23.8086 40.6026 20.2424 40.3584C10.7411 39.7091 3.13592 31.9169 2.71254 22.4026C2.23462 11.6208 10.8684 2.69351 21.5515 2.69351C24.632 2.69351 27.5411 3.44156 30.1125 4.75845C30.1983 4.8026 30.297 4.8052 30.3853 4.76884C31.2009 4.42598 32.0476 4.14286 32.9177 3.92208C33.2035 3.84936 33.2606 3.46754 33.0112 3.31169C29.284 0.958446 24.7931 -0.283112 19.9983 0.0545503C9.18007 0.818187 0.533322 9.68572 0.0242314 20.5169C-0.554989 32.8675 9.32553 43.0987 21.5489 43.0987C25.7567 43.0987 29.6866 41.8831 33.0086 39.7896C33.2606 39.6312 33.2035 39.252 32.9151 39.1766C32.045 38.9558 31.1983 38.6701 30.3827 38.3299C30.297 38.2935 30.1983 38.2987 30.1125 38.3403Z" fill="#593CF7"/>
</svg>
