<?xml version="1.0" standalone="no"?>
<!DOCTYPE svg PUBLIC "-//W3C//DTD SVG 20010904//EN"
 "http://www.w3.org/TR/2001/REC-SVG-20010904/DTD/svg10.dtd">
<svg version="1.0" xmlns="http://www.w3.org/2000/svg"
 width="1024.000000pt" height="1024.000000pt" viewBox="0 0 1024.000000 1024.000000"
 preserveAspectRatio="xMidYMid meet">
<metadata>
Created by potrace 1.11, written by Peter Selinger 2001-2013
</metadata>
<g transform="translate(0.000000,1024.000000) scale(0.100000,-0.100000)"
fill="#000000" stroke="none">
<path d="M5658 10235 c-2 -2 -48 -6 -103 -9 -90 -6 -283 -27 -375 -42 -19 -3
-48 -8 -65 -10 -511 -81 -1095 -284 -1550 -537 -1180 -657 -2037 -1733 -2421
-3037 -37 -125 -103 -395 -119 -485 -28 -158 -50 -306 -61 -410 -3 -33 -8 -68
-9 -77 -26 -139 -26 -747 0 -1013 5 -60 17 -160 20 -176 2 -9 6 -40 10 -69 4
-29 9 -62 11 -74 2 -11 6 -38 10 -61 4 -33 56 -283 68 -335 2 -8 7 -28 11 -45
37 -155 168 -566 214 -670 17 -38 39 -90 66 -155 91 -221 285 -577 433 -797
91 -134 155 -226 162 -233 3 -3 30 -36 59 -75 226 -292 527 -598 816 -831 162
-129 373 -281 487 -349 158 -94 331 -190 443 -245 130 -63 349 -160 361 -160
3 0 20 -6 37 -14 18 -8 61 -24 97 -36 36 -12 74 -26 85 -30 30 -13 149 -50
173 -55 12 -2 26 -6 31 -9 24 -15 392 -101 521 -122 14 -2 41 -7 60 -11 19 -3
44 -7 55 -8 11 -2 56 -7 100 -13 217 -30 327 -36 625 -37 319 0 514 13 745 50
17 3 48 8 70 11 100 14 409 85 560 128 152 43 373 121 505 179 25 11 81 35
125 54 204 87 636 330 675 380 43 55 13 111 -72 132 -90 23 -337 107 -456 155
-62 25 -121 45 -130 43 -10 -1 -70 -28 -133 -59 -231 -113 -622 -261 -748
-285 -14 -2 -27 -6 -31 -8 -7 -4 -220 -54 -260 -61 -20 -4 -56 -11 -90 -19 -3
-1 -30 -5 -60 -9 -30 -5 -64 -10 -75 -12 -11 -2 -58 -9 -105 -14 -293 -35
-740 -35 -1000 0 -41 5 -93 12 -115 15 -22 3 -87 14 -145 25 -143 27 -138 26
-216 45 -395 97 -778 249 -1130 450 -95 55 -383 243 -434 284 -14 11 -63 51
-110 88 -156 124 -211 173 -375 338 -424 422 -760 933 -985 1495 -89 221 -205
601 -234 765 -3 17 -8 44 -11 60 -3 17 -10 55 -15 85 -5 30 -12 69 -14 85 -3
17 -10 66 -16 110 -6 44 -12 94 -15 110 -27 199 -27 776 0 970 3 17 7 48 9 70
17 151 77 479 107 588 7 23 13 47 14 52 2 6 19 64 39 130 175 587 467 1128
868 1610 99 120 377 402 503 510 335 288 820 584 1186 725 30 11 63 25 74 30
39 19 255 90 377 124 225 63 482 114 663 132 39 3 78 8 89 10 86 16 465 22
641 10 157 -10 467 -48 504 -62 8 -2 30 -7 50 -10 53 -8 303 -71 401 -100 219
-66 423 -146 650 -257 69 -33 135 -60 147 -59 12 1 70 21 130 46 102 41 269
97 430 145 82 24 115 55 107 99 -7 35 -18 48 -79 86 -274 175 -603 340 -890
448 -77 29 -302 106 -334 114 -9 2 -65 18 -126 34 -92 25 -174 45 -319 76 -40
9 -241 42 -296 49 -30 4 -66 9 -80 11 -14 1 -56 6 -95 9 -38 3 -86 9 -105 12
-36 5 -616 13 -622 8z"/>
<path d="M5599 8956 c-2 -2 -39 -6 -82 -10 -71 -6 -143 -15 -252 -31 -94 -15
-286 -59 -398 -91 -123 -36 -334 -110 -352 -124 -5 -4 -21 -11 -35 -15 -31 -9
-287 -134 -355 -173 -118 -68 -331 -207 -395 -259 -8 -6 -52 -41 -96 -77 -456
-365 -856 -893 -1089 -1441 -26 -60 -53 -123 -60 -140 -44 -102 -153 -464
-179 -595 -2 -14 -10 -50 -16 -80 -6 -30 -13 -64 -15 -75 -8 -38 -24 -150 -31
-205 -3 -30 -8 -57 -9 -60 -9 -16 -20 -264 -20 -455 0 -222 9 -385 30 -540 10
-79 45 -276 55 -315 5 -19 11 -46 14 -60 25 -136 116 -428 191 -610 91 -224
241 -510 358 -685 50 -74 198 -276 213 -290 6 -5 38 -44 71 -85 140 -173 451
-463 633 -589 290 -202 501 -318 780 -429 304 -121 587 -189 950 -229 140 -15
613 -8 708 11 13 3 51 8 85 11 34 4 65 8 68 11 3 2 25 6 49 9 118 15 493 119
552 153 29 17 44 58 33 91 -3 11 -54 60 -113 109 -115 95 -195 166 -281 251
-30 29 -64 56 -75 61 -12 4 -55 -1 -101 -10 -92 -21 -134 -28 -190 -36 -22 -2
-45 -6 -52 -9 -75 -26 -615 -26 -763 0 -8 1 -35 6 -60 10 -25 4 -54 9 -65 11
-11 2 -33 7 -50 9 -112 20 -410 109 -500 150 -16 7 -50 21 -75 31 -76 30 -281
138 -389 205 -207 129 -340 237 -537 433 -253 253 -434 505 -596 831 -126 253
-250 615 -284 834 -3 20 -7 38 -9 41 -2 3 -8 42 -14 86 -7 44 -14 91 -16 105
-27 138 -27 768 0 852 2 7 7 37 10 67 11 85 13 98 35 205 95 463 310 937 593
1310 96 127 154 193 292 331 294 296 643 523 1045 679 96 37 303 100 370 111
14 3 33 7 42 10 10 3 29 7 43 10 14 2 37 6 53 9 157 29 288 40 492 40 192 -1
327 -10 435 -29 17 -3 48 -8 70 -12 22 -3 69 -13 105 -21 100 -23 101 -23 124
-11 17 9 80 67 205 189 9 9 69 59 133 113 124 102 139 125 118 176 -13 32 -43
46 -200 93 -192 58 -447 111 -595 123 -38 3 -74 9 -79 12 -10 6 -521 13 -527
8z"/>
<path d="M5658 7675 c-2 -1 -41 -5 -88 -9 -84 -6 -124 -11 -168 -21 -12 -3
-41 -8 -65 -10 -23 -3 -87 -17 -142 -31 -55 -13 -110 -27 -122 -29 -12 -3 -68
-21 -125 -41 -804 -278 -1410 -887 -1661 -1669 -84 -263 -115 -481 -112 -775
2 -113 5 -216 8 -230 3 -14 8 -47 11 -75 7 -60 14 -101 22 -135 3 -14 8 -36
10 -50 37 -200 161 -520 281 -725 123 -208 257 -379 433 -551 111 -108 125
-120 255 -218 237 -178 463 -299 739 -395 82 -29 282 -84 345 -96 230 -42 346
-52 553 -51 162 1 167 2 192 25 15 14 26 36 26 50 0 14 -37 81 -89 160 -48 75
-108 170 -131 211 -117 205 -103 192 -235 205 -38 4 -79 9 -90 11 -11 2 -31 6
-45 9 -58 11 -75 15 -167 40 -411 112 -800 374 -1053 710 -382 507 -486 1146
-284 1743 37 109 143 322 209 422 201 300 460 526 785 683 117 57 301 127 373
141 12 3 63 14 112 25 50 10 119 22 155 26 73 8 93 12 120 20 10 3 50 62 89
131 39 69 111 187 161 263 49 76 90 147 90 159 0 11 -11 34 -24 49 l-24 28
-171 1 c-94 1 -172 0 -173 -1z"/>
<path d="M5204 6350 c-347 -181 -606 -503 -707 -880 -15 -54 -19 -77 -34 -170
-9 -58 -10 -277 -1 -355 17 -144 60 -281 138 -440 105 -212 256 -387 460 -530
71 -50 235 -135 260 -135 54 0 98 52 87 102 -2 13 -18 84 -35 158 -28 129 -56
275 -66 350 -13 94 -28 220 -31 260 -14 179 -16 248 -16 420 0 107 3 227 6
265 3 39 8 99 10 135 10 128 55 432 80 540 3 14 8 36 11 50 4 23 12 58 20 85
2 6 9 39 15 74 l13 64 -32 28 c-18 16 -43 29 -57 29 -14 0 -68 -23 -121 -50z"/>
</g>
</svg>
