<svg width="36" height="30" viewBox="0 0 36 30" fill="none" xmlns="http://www.w3.org/2000/svg">
<g clip-path="url(#clip0)">
<path d="M22.6375 0.289897C21.9554 -0.0937891 21.1454 -0.0937891 20.5059 0.289897L8.61162 7.28151H3.41054C1.53474 7.28151 0 8.81626 0 10.6921V19.3463C0 21.2221 1.53474 22.7569 3.41054 22.7569H8.61162L20.4633 29.7058C20.8043 29.919 21.188 30.0043 21.5291 30.0043C21.9127 30.0043 22.2538 29.919 22.5949 29.7058C23.277 29.3221 23.6607 28.5974 23.6607 27.8727V2.12306C23.7033 1.35569 23.277 0.66932 22.6375 0.289897Z" fill="#593CF7"/>
<path d="M27.7107 7.6652C27.1991 7.19625 26.3891 7.23888 25.9202 7.79309C25.6729 8.06168 25.5706 8.41552 25.609 8.75657L25.5962 8.74378V21.5461L25.6175 21.5333C25.6303 21.8062 25.7241 22.0705 25.9202 22.2879C26.176 22.5863 26.517 22.7142 26.8581 22.7142C27.1565 22.7142 27.4549 22.629 27.7107 22.3732C29.7997 20.4974 31.036 17.8116 31.036 15.0405C31.036 12.2694 29.8423 9.4941 27.7107 7.6652Z" fill="#593CF7"/>
</g>
<defs>
<clipPath id="clip0">
<rect width="35.8533" height="30" fill="white"/>
</clipPath>
</defs>
</svg>
