<svg width="91" height="50" viewBox="0 0 91 50" fill="none" xmlns="http://www.w3.org/2000/svg">
<path d="M89.4806 36.2148C83.1729 36.2148 79.7988 27.8801 76.2266 19.0547C72.4363 9.68624 68.5127 0 60.1602 0C51.7957 0 48.0659 11.6935 44.1665 24.1794C40.7237 27.4457 37.3819 30.4626 30.8317 30.4626C24.1805 30.4626 20.8346 26.7659 17.2908 22.852C15.9977 21.424 14.6562 19.9517 13.1368 18.6404L13.1045 18.6002C12.3327 17.5342 11.5083 16.5728 10.6557 15.7361C10.5426 15.6235 10.4092 15.535 10.2678 15.4626C7.9524 12.6106 5.15613 10.7643 1.51128 10.7643C0.678863 10.7683 0 11.4441 0 12.2767C0 13.1094 0.678863 13.7852 1.51532 13.7852C7.81905 13.7852 11.1972 22.1199 14.7693 30.9453C18.5596 40.3138 22.4833 49.996 30.8357 49.996C39.2003 49.996 42.93 38.3065 46.8254 25.8206C50.2682 22.5543 53.61 19.5334 60.1521 19.5334C66.8074 19.5334 70.1532 23.2261 73.693 27.1319C74.9901 28.564 76.3357 30.0402 77.8632 31.3556L77.8915 31.3958C78.6633 32.4618 79.4876 33.4232 80.3402 34.2599C80.4534 34.3725 80.5827 34.457 80.7241 34.5334C83.0395 37.3894 85.8398 39.2317 89.4806 39.2317C90.3171 39.2317 90.996 38.5559 90.996 37.7232C91 36.8906 90.3211 36.2148 89.4806 36.2148ZM60.1602 3.02092C65.1143 3.02092 68.2581 8.16975 71.1109 14.65C68.3793 11.1907 65.0173 8.69268 60.1562 8.69268C56.4871 8.69268 53.6787 10.2574 51.3471 12.6629C53.6989 7.06758 56.4588 3.02092 60.1602 3.02092ZM30.8317 33.4795C35.0544 33.4795 38.1456 32.4135 40.6954 30.8689C38.1376 35.1408 35.1918 38.2864 30.8317 38.2864C25.5948 38.2864 22.4025 34.28 19.489 29.3363C22.3015 31.6774 25.8049 33.4795 30.8317 33.4795ZM30.8357 46.9791C25.8857 46.9791 22.746 41.8423 19.8972 35.366C22.6207 38.8174 25.9786 41.3033 30.8317 41.3033C34.5048 41.3033 37.3173 39.7385 39.6488 37.3331C37.293 42.9364 34.5372 46.9791 30.8357 46.9791ZM60.1562 16.5205C55.9416 16.5205 52.8544 17.5865 50.3086 19.1311C52.8665 14.8592 55.8082 11.7136 60.1562 11.7136C65.3931 11.7136 68.5894 15.7241 71.511 20.6718C68.6945 18.3266 65.1911 16.5205 60.1562 16.5205Z" fill="#593CF7"/>
</svg>
