<?xml version="1.0" encoding="UTF-8"?>
<svg width="90px" height="60px" viewBox="0 0 90 60" version="1.1" xmlns="http://www.w3.org/2000/svg" xmlns:xlink="http://www.w3.org/1999/xlink">
    <g stroke="none" stroke-width="1" fill="none" fill-rule="evenodd">
        <g fill="#5A3BF7" fill-rule="nonzero">
            <path d="M2,26.5 C0.896,26.5 0,27.396 0,28.5 L0,31.5 C0,32.604 0.896,33.5 2,33.5 C3.104,33.5 4,32.604 4,31.5 L4,28.5 C4,27.396 3.104,26.5 2,26.5 Z" id="Path"></path>
            <path d="M7.733,21.103 C6.629,21.103 5.733,21.999 5.733,23.103 L5.733,36.898 C5.733,38.002 6.629,38.898 7.733,38.898 C8.837,38.898 9.733,38.002 9.733,36.898 L9.733,23.103 C9.733,21.998 8.838,21.103 7.733,21.103 Z" id="Path"></path>
            <path d="M13.467,24.167 C12.363,24.167 11.467,25.063 11.467,26.167 L11.467,33.834 C11.467,34.938 12.363,35.834 13.467,35.834 C14.571,35.834 15.467,34.938 15.467,33.834 L15.467,26.167 C15.467,25.062 14.571,24.167 13.467,24.167 Z" id="Path"></path>
            <path d="M19.2,15.875 C18.096,15.875 17.2,16.771 17.2,17.875 L17.2,42.125 C17.2,43.229 18.096,44.125 19.2,44.125 C20.304,44.125 21.2,43.229 21.2,42.125 L21.2,17.875 C21.2,16.771 20.305,15.875 19.2,15.875 Z" id="Path"></path>
            <path d="M24.933,8.333 C23.829,8.333 22.933,9.229 22.933,10.333 L22.933,49.666 C22.933,50.77 23.829,51.666 24.933,51.666 C26.037,51.666 26.933,50.77 26.933,49.666 L26.933,10.333 C26.933,9.229 26.038,8.333 24.933,8.333 Z" id="Path"></path>
            <path d="M30.667,16.833 C29.563,16.833 28.667,17.729 28.667,18.833 L28.667,41.166 C28.667,42.27 29.563,43.166 30.667,43.166 C31.771,43.166 32.667,42.27 32.667,41.166 L32.667,18.833 C32.667,17.729 31.771,16.833 30.667,16.833 Z" id="Path"></path>
            <path d="M36.538,9.335 C35.465,9.297 34.532,10.217 34.525,11.322 L34.2759589,48.652 C34.269,49.756 35.158,50.658 36.263,50.665 C36.267,50.665 36.272,50.665 36.277,50.665 C37.375,50.665 38.269,49.778 38.277,48.678 L38.5260302,11.348 C38.532,10.244 37.642,9.342 36.538,9.335 Z" id="Path"></path>
            <path d="M42.133,0.349 C41.029,0.349 40.133,1.245 40.133,2.349 L40.133,57.652 C40.133,58.756 41.029,59.652 42.133,59.652 C43.237,59.652 44.133,58.756 44.133,57.652 L44.133,2.349 C44.133,1.244 43.238,0.349 42.133,0.349 Z" id="Path"></path>
            <path d="M47.867,6.75 C46.763,6.75 45.867,7.646 45.867,8.75 L45.867,51.25 C45.867,52.354 46.763,53.25 47.867,53.25 C48.971,53.25 49.867,52.354 49.867,51.25 L49.867,8.75 C49.867,7.646 48.971,6.75 47.867,6.75 Z" id="Path"></path>
            <path d="M53.6,16.833 C52.496,16.833 51.6,17.729 51.6,18.833 L51.6,41.166 C51.6,42.27 52.496,43.166 53.6,43.166 C54.704,43.166 55.6,42.27 55.6,41.166 L55.6,18.833 C55.6,17.729 54.705,16.833 53.6,16.833 Z" id="Path"></path>
            <path d="M59.333,10.5 C58.229,10.5 57.333,11.396 57.333,12.5 L57.333,47.5 C57.333,48.604 58.229,49.5 59.333,49.5 C60.437,49.5 61.333,48.604 61.333,47.5 L61.333,12.5 C61.333,11.396 60.438,10.5 59.333,10.5 Z" id="Path"></path>
            <path d="M65.067,19.132 C63.963,19.132 63.067,20.028 63.067,21.132 L63.067,38.867 C63.067,39.971 63.963,40.867 65.067,40.867 C66.171,40.867 67.067,39.971 67.067,38.867 L67.067,21.132 C67.067,20.028 66.171,19.132 65.067,19.132 Z" id="Path"></path>
            <path d="M70.8,23 C69.696,23 68.8,23.896 68.8,25 L68.8,35 C68.8,36.104 69.696,37 70.8,37 C71.904,37 72.8,36.104 72.8,35 L72.8,25 C72.8,23.896 71.904,23 70.8,23 Z" id="Path"></path>
            <path d="M76.533,21.235 C75.429,21.235 74.533,22.131 74.533,23.235 L74.533,36.765 C74.533,37.869 75.429,38.765 76.533,38.765 C77.637,38.765 78.533,37.869 78.533,36.765 L78.533,23.235 C78.533,22.13 77.638,21.235 76.533,21.235 Z" id="Path"></path>
            <path d="M82.267,25.49 C81.163,25.49 80.267,26.386 80.267,27.49 L80.267,32.511 C80.267,33.615 81.163,34.511 82.267,34.511 C83.371,34.511 84.267,33.615 84.267,32.511 L84.267,27.49 C84.267,26.385 83.371,25.49 82.267,25.49 Z" id="Path"></path>
            <path d="M88,26.917 C86.896,26.917 86,27.813 86,28.917 L86,31.084 C86,32.188 86.896,33.084 88,33.084 C89.104,33.084 90,32.188 90,31.084 L90,28.917 C90,27.812 89.104,26.917 88,26.917 Z" id="Path"></path>
        </g>
    </g>
</svg>