<svg height="33" viewBox="0 0 114 33" width="114" xmlns="http://www.w3.org/2000/svg"><g fill="none" fill-rule="evenodd"><path d="m12 17.001052c.0022393 1.7158275 1.0267246 3.2714257 2.6187988 3.9764349.0953226.041087.2061521.0251062.2854408-.0411582.0792888-.0662644.1131246-.1711856.0871438-.270224-.6280838-2.4051138-.6280838-4.9270956 0-7.3322094.0259808-.0990384-.007855-.2039596-.0871438-.270224-.0792887-.0662644-.1901182-.0822452-.2854408-.0411582-1.5927806.705323-2.6174004 2.2619488-2.6187988 3.9785389z" fill="#593cf7"/><path d="m8 16.9980695c.00883774 4.4210877 3.7300084 8.0008741 8.317968 8.0019305.1455778 0 .2918234-.003861.4387367-.011583.0922943-.005219.1746649-.0575504.2160111-.1372354.0413463-.0796849.0353691-.1745836-.0156746-.248865-.3369236-.4752845-.6414099-.9711833-.9115307-1.484556-.0392631-.0740582-.1145512-.1241176-.2003364-.1332046-3.2276439-.2622475-5.7088209-2.863265-5.7088209-5.984556s2.481177-5.7223085 5.7088209-5.984556c.0860507-.0083958.1616496-.0586619.2003364-.1332046.271019-.5128974.5754718-1.0087416.9115307-1.484556.0510437-.07428139.0570209-.16918008.0156746-.24886504-.0413462-.07968496-.1237168-.13201635-.2160111-.13723535-.1455778-.00772201-.2918233-.01158301-.4387367-.01158301-4.586399.00105138-8.30692455 3.5784902-8.317968 7.9980695z" fill="#593cf7"/><path d="m4.0313556 17.3962629c.26439204 3.8504454 2.22620531 7.3575866 5.3146095 9.500948 3.0884042 2.1433614 6.9564974 2.6821921 10.4787777 1.4597082.0897789-.0301141.1555095-.1103387.1698233-.2072702.0143139-.0969316-.0252422-.1939577-.1021981-.2506791-.4840885-.3648517-.9443106-.7627523-1.3776223-1.1910701-.059182-.0584603-.1427685-.0818833-.2221972-.062265-4.0251573.9776154-8.2147129-.7145449-10.54905558-4.2607604-2.3343427-3.5462156-2.3343427-8.2186166 0-11.7648322 2.33434268-3.54621551 6.52389828-5.23837576 10.54905558-4.26076038.0794418.02079208.1635713-.00278304.2221972-.06226504.4346765-.42875755.895483-.82794726 1.3795544-1.19508713.0770241-.05641212.1168644-.15315335.1029676-.25002851-.0138967-.09687515-.0791551-.17732406-.1686606-.20792085-3.8113885-1.3236387-8.0069501-.57978082-11.18082476 1.98231974-3.17387466 2.56210055-4.90617108 6.60348787-4.61642674 10.76996297z" fill="#593cf7"/><path d="m22.6951896 29.3579662c-2.2879421 1.1958154-4.853872 1.7307091-7.4192848 1.5466238-7.5893208-.5733855-13.37966938-7.1463395-13.11740507-14.8903126.26226431-7.74397317 6.4835414-13.89520114 14.09362677-13.93493814 2.2414015.00036443 4.4503263.54559932 6.4430631 1.59035866.0621963.02790426.1330481.02790426.1952443 0 .6177978-.26401835 1.2541148-.48064563 1.9036323-.64807115.098012-.02611282.1713852-.10907004.1866628-.21104456s-.0304669-.20343268-.1163748-.25811125c-5.8320732-3.75321165-13.3585927-3.33514994-18.75506415 1.041753-5.39647148 4.37690293-7.4794809 11.75281834-5.19057652 18.37977924s8.44777944 11.0517143 15.34708007 11.0258843c3.0490601.0037658 6.0364262-.8745466 8.6141801-2.5326462.0863106-.053993.1324525-.1553805.1171132-.2573325-.0153392-.1019521-.0891742-.184626-.1874011-.2098353-.6493017-.1690014-1.285553-.3862708-1.9036323-.6500591-.0679945-.0291734-.1451752-.0262629-.2108639.0079518z" fill="#593cf7"/><g fill="#fff"><path d="m39 8h2.0682219v15.1740379h7.9317781v1.8259621h-9.9980396z"/><path d="m59.0445835 12h1.9554165v12.8232361h-1.9554165v-2.1604472h-.1329683c-.5983575 1.3021605-1.8615565 2.3372111-3.7895972 2.3372111-2.3934298 0-4.122018-1.5712343-4.122018-4.8413658v-8.1586342h1.9554165v8.0152591c0 1.8697688 1.1732499 3.0717631 2.7923348 3.0717631 1.4626515 0 3.2909659-1.1018281 3.2909659-3.5058166z"/><path d="m67 25h-2v-17h2z"/><path d="m73 25h-2v-17h2z"/><path d="m76 21.1477927c0-2.8790787 2.532567-3.3857965 4.8544061-3.6871401 2.2796935-.293666 3.224138-.2130518 3.224138-1.1516315v-.0652591c0-1.6084453-.8716475-2.547025-2.6379311-2.547025-1.8333333 0-2.8333333.9788868-3.256705 1.8944338l-1.8256705-.6545105c.9770115-2.2840691 3.1283525-2.9366603 5.0172414-2.9366603 1.5957855 0 4.6245211.4568138 4.6245211 4.4395393v8.253359h-1.9157088v-1.6852208h-.0977012c-.3831417.815739-1.532567 1.9923225-3.7126436 1.9923225-2.3850575 0-4.2739464-1.4049904-4.2739464-3.8522073zm8.0785441-.9788867v-1.7619962c-.3256705.3838771-2.5076629.6199616-3.3218391.7178503-1.4980843.1919386-2.8333334.6525911-2.8333334 2.1113244 0 1.34357 1.1072797 2.0230326 2.6379311 2.0230326 2.2796935.0095969 3.5172414-1.5239923 3.5172414-3.0902111z"/><path d="m90.0057252 8h1.9083969v6.1756986h.1622138c.4217557-.6539201 1.1679389-2.1579364 3.6030534-2.1579364 3.1469466 0 5.3206107 2.5175925 5.3206107 6.4757325 0 3.9889128-2.1736641 6.5065053-5.2881679 6.5065053-2.4026718 0-3.2137405-1.5040163-3.6354962-2.1906324h-.2270993v1.9232945h-1.8492366zm5.4522901 15.2709583c2.4007633 0 3.6259542-2.1252405 3.6259542-4.8082363 0-2.6483765-1.2003817-4.7101482-3.6259542-4.7101482-2.3377863 0-3.5706107 1.8963684-3.5706107 4.7101482 0 2.8464759 1.2652672 4.8082363 3.5706107 4.8082363z"/><path d="m102.804103 29.7622088.523076-1.7555671c1.499488.3713699 2.449231.184692 3.173334-1.7555672l.453333-1.2173786-4.953846-13.0336959h2.233846l3.692308 10.3268656h.139487l3.692308-10.3268656h2.242051l-5.755897 15.0613363c-.76718 1.9859357-2.051282 2.9371989-3.940513 2.9371989-.510754.0135212-1.019536-.0666653-1.499487-.2363264z"/></g></g></svg>