<svg width="23" height="31" viewBox="0 0 23 31" fill="none" xmlns="http://www.w3.org/2000/svg">
<path d="M0 2.26745L0 28.0699C0 29.1601 0.885762 30.0439 1.97841 30.0439L6.6889 30.0439C7.78154 30.0439 8.6673 29.1601 8.6673 28.0699L8.6673 2.26745C8.6673 1.17726 7.78154 0.293488 6.6889 0.293488L1.97841 0.293488C0.885762 0.293488 0 1.17726 0 2.26745Z" fill="#593CF7"/>
<path d="M14.3328 2.26745L14.3328 28.0699C14.3328 29.1601 15.2185 30.0439 16.3112 30.0439L21.0217 30.0439C22.1143 30.0439 23.0001 29.1601 23.0001 28.0699L23.0001 2.26745C23.0001 1.17726 22.1143 0.293488 21.0217 0.293488L16.3112 0.293488C15.2185 0.293488 14.3328 1.17726 14.3328 2.26745Z" fill="#593CF7"/>
</svg>
