<?xml version="1.0" encoding="iso-8859-1"?>
<!-- Generator: Adobe Illustrator 19.0.0, SVG Export Plug-In . SVG Version: 6.00 Build 0)  -->
<svg version="1.1" id="Capa_1" xmlns="http://www.w3.org/2000/svg" xmlns:xlink="http://www.w3.org/1999/xlink" x="0px" y="0px"
	 viewBox="0 0 512 512" style="enable-background:new 0 0 512 512;" xml:space="preserve">
<g>
	<g>
		<path d="M337.09,1c-0.031,0-0.06,0-0.091,0c-46.728,0-90.662,18.191-123.713,51.227C180.214,85.283,162,129.24,162,176v81h30v-81
			c0-38.744,15.091-75.165,42.494-102.555C261.881,46.071,298.279,31,336.999,31c0.024,0,0.052,0,0.075,0
			C416.986,31.04,482,96.774,482,177.531c0,81.417-31.705,157.96-89.275,215.532l-70.792,70.792
			C310.876,474.911,296.176,481,280.539,481C248.261,481,222,454.739,222,422.461V397h-30v25.461
			C192,471.282,231.719,511,280.539,511c23.649,0,45.884-9.209,62.606-25.933l70.792-70.792
			c31.247-31.248,55.666-67.792,72.577-108.619C503.426,264.83,512,221.722,512,177.531C512,80.24,433.535,1.048,337.09,1z"/>
	</g>
</g>
<g>
	<g>
		<path d="M337,76c-26.701,0-51.808,10.396-70.694,29.272C247.407,124.162,237,149.28,237,176h0.019
			c-0.003,0.248-0.019,0.492-0.019,0.741v27.333c0,20.725,8.071,40.21,22.726,54.865C264.417,263.63,267,269.867,267,276.5
			s-2.583,12.87-7.273,17.561C248.94,304.847,243,319.188,243,334.441V342c0,25.916,21.084,47,47,47h1c25.916,0,47-21.084,47-47h-30
			c0,9.374-7.626,17-17,17h-1c-9.374,0-17-7.626-17-17v-7.559c0-7.24,2.819-14.047,7.94-19.167
			C291.297,304.916,297,291.146,297,276.5s-5.703-28.416-16.061-38.774C271.95,228.737,267,216.786,267,204.074v-27.333
			c0-16.677,13.226-30.465,29.48-30.736c0.174-0.003,0.346-0.004,0.518-0.004c7.926,0,15.379,3.045,21.035,8.609
			C323.815,160.295,327,167.892,327,176h30c0-16.216-6.368-31.409-17.931-42.781c-10.431-10.258-23.919-16.233-38.365-17.095
			C311.54,109.531,324.007,106,337.037,106C375.615,106.02,407,138.108,407,177.531c0,31.974-6.378,62.835-18.955,91.726
			l27.506,11.975C429.783,248.541,437,213.65,437,177.531C437,121.574,392.164,76.028,337,76z"/>
	</g>
</g>
<g>
	<g>
		<circle cx="20" cy="367" r="20"/>
	</g>
</g>
<g>
	<g>
		<path d="M76.568,310.432l-21.213,21.213c19.494,19.495,19.494,51.216,0,70.711l21.213,21.213
			C107.76,392.376,107.76,341.624,76.568,310.432z"/>
	</g>
</g>
<g>
	<g>
		<path d="M118.995,268.005l-21.213,21.213c42.889,42.889,42.889,112.674,0,155.563l21.213,21.213
			C173.581,411.408,173.581,322.591,118.995,268.005z"/>
	</g>
</g>
<g>
</g>
<g>
</g>
<g>
</g>
<g>
</g>
<g>
</g>
<g>
</g>
<g>
</g>
<g>
</g>
<g>
</g>
<g>
</g>
<g>
</g>
<g>
</g>
<g>
</g>
<g>
</g>
<g>
</g>
</svg>
