<svg width="493" height="419" viewBox="0 0 493 419" fill="none" xmlns="http://www.w3.org/2000/svg">
<path d="M43.5 122.5H493" stroke="#E5E5E5" stroke-dasharray="5 5"/>
<line x1="43.5" y1="11" x2="43.5" y2="356" stroke="#E5E5E5"/>
<path d="M54.848 390.706H56.66V382.186H54.296L53 383.974H54.848V390.706ZM60.9139 388.21H64.4419V386.482H60.9139V388.21ZM74.1488 388.918H70.8248C71.0528 388.486 71.9288 388.018 72.3368 387.718C73.3328 386.986 74.0888 386.23 74.0888 384.706C74.0888 382.942 72.7688 382.042 71.3288 382.042C69.6008 382.042 68.3048 383.218 68.3048 384.898H70.1168C70.1048 384.334 70.5608 383.83 71.2688 383.83C71.9528 383.83 72.2768 384.286 72.2768 384.838C72.2768 385.45 71.6648 385.99 70.9928 386.47C69.7448 387.358 68.2688 388.162 68.2688 390.094V390.706H74.1488V388.918Z" fill="#8E8E8E"/>
<path d="M245.588 390.838C247.388 390.838 248.588 389.77 248.588 388.27C248.588 387.31 248.036 386.662 247.46 386.386C247.904 386.038 248.348 385.378 248.348 384.55C248.348 383.218 247.376 382.042 245.552 382.042C244.064 382.042 242.552 383.086 242.552 384.898H244.364C244.352 384.322 244.832 383.83 245.552 383.83C246.104 383.83 246.536 384.19 246.524 384.706C246.512 385.246 246.164 385.63 245.408 385.63H244.76V387.082H245.504C246.272 387.082 246.776 387.502 246.764 388.114C246.752 388.666 246.284 389.05 245.588 389.05C244.808 389.05 244.268 388.678 244.184 387.898H242.384C242.456 389.854 244.004 390.838 245.588 390.838ZM252.433 388.21H255.961V386.482H252.433V388.21ZM262.728 390.838C264.588 390.838 265.728 389.554 265.728 387.874C265.728 386.182 264.444 385.246 263.256 385.162L265.344 382.186H263.112L260.736 385.57C260.064 386.53 259.728 387.01 259.728 387.862C259.728 389.554 260.868 390.838 262.728 390.838ZM262.728 389.098C262.032 389.098 261.552 388.57 261.552 387.898C261.552 387.238 262.032 386.698 262.728 386.698C263.412 386.698 263.904 387.238 263.904 387.898C263.904 388.57 263.412 389.098 262.728 389.098Z" fill="#8E8E8E"/>
<path d="M427.544 390.706L431.456 383.758V382.186H425.42V383.938H429.308L425.492 390.706H427.544ZM434.977 388.21H438.505V386.482H434.977V388.21ZM443.711 390.706H445.523V382.186H443.159L441.863 383.974H443.711V390.706ZM452.77 388.918H449.446C449.674 388.486 450.55 388.018 450.958 387.718C451.954 386.986 452.71 386.23 452.71 384.706C452.71 382.942 451.39 382.042 449.95 382.042C448.222 382.042 446.926 383.218 446.926 384.898H448.738C448.726 384.334 449.182 383.83 449.89 383.83C450.574 383.83 450.898 384.286 450.898 384.838C450.898 385.45 450.286 385.99 449.614 386.47C448.366 387.358 446.89 388.162 446.89 390.094V390.706H452.77V388.918Z" fill="#8E8E8E"/>
<path d="M232.965 415.668H234.777V412.752C234.777 411.66 235.221 411.18 235.857 411.18C236.469 411.18 236.721 411.684 236.721 412.56V415.668H238.533V412.752C238.533 411.66 238.977 411.18 239.613 411.18C240.225 411.18 240.477 411.684 240.477 412.56V415.668H242.289V412.248C242.289 410.58 241.473 409.536 240.009 409.536C239.385 409.536 238.557 409.86 238.173 410.592C237.801 409.932 237.177 409.536 236.313 409.536C235.605 409.536 235.089 409.86 234.777 410.28V409.668H232.965V415.668ZM246.483 415.8C248.211 415.8 249.639 414.432 249.639 412.668C249.639 410.904 248.211 409.536 246.483 409.536C244.755 409.536 243.327 410.904 243.327 412.668C243.327 414.432 244.755 415.8 246.483 415.8ZM246.483 414.108C245.727 414.108 245.151 413.52 245.151 412.668C245.151 411.816 245.727 411.228 246.483 411.228C247.239 411.228 247.815 411.816 247.815 412.668C247.815 413.52 247.239 414.108 246.483 414.108ZM250.754 415.668H252.566V412.752C252.566 411.672 253.094 411.18 253.778 411.18C254.426 411.18 254.75 411.684 254.75 412.512V415.668H256.562V412.2C256.562 410.628 255.71 409.536 254.234 409.536C253.454 409.536 252.854 409.872 252.566 410.28V409.668H250.754V415.668ZM260.962 415.74C261.442 415.74 261.778 415.692 262.042 415.62V414.012C261.85 414.084 261.658 414.12 261.382 414.12C260.662 414.12 260.362 413.82 260.362 413.1V411.24H262.042V409.668H260.362V408H258.55V409.668H257.35V411.24H258.55V413.472C258.55 414.996 259.63 415.74 260.962 415.74ZM263.187 415.668H264.999V412.752C264.999 411.672 265.527 411.18 266.211 411.18C266.859 411.18 267.183 411.684 267.183 412.512V415.668H268.995V412.2C268.995 410.628 268.143 409.536 266.667 409.536C265.887 409.536 265.287 409.872 264.999 410.28V406.668H263.187V415.668ZM272.83 415.8C274.342 415.8 275.41 415.068 275.41 413.952C275.41 413.004 274.93 412.392 273.718 412.068L272.626 411.78C272.35 411.708 272.014 411.624 272.014 411.312C272.014 411.072 272.254 410.928 272.626 410.928C272.938 410.928 273.25 411.036 273.322 411.48H275.146C275.062 410.208 273.982 409.536 272.662 409.536C271.078 409.536 270.154 410.304 270.154 411.348C270.154 412.236 270.622 412.968 271.666 413.232L272.878 413.544C273.346 413.664 273.562 413.784 273.562 414.048C273.562 414.264 273.358 414.432 272.89 414.432C272.374 414.432 271.966 414.192 271.942 413.712H270.034C270.094 414.888 271.198 415.8 272.83 415.8Z" fill="#8E8E8E"/>
<path d="M0.66 339.253H4.188V337.525H0.66V339.253ZM10.9886 339.961H7.66463C7.89263 339.529 8.76863 339.061 9.17663 338.761C10.1726 338.029 10.9286 337.273 10.9286 335.749C10.9286 333.985 9.60863 333.085 8.16862 333.085C6.44063 333.085 5.14463 334.261 5.14463 335.941H6.95663C6.94463 335.377 7.40063 334.873 8.10863 334.873C8.79263 334.873 9.11663 335.329 9.11663 335.881C9.11663 336.493 8.50463 337.033 7.83263 337.513C6.58463 338.401 5.10863 339.205 5.10863 341.137V341.749H10.9886V339.961ZM15.3704 341.881C17.2664 341.881 18.5864 340.441 18.5864 338.473V336.493C18.5864 334.525 17.2664 333.085 15.3704 333.085C13.4624 333.085 12.1424 334.525 12.1424 336.493V338.473C12.1424 340.441 13.4624 341.881 15.3704 341.881ZM15.3704 340.093C14.5304 340.093 13.9544 339.493 13.9544 338.473V336.493C13.9544 335.473 14.5304 334.873 15.3704 334.873C16.1984 334.873 16.7744 335.473 16.7744 336.493V338.473C16.7744 339.493 16.1984 340.093 15.3704 340.093ZM22.3282 341.881C23.1322 341.881 23.7202 341.473 23.9602 341.149V341.749H25.7722V332.749H23.9602V336.349C23.7202 336.025 23.1322 335.617 22.3282 335.617C20.7562 335.617 19.5442 337.045 19.5442 338.749C19.5442 340.453 20.7562 341.881 22.3282 341.881ZM22.7362 340.237C21.9202 340.237 21.3682 339.613 21.3682 338.749C21.3682 337.885 21.9202 337.261 22.7362 337.261C23.5522 337.261 24.1042 337.885 24.1042 338.749C24.1042 339.613 23.5522 340.237 22.7362 340.237ZM27.2906 341.749H31.0346C32.4986 341.749 33.6266 340.645 33.6266 339.241C33.6266 338.329 33.1346 337.597 32.4146 337.225C32.7866 336.865 33.0266 336.361 33.0266 335.761C33.0266 334.357 31.8866 333.229 30.4946 333.229H27.2906V341.749ZM29.1986 336.673V334.969H30.2786C30.7946 334.969 31.1666 335.365 31.1666 335.833C31.1666 336.289 30.7946 336.673 30.2786 336.673H29.1986ZM29.1986 339.997V338.293H30.8666C31.3826 338.293 31.7666 338.677 31.7666 339.145C31.7666 339.625 31.3826 339.997 30.8786 339.997H29.1986Z" fill="#8E8E8E"/>
<path d="M3.804 122.229C5.7 122.229 7.02 120.789 7.02 118.821V116.841C7.02 114.873 5.7 113.433 3.804 113.433C1.896 113.433 0.576 114.873 0.576 116.841V118.821C0.576 120.789 1.896 122.229 3.804 122.229ZM3.804 120.441C2.964 120.441 2.388 119.841 2.388 118.821V116.841C2.388 115.821 2.964 115.221 3.804 115.221C4.632 115.221 5.208 115.821 5.208 116.841V118.821C5.208 119.841 4.632 120.441 3.804 120.441ZM10.7617 122.229C11.5658 122.229 12.1538 121.821 12.3938 121.497V122.097H14.2057V113.097H12.3938V116.697C12.1538 116.373 11.5658 115.965 10.7617 115.965C9.18975 115.965 7.97775 117.393 7.97775 119.097C7.97775 120.801 9.18975 122.229 10.7617 122.229ZM11.1698 120.585C10.3538 120.585 9.80175 119.961 9.80175 119.097C9.80175 118.233 10.3538 117.609 11.1698 117.609C11.9858 117.609 12.5378 118.233 12.5378 119.097C12.5378 119.961 11.9858 120.585 11.1698 120.585ZM15.7242 122.097H19.4682C20.9322 122.097 22.0602 120.993 22.0602 119.589C22.0602 118.677 21.5682 117.945 20.8482 117.573C21.2202 117.213 21.4602 116.709 21.4602 116.109C21.4602 114.705 20.3202 113.577 18.9282 113.577H15.7242V122.097ZM17.6322 117.021V115.317H18.7122C19.2282 115.317 19.6002 115.713 19.6002 116.181C19.6002 116.637 19.2282 117.021 18.7122 117.021H17.6322ZM17.6322 120.345V118.641H19.3002C19.8162 118.641 20.2002 119.025 20.2002 119.493C20.2002 119.973 19.8162 120.345 19.3122 120.345H17.6322Z" fill="#8E8E8E"/>
<path d="M1.848 12H3.66V3.48H1.296L0 5.268H1.848V12ZM8.36259 12.132C10.2586 12.132 11.5786 10.692 11.5786 8.724V6.744C11.5786 4.776 10.2586 3.336 8.36259 3.336C6.45459 3.336 5.13459 4.776 5.13459 6.744V8.724C5.13459 10.692 6.45459 12.132 8.36259 12.132ZM8.36259 10.344C7.52259 10.344 6.94659 9.744 6.94659 8.724V6.744C6.94659 5.724 7.52259 5.124 8.36259 5.124C9.19059 5.124 9.76659 5.724 9.76659 6.744V8.724C9.76659 9.744 9.19059 10.344 8.36259 10.344ZM15.3203 12.132C16.1243 12.132 16.7123 11.724 16.9523 11.4V12H18.7643V3H16.9523V6.6C16.7123 6.276 16.1243 5.868 15.3203 5.868C13.7483 5.868 12.5363 7.296 12.5363 9C12.5363 10.704 13.7483 12.132 15.3203 12.132ZM15.7283 10.488C14.9123 10.488 14.3603 9.864 14.3603 9C14.3603 8.136 14.9123 7.512 15.7283 7.512C16.5443 7.512 17.0963 8.136 17.0963 9C17.0963 9.864 16.5443 10.488 15.7283 10.488ZM20.2828 12H24.0268C25.4908 12 26.6188 10.896 26.6188 9.492C26.6188 8.58 26.1268 7.848 25.4068 7.476C25.7788 7.116 26.0188 6.612 26.0188 6.012C26.0188 4.608 24.8788 3.48 23.4868 3.48H20.2828V12ZM22.1908 6.924V5.22H23.2708C23.7868 5.22 24.1588 5.616 24.1588 6.084C24.1588 6.54 23.7868 6.924 23.2708 6.924H22.1908ZM22.1908 10.248V8.544H23.8588C24.3748 8.544 24.7588 8.928 24.7588 9.396C24.7588 9.876 24.3748 10.248 23.8708 10.248H22.1908Z" fill="#8E8E8E"/>
<path d="M181 6.26172H182V349.717H181V6.26172Z" fill="white"/>
<path d="M181 350.715H493V349.717H181V350.715Z" fill="white"/>
<path opacity="0.395392" d="M181 118.084H444V117.087H181V118.084Z" fill="white"/>
<path d="M65 79.6458V139.55" stroke="#979797" stroke-linecap="square"/>
<path d="M254 106.959V172" stroke="#979797" stroke-linecap="square"/>
<path d="M443 93.7759V189.122" stroke="#979797" stroke-linecap="square"/>
<path d="M63.5 111.596L252 131.065L440 137.056" stroke="#8E8E8E" stroke-width="2"/>
<path d="M64.5 121C68.6421 121 72 117.642 72 113.5C72 109.358 68.6421 106 64.5 106C60.3579 106 57 109.358 57 113.5C57 117.642 60.3579 121 64.5 121Z" fill="#8E8E8E" stroke="#FDFDFF" stroke-width="2"/>
<path d="M253.5 141C257.642 141 261 137.642 261 133.5C261 129.358 257.642 126 253.5 126C249.358 126 246 129.358 246 133.5C246 137.642 249.358 141 253.5 141Z" fill="#8E8E8E" stroke="#FDFDFF" stroke-width="2"/>
<path d="M442.5 147C446.642 147 450 143.642 450 139.5C450 135.358 446.642 132 442.5 132C438.358 132 435 135.358 435 139.5C435 143.642 438.358 147 442.5 147Z" fill="#8E8E8E" stroke="#FDFDFF" stroke-width="2"/>
<path d="M464.84 140.065H466.35L468 132.965H466.3L465.33 137.465L463.33 132.845L461.34 137.465L460.37 132.965H458.67L460.31 140.065H461.82L463.33 136.585L464.84 140.065ZM470.369 140.175C471.039 140.175 471.529 139.835 471.729 139.565V140.065H473.239V135.065H471.729V135.565C471.529 135.295 471.039 134.955 470.369 134.955C469.059 134.955 468.049 136.145 468.049 137.565C468.049 138.985 469.059 140.175 470.369 140.175ZM470.709 138.805C470.029 138.805 469.569 138.285 469.569 137.565C469.569 136.845 470.029 136.325 470.709 136.325C471.389 136.325 471.849 136.845 471.849 137.565C471.849 138.285 471.389 138.805 470.709 138.805Z" fill="#8E8E8E"/>
<path d="M79.205 130.52C78.44 129.035 78.116 127.676 78.116 126.2C78.116 124.724 78.44 123.365 79.205 121.88H78.575C77.801 123.284 77.423 124.715 77.423 126.2C77.423 127.685 77.801 129.116 78.575 130.52H79.205ZM80.7835 129.08H81.5575V122.69H80.1805L79.5505 123.455H80.7835V129.08ZM83.7103 129.08H84.4843V122.69H83.1073L82.4773 123.455H83.7103V129.08ZM85.593 130.52H86.223C86.997 129.116 87.375 127.685 87.375 126.2C87.375 124.715 86.997 123.284 86.223 121.88H85.593C86.358 123.365 86.682 124.724 86.682 126.2C86.682 127.676 86.358 129.035 85.593 130.52Z" fill="#8E8E8E"/>
<path d="M267.205 146.495C266.44 145.01 266.116 143.651 266.116 142.175C266.116 140.699 266.44 139.34 267.205 137.855H266.575C265.801 139.259 265.423 140.69 265.423 142.175C265.423 143.66 265.801 145.091 266.575 146.495H267.205ZM268.118 145.055H269.108L271.448 142.292C271.844 141.824 272.168 141.338 272.168 140.663C272.168 139.502 271.241 138.557 269.999 138.557C268.757 138.557 267.839 139.502 267.839 140.69C267.839 141.797 268.766 142.742 269.837 142.742C269.927 142.742 270.008 142.742 270.089 142.724L268.118 145.055ZM268.631 140.681C268.631 139.925 269.216 139.304 269.999 139.304C270.782 139.304 271.376 139.925 271.376 140.681C271.376 141.437 270.782 142.058 269.999 142.058C269.216 142.058 268.631 141.437 268.631 140.681ZM272.538 146.495H273.168C273.942 145.091 274.32 143.66 274.32 142.175C274.32 140.69 273.942 139.259 273.168 137.855H272.538C273.303 139.34 273.627 140.699 273.627 142.175C273.627 143.651 273.303 145.01 272.538 146.495Z" fill="#8E8E8E"/>
<path d="M450.205 152.486C449.44 151.001 449.116 149.642 449.116 148.166C449.116 146.69 449.44 145.331 450.205 143.846H449.575C448.801 145.25 448.423 146.681 448.423 148.166C448.423 149.651 448.801 151.082 449.575 152.486H450.205ZM453.796 151.046H454.57V149.309H455.452V148.58H454.57V144.656H453.895L450.394 148.688V149.309H453.796V151.046ZM453.796 148.58H451.411L453.796 145.826V148.58ZM455.855 152.486H456.485C457.259 151.082 457.637 149.651 457.637 148.166C457.637 146.681 457.259 145.25 456.485 143.846H455.855C456.62 145.331 456.944 146.69 456.944 148.166C456.944 149.642 456.62 151.001 455.855 152.486Z" fill="#8E8E8E"/>
<path d="M62.9999 95.1208L252 150.034L440 161.016" stroke="#C0529D" stroke-width="2"/>
<path d="M64.5 105C68.6421 105 72 101.642 72 97.5C72 93.3579 68.6421 90 64.5 90C60.3579 90 57 93.3579 57 97.5C57 101.642 60.3579 105 64.5 105Z" fill="#C0529D" stroke="#FDFDFF" stroke-width="2"/>
<path d="M253.5 160C257.642 160 261 156.642 261 152.5C261 148.358 257.642 145 253.5 145C249.358 145 246 148.358 246 152.5C246 156.642 249.358 160 253.5 160Z" fill="#C0529D" stroke="#FDFDFF" stroke-width="2"/>
<path d="M442.5 171C446.642 171 450 167.642 450 163.5C450 159.358 446.642 156 442.5 156C438.358 156 435 159.358 435 163.5C435 167.642 438.358 171 442.5 171Z" fill="#C0529D" stroke="#FDFDFF" stroke-width="2"/>
<path d="M464.01 164.028H465.52L467.17 156.928H465.47L464.5 161.428L462.5 156.808L460.51 161.428L459.54 156.928H457.84L459.48 164.028H460.99L462.5 160.548L464.01 164.028ZM474.488 164.028V156.928H472.888V161.308L469.438 156.928H468.068V164.028H469.658V159.638L473.118 164.028H474.488Z" fill="#C0529D"/>
<path d="M79.205 87.5877C78.44 86.1027 78.116 84.7437 78.116 83.2677C78.116 81.7917 78.44 80.4327 79.205 78.9477H78.575C77.801 80.3517 77.423 81.7827 77.423 83.2677C77.423 84.7527 77.801 86.1837 78.575 87.5877H79.205ZM80.7835 86.1477H81.5575V79.7577H80.1805L79.5505 80.5227H80.7835V86.1477ZM83.7103 86.1477H84.4843V79.7577H83.1073L82.4773 80.5227H83.7103V86.1477ZM85.593 87.5877H86.223C86.997 86.1837 87.375 84.7527 87.375 83.2677C87.375 81.7827 86.997 80.3517 86.223 78.9477H85.593C86.358 80.4327 86.682 81.7917 86.682 83.2677C86.682 84.7437 86.358 86.1027 85.593 87.5877Z" fill="#8E8E8E"/>
<path d="M267.205 124.53C266.44 123.045 266.116 121.686 266.116 120.21C266.116 118.734 266.44 117.375 267.205 115.89H266.575C265.801 117.294 265.423 118.725 265.423 120.21C265.423 121.695 265.801 123.126 266.575 124.53H267.205ZM268.118 123.09H269.108L271.448 120.327C271.844 119.859 272.168 119.373 272.168 118.698C272.168 117.537 271.241 116.592 269.999 116.592C268.757 116.592 267.839 117.537 267.839 118.725C267.839 119.832 268.766 120.777 269.837 120.777C269.927 120.777 270.008 120.777 270.089 120.759L268.118 123.09ZM268.631 118.716C268.631 117.96 269.216 117.339 269.999 117.339C270.782 117.339 271.376 117.96 271.376 118.716C271.376 119.472 270.782 120.093 269.999 120.093C269.216 120.093 268.631 119.472 268.631 118.716ZM272.538 124.53H273.168C273.942 123.126 274.32 121.695 274.32 120.21C274.32 118.725 273.942 117.294 273.168 115.89H272.538C273.303 117.375 273.627 118.734 273.627 120.21C273.627 121.686 273.303 123.045 272.538 124.53Z" fill="#8E8E8E"/>
<path d="M450.205 130.52C449.44 129.035 449.116 127.676 449.116 126.2C449.116 124.724 449.44 123.365 450.205 121.88H449.575C448.801 123.284 448.423 124.715 448.423 126.2C448.423 127.685 448.801 129.116 449.575 130.52H450.205ZM453.796 129.08H454.57V127.343H455.452V126.614H454.57V122.69H453.895L450.394 126.722V127.343H453.796V129.08ZM453.796 126.614H451.411L453.796 123.86V126.614ZM455.855 130.52H456.485C457.259 129.116 457.637 127.685 457.637 126.2C457.637 124.715 457.259 123.284 456.485 121.88H455.855C456.62 123.365 456.944 124.724 456.944 126.2C456.944 127.676 456.62 129.035 455.855 130.52Z" fill="#8E8E8E"/>
<path d="M65 171.999V218.424" stroke="#593CF7" stroke-linecap="square"/>
<path d="M254 198.457V281.826" stroke="#593CF7" stroke-linecap="square"/>
<path d="M442 232.404V323.26" stroke="#593CF7" stroke-linecap="square"/>
<path d="M62.5 192.466L252 234.898L440 276.832" stroke="#593CF7" stroke-width="2"/>
<path d="M64.5 203C68.6421 203 72 199.642 72 195.5C72 191.358 68.6421 188 64.5 188C60.3579 188 57 191.358 57 195.5C57 199.642 60.3579 203 64.5 203Z" fill="#593CF7" stroke="#FDFDFF" stroke-width="2"/>
<path d="M253.5 245C257.642 245 261 241.642 261 237.5C261 233.358 257.642 230 253.5 230C249.358 230 246 233.358 246 237.5C246 241.642 249.358 245 253.5 245Z" fill="#593CF7" stroke="#FDFDFF" stroke-width="2"/>
<path d="M442.5 287C446.642 287 450 283.642 450 279.5C450 275.358 446.642 272 442.5 272C438.358 272 435 275.358 435 279.5C435 283.642 438.358 287 442.5 287Z" fill="#593CF7" stroke="#FDFDFF" stroke-width="2"/>
<path d="M79.205 189.427C78.44 187.942 78.116 186.583 78.116 185.107C78.116 183.631 78.44 182.272 79.205 180.787H78.575C77.801 182.191 77.423 183.622 77.423 185.107C77.423 186.592 77.801 188.023 78.575 189.427H79.205ZM80.7835 187.987H81.5575V181.597H80.1805L79.5505 182.362H80.7835V187.987ZM82.7293 186.259C82.7563 187.24 83.7193 188.077 84.8713 188.077C86.1133 188.077 87.0403 187.177 87.0403 186.052C87.0403 184.792 86.2033 183.847 85.0063 183.847C84.5293 183.847 84.1423 183.991 83.8903 184.18L84.2413 182.353H86.6083V181.597H83.6203L82.9633 185.008L83.7013 185.224C83.9443 184.837 84.3583 184.576 84.9073 184.576C85.6993 184.576 86.2483 185.188 86.2483 185.953C86.2483 186.709 85.6633 187.321 84.8713 187.321C84.1963 187.321 83.6653 186.862 83.5213 186.259H82.7293ZM87.6233 189.427H88.2533C89.0273 188.023 89.4053 186.592 89.4053 185.107C89.4053 183.622 89.0273 182.191 88.2533 180.787H87.6233C88.3883 182.272 88.7123 183.631 88.7123 185.107C88.7123 186.583 88.3883 187.942 87.6233 189.427Z" fill="#8E8E8E"/>
<path d="M267.205 230.363C266.44 228.878 266.116 227.519 266.116 226.043C266.116 224.567 266.44 223.208 267.205 221.723H266.575C265.801 223.127 265.423 224.558 265.423 226.043C265.423 227.528 265.801 228.959 266.575 230.363H267.205ZM268.784 228.923H269.558V222.533H268.181L267.551 223.298H268.784V228.923ZM273.96 228.923H274.734V227.186H275.616V226.457H274.734V222.533H274.059L270.558 226.565V227.186H273.96V228.923ZM273.96 226.457H271.575L273.96 223.703V226.457ZM276.019 230.363H276.649C277.423 228.959 277.801 227.528 277.801 226.043C277.801 224.558 277.423 223.127 276.649 221.723H276.019C276.784 223.208 277.108 224.567 277.108 226.043C277.108 227.519 276.784 228.878 276.019 230.363Z" fill="#8E8E8E"/>
<path d="M449.205 268.304C448.44 266.819 448.116 265.46 448.116 263.984C448.116 262.508 448.44 261.149 449.205 259.664H448.575C447.801 261.068 447.423 262.499 447.423 263.984C447.423 265.469 447.801 266.9 448.575 268.304H449.205ZM449.759 265.136C449.786 266.117 450.749 266.954 451.901 266.954C453.143 266.954 454.07 266.054 454.07 264.929C454.07 263.669 453.233 262.724 452.036 262.724C451.559 262.724 451.172 262.868 450.92 263.057L451.271 261.23H453.638V260.474H450.65L449.993 263.885L450.731 264.101C450.974 263.714 451.388 263.453 451.937 263.453C452.729 263.453 453.278 264.065 453.278 264.83C453.278 265.586 452.693 266.198 451.901 266.198C451.226 266.198 450.695 265.739 450.551 265.136H449.759ZM454.653 268.304H455.283C456.057 266.9 456.435 265.469 456.435 263.984C456.435 262.499 456.057 261.068 455.283 259.664H454.653C455.418 261.149 455.742 262.508 455.742 263.984C455.742 265.46 455.418 266.819 454.653 268.304Z" fill="#8E8E8E"/>
<line x1="43" y1="356.5" x2="493" y2="356.5" stroke="#E5E5E5"/>
<path d="M463.34 279.845H464.85L466.5 272.745H464.8L463.83 277.245L461.83 272.625L459.84 277.245L458.87 272.745H457.17L458.81 279.845H460.32L461.83 276.365L463.34 279.845ZM472.988 279.845H474.498L476.148 272.745H474.448L473.478 277.245L471.478 272.625L469.488 277.245L468.518 272.745H466.818L468.458 279.845H469.968L471.478 276.365L472.988 279.845ZM483.467 279.845V272.745H481.867V277.125L478.417 272.745H477.047V279.845H478.637V275.455L482.097 279.845H483.467Z" fill="#593CF7"/>
</svg>
