<svg width="1436" height="270" viewBox="0 0 1436 270" fill="none" xmlns="http://www.w3.org/2000/svg">
<g clip-path="url(#clip0)">
<path d="M718 269.6C718 269.953 677.928 269.999 359.008 269.999C40.0874 269.999 -0.000177511 269.953 -0.000177511 269.6C-0.000177511 269.246 40.072 269.2 358.992 269.2C677.912 269.2 718 269.231 718 269.6ZM718 254.064C718 253.556 717.754 253.526 711.032 253.372C697.818 253.065 622.339 252.327 553.92 251.835C495.707 251.42 284.757 251.42 214.327 251.835C128.381 252.342 26.1058 253.111 10.1752 253.372C0.260729 253.526 -0.000177511 253.556 -0.000177511 254.064C-0.000177511 254.586 0.153297 254.601 11.3876 254.432C30.5566 254.156 128.212 253.418 214.603 252.911C284.404 252.496 495.83 252.496 553.659 252.911C621.894 253.403 695.362 254.125 710.372 254.448C717.862 254.601 718 254.586 718 254.064ZM538.235 242.016C552.815 241.77 564.725 241.463 598.996 240.433C654.277 238.773 664.683 238.574 694.257 238.574H718V238.005V237.436L686.415 237.59C669.057 237.682 650.287 237.882 644.731 238.036C634.372 238.328 608.987 239.081 585.429 239.772C541.658 241.078 519.005 241.386 496.321 241.001C476.999 240.663 472.87 240.556 437.847 239.373C371.638 237.144 359.161 237.098 282.408 238.835C238.53 239.834 229.767 239.957 203.43 239.957C174.362 239.957 161.701 239.757 80.8349 238.02C73.7444 237.867 52.6569 237.667 33.9637 237.59C0.122601 237.436 -0.000177511 237.436 -0.000177511 237.959C-0.000177511 238.481 0.230033 238.497 33.841 238.65C52.4574 238.743 73.5448 238.942 80.7121 239.096C161.793 240.832 174.562 241.032 203.707 241.032C228.232 241.032 241.784 240.863 270.99 240.172C329.924 238.789 356.168 238.466 379.036 238.835C397.929 239.142 402.732 239.28 437.586 240.448C492.254 242.292 507.678 242.523 538.235 242.016ZM532.25 229.876C551.403 229.691 571.846 228.815 612.563 226.464C663.655 223.498 679.723 222.868 703.558 222.868H718V222.3V221.731L698.125 221.885C687.198 221.977 675.38 222.161 671.865 222.315C651.73 223.176 640.864 223.729 614.696 225.25C572.445 227.709 557.926 228.354 536.439 228.692C511.484 229.092 491.686 228.477 455.405 226.188C447.348 225.68 435.162 224.912 428.286 224.467C398.957 222.622 386.219 222.085 365.929 221.885C342.954 221.654 325.78 222.1 280.306 224.067C226.989 226.372 223.827 226.449 192.81 226.449C161.639 226.449 155.454 226.295 99.8657 224.052C55.4502 222.269 37.4323 221.777 15.2552 221.777C0.583025 221.777 0.0151699 221.793 0.0151699 222.269C0.0151699 222.745 0.813238 222.761 22.0081 222.93C47.5309 223.114 53.3936 223.283 99.6048 225.127C155.608 227.356 161.609 227.509 192.672 227.509C223.489 227.509 228.646 227.371 277.497 225.235C317.938 223.468 328.804 223.13 350.49 222.93C378.483 222.669 392.526 223.206 442.636 226.433C487.788 229.353 507.632 230.122 532.25 229.876ZM548.073 218.32C566.214 217.644 584.078 216.353 614.282 213.525C655.121 209.699 669.226 208.562 686.614 207.686C692.538 207.394 709.866 206.902 714.854 206.887C717.892 206.887 717.985 206.856 717.985 206.303V205.734L708.745 205.918C683.437 206.41 667.154 207.501 623.997 211.543C591.798 214.555 582.896 215.308 568.823 216.199C552.063 217.244 546.968 217.413 529.871 217.398C512.267 217.382 505.883 217.152 489.446 215.938C477.168 215.031 470.246 214.386 438.385 211.159C397.085 206.994 381.676 206.011 357.411 206.026C334.053 206.041 319.196 206.717 272.31 209.945C224.395 213.249 211.779 213.802 185.888 213.802C159.798 213.802 143.898 213.126 95.3382 209.96C54.5447 207.301 40.0106 206.564 18.4782 206.087C0.690458 205.703 -0.000177511 205.719 -0.000177511 206.303C-0.000177511 206.779 0.475593 206.81 10.4514 206.994C36.9718 207.455 49.2805 208.039 97.1953 211.159C126.586 213.064 134.797 213.54 154.242 214.401C164.479 214.862 206.853 214.862 216.598 214.401C234.985 213.54 243.011 213.049 272.571 211.02C341.788 206.272 363.612 205.918 402.349 208.9C412.985 209.714 419.047 210.283 447.424 213.141C478.119 216.23 488.924 217.136 506.589 218.089C513.526 218.458 540.261 218.612 548.073 218.32ZM549.408 207.762C550.206 207.716 553.214 207.563 556.054 207.409C567.61 206.794 581.607 205.488 597.277 203.552C607.437 202.292 612.379 201.646 633.174 198.788C667.215 194.132 685.172 192.303 705.507 191.443C708.945 191.304 713.165 191.181 714.884 191.181C717.831 191.181 718.015 191.151 718.015 190.644C718.015 190.136 717.831 190.106 714.746 190.106C707.594 190.106 692.462 190.951 680.782 191.996C667.66 193.179 655.382 194.67 626.268 198.634C590.739 203.475 575.928 205.119 556.192 206.395C548.978 206.856 519.926 206.871 513.25 206.395C494.249 205.073 481.158 203.552 447.7 198.757C417.113 194.378 409.992 193.456 396.24 192.103C372.974 189.814 353.191 189.522 326.563 191.043C312.321 191.858 298.83 193.01 270.192 195.822C234.616 199.326 219.806 200.509 202.11 201.262C171.953 202.553 148.18 201.447 93.2203 196.222C46.518 191.781 30.7254 190.659 8.57905 190.198L-0.000177511 190.029V190.597C-0.000177511 191.151 0.0765597 191.166 3.92877 191.166C9.14691 191.166 21.563 191.596 30.4492 192.103C45.3823 192.933 57.8444 193.947 87.3575 196.76C139.831 201.739 154.917 202.707 180.824 202.722C205.901 202.737 220.497 201.785 270.315 196.898C303.526 193.64 314.914 192.718 334.805 191.658C344.427 191.151 370.794 191.227 379.22 191.796C398.051 193.056 409.715 194.424 445.629 199.572C483.844 205.042 498.547 206.702 517.777 207.686C522.304 207.916 545.479 207.978 549.408 207.762ZM547.014 197.943C560.197 197.221 566.72 196.683 576.128 195.546C588.744 194.024 601.421 191.98 622.615 188.093C654.262 182.284 662.642 180.839 674.92 179.087C689.07 177.074 706.489 175.476 714.47 175.476C717.524 175.476 718 175.369 718 174.646C718 174.216 717.831 174.155 716.864 174.262C716.235 174.324 713.58 174.447 710.94 174.539C694.457 175.061 671.773 177.981 642.46 183.36C614.144 188.554 607.498 189.752 600.5 190.92C566.275 196.591 541.888 198.143 517.209 196.237C499.207 194.839 483.644 192.472 448.207 185.726C416.054 179.61 403.653 177.597 387.446 175.876C366.62 173.663 345.026 173.755 317.769 176.152C304.294 177.336 293.013 178.673 257.269 183.313C216.614 188.584 197.092 190.075 172.168 189.783C149.177 189.522 132.019 188.016 90.6572 182.668C43.1108 176.521 27.2876 175.015 3.37626 174.324C0.260729 174.231 -0.000177511 174.247 -0.000177511 174.692C-0.000177511 175.323 0.79789 175.399 8.41023 175.584C24.6632 175.968 44.5535 177.827 76.998 181.992C113.556 186.679 122.426 187.739 135.364 188.892C153.628 190.536 164.755 190.997 181.499 190.813C188.681 190.736 196.432 190.536 198.78 190.382C218.885 189.045 232.744 187.601 262.472 183.728C298.615 179.026 311.645 177.566 327.883 176.414C347.742 175 365.438 175 381.599 176.398C399.187 177.92 412.77 180.056 450.079 187.155C485.026 193.809 499.606 195.976 519.081 197.42C524.146 197.82 543.07 198.158 547.014 197.943ZM544.62 188.338C563.543 187.877 584.83 184.789 613.361 178.35C616.001 177.751 624.242 175.845 631.716 174.078C674.95 163.92 692.078 160.939 715.007 159.571C717.77 159.402 718.015 159.356 718.015 158.864C718.015 158.342 717.908 158.342 714.777 158.511C696.836 159.525 678.02 162.43 653.003 168.039C650.379 168.622 640.848 170.835 631.87 172.925C612.01 177.566 605.457 179.026 596.878 180.747C553.322 189.43 526.433 189.43 483.828 180.762C474.574 178.872 468.005 177.382 449.312 172.925C414.796 164.688 402.272 162.214 384.024 160.017C373.71 158.772 369.321 158.557 355.708 158.557C339.869 158.572 329.755 159.187 312.766 161.216C298.493 162.906 293.167 163.705 252.803 170.236C212.654 176.721 188.022 178.949 165.445 178.165C142.363 177.351 127.399 175.538 82.4771 168.146C41.53 161.4 25.6147 159.448 4.22037 158.526C0.0765597 158.342 0.0458649 158.357 0.0458649 158.926C0.0458649 159.418 0.199339 159.494 1.28901 159.494C5.67838 159.494 19.7213 160.509 29.2981 161.507C42.3128 162.875 53.6085 164.504 80.7581 168.976C103.442 172.71 112.435 174.109 121.444 175.338C145.663 178.611 166.474 179.917 183.54 179.226C205.502 178.334 222.661 176.291 261.981 169.883C301.946 163.367 317.615 161.338 337.905 160.017C345.21 159.54 361.064 159.387 367.418 159.725C389.795 160.924 407.598 164.043 449.588 174.139C484.427 182.514 501.954 185.803 521.261 187.585C525.589 187.985 538.327 188.569 540.675 188.461C541.289 188.431 543.07 188.385 544.62 188.338ZM551.265 178.488C568.193 177.305 582.052 174.969 602.326 169.883C610.629 167.793 616.814 166.102 636.229 160.555C665.481 152.21 678.158 149.091 692.876 146.586C701.148 145.172 712.905 143.789 716.603 143.789C717.877 143.789 718.015 143.728 718.015 143.19V142.591L714.884 142.79C707.579 143.251 697.358 144.619 688.103 146.34C674.597 148.86 660.877 152.349 633.451 160.217C595.481 171.112 578.66 174.831 557.665 176.967C551.986 177.535 536.209 177.781 530.408 177.366C516.212 176.367 501.816 173.924 483.475 169.36C474.359 167.086 469.54 165.764 448.667 159.786C418.878 151.242 407.552 148.445 392.127 145.802C370.917 142.16 352.178 141.669 327.637 144.097C310.187 145.818 297.081 147.969 259.694 155.253C223.735 162.245 209.017 164.504 187.899 166.225C181.361 166.763 160.166 166.671 153.06 166.087C132.74 164.397 120.539 162.43 80.1903 154.331C57.7677 149.828 48.682 148.138 38.1689 146.509C25.6454 144.573 12.8303 143.19 4.31246 142.852C0.107255 142.683 -0.0462199 142.698 0.0458649 143.19C0.122602 143.62 0.398856 143.712 1.87221 143.758C5.90859 143.912 15.4547 144.681 21.0258 145.311C36.4654 147.032 50.8153 149.506 80.5893 155.56C129.87 165.564 149.545 168.1 175.13 167.731C196.923 167.408 218.103 164.581 259.295 156.482C294.241 149.613 308.975 147.155 325.243 145.449C354.342 142.406 375.138 143.282 401.305 148.661C413.629 151.196 423.513 153.762 448.238 160.831C468.496 166.625 473.822 168.1 482.063 170.159C500.465 174.769 515.644 177.397 529.871 178.427C533.216 178.626 548.226 178.688 551.265 178.488ZM548.763 168.791C562.3 168.208 576.742 165.81 593.685 161.323C602.817 158.91 611.719 156.114 635.17 148.323C647.908 144.097 660.278 140.04 662.688 139.302C682.639 133.201 698.846 129.667 713.457 128.222C715.713 127.992 717.647 127.823 717.785 127.823C717.908 127.823 718.015 127.577 718.015 127.27C718.015 126.732 717.938 126.716 716.081 126.885C699.368 128.437 683.269 131.849 662.442 138.242C659.587 139.118 647.739 142.99 636.121 146.863C612.931 154.562 608.388 156.021 600.085 158.403C561.793 169.391 536.624 170.605 503.427 163.09C489.338 159.909 479.071 156.836 450.11 147.155C416.238 135.829 401.919 131.895 384.3 129.052C367.096 126.271 349.032 126.056 328.052 128.376C310.402 130.328 295.392 133.186 255.98 142.083C220.006 150.197 201.512 153.332 181.115 154.731C176.097 155.084 163.251 155.069 157.818 154.731C136.669 153.378 120.216 150.412 78.3026 140.378C42.0365 131.695 25.891 128.745 6.32297 127.162C-0.0769155 126.624 -0.000177511 126.624 -0.000177511 127.254C-0.000177511 127.7 0.291424 127.777 2.5782 127.93C23.2512 129.344 40.1027 132.356 78.0416 141.423C117.377 150.827 131.804 153.547 152.124 155.376C158.478 155.945 174.608 156.175 180.824 155.776C199.732 154.562 219.177 151.396 250.317 144.419C257.239 142.867 267.414 140.593 272.97 139.348C311.983 130.62 335.91 127.423 359.13 127.884C363.52 127.961 369.075 128.222 371.5 128.468C386.664 129.943 402.057 133.171 421.088 138.872C426.72 140.562 427.549 140.823 450.34 148.399C461.621 152.149 472.962 155.852 475.602 156.667C500.726 164.366 518.851 167.977 536.317 168.791C542.272 169.083 542.118 169.083 548.763 168.791ZM550.728 158.526C557.005 158.004 559.184 157.773 563.221 157.205C580.962 154.685 598.428 149.567 628.632 138.011C664.483 124.304 676.362 120.231 690.881 116.636C699.261 114.561 709.712 112.702 715.775 112.21C717.739 112.041 717.985 111.964 717.985 111.503C717.985 110.996 717.877 110.98 715.621 111.15C710.173 111.564 698.892 113.547 691.127 115.452C676.638 119.002 663.793 123.351 635.154 134.338C594.867 149.813 578.43 154.531 556.314 157.02C551.158 157.604 535.718 157.681 531.191 157.159C515.214 155.315 500.158 151.734 481.112 145.264C473.331 142.621 467.13 140.347 451.675 134.477C434.901 128.099 427.703 125.487 418.832 122.552C385.988 111.687 363.535 108.967 332.932 112.133C315.85 113.9 297.295 117.527 270.176 124.411C223.904 136.152 211.196 138.933 193.194 141.254C181.929 142.714 179.473 142.867 167.794 142.852C156.037 142.836 152.554 142.621 142.271 141.238C125.665 139.01 112.374 135.967 77.2589 126.348C53.7006 119.893 40.9161 116.789 28.7303 114.53C19.6292 112.855 9.39247 111.488 3.11536 111.134C0.107255 110.965 -0.000177511 110.965 -0.000177511 111.488C-0.000177511 111.979 0.245382 112.041 3.00792 112.194C11.6792 112.702 24.8934 114.684 37.2328 117.312C45.0446 118.971 61.451 123.151 78.456 127.807C115.689 137.996 130.791 141.269 148.793 143.098C159.69 144.204 174.408 144.327 183.77 143.405C205.257 141.269 220.435 138.165 266.34 126.501C305.721 116.497 325.673 112.994 348.587 112.087C367.587 111.334 385.052 113.67 406.615 119.847C417.19 122.875 428.639 126.885 449.987 134.999C475.679 144.773 487.266 148.768 499.682 152.134C510.671 155.099 520.601 157.036 530.669 158.173C533.232 158.449 548.349 158.726 550.728 158.526ZM551.664 147.585C573.335 145.756 592.611 140.255 624.933 126.67C628.233 125.287 635.323 122.275 640.756 119.955C671.85 106.708 688.579 101.023 705.906 97.8416C708.776 97.3191 717.094 96.1051 717.877 96.1051C717.954 96.1051 718.015 95.8592 718.015 95.5673C718.015 94.9218 718.23 94.9218 713.411 95.5519C693.643 98.1489 675.441 103.942 641.002 118.618C613.346 130.389 603.953 134.123 592.366 137.904C573.534 144.05 558.847 146.694 543.561 146.694C532.526 146.694 522.949 145.403 509.919 142.13C494.295 138.226 481.91 133.693 449.558 120.062C418.279 106.893 403.147 101.699 385.651 98.1028C374.677 95.8592 367.495 95.1677 355.017 95.1677C342.509 95.1677 333.132 95.9514 320.102 98.1028C303.956 100.777 290.481 104.019 259.019 112.809C252.205 114.715 243.779 117.05 240.264 118.003C205.165 127.531 180.547 131.373 160.565 130.435C138.234 129.39 120.309 125.533 79.1313 112.871C40.9008 101.161 24.7553 97.3652 4.81892 95.4443C-0.261084 94.9526 -0.000177511 94.9372 -0.000177511 95.5826C-0.000177511 95.8746 0.183992 96.1205 0.398856 96.1205C1.61131 96.1205 11.9094 97.3037 15.5621 97.857C31.9993 100.362 47.3467 104.265 77.9189 113.7C106.45 122.506 121.859 126.517 136.684 129.021C155.991 132.264 171.584 132.541 190.4 129.928C207.712 127.531 223.75 123.873 254.092 115.391C279.247 108.368 287.749 106.094 297.833 103.743C313.149 100.162 326.456 97.9338 339.317 96.7813C345.885 96.1973 358.869 95.9822 364.579 96.3663C383.456 97.6418 402.18 102.375 427.473 112.256C432.553 114.238 435.714 115.544 459.518 125.502C471.32 130.435 479.546 133.678 487.174 136.382C504.225 142.437 520.77 146.356 534.107 147.493C537.007 147.739 549.086 147.8 551.664 147.585ZM551.265 135.875C571.631 134.292 591.337 128.376 621.602 114.761C625.102 113.178 632.714 109.705 638.485 107.031C659.311 97.4113 669.379 93.1393 680.506 89.2053C692.308 85.0254 704.417 81.9981 714.194 80.7687C717.601 80.3385 718 80.2463 718 79.7699C718 79.2781 717.862 79.2628 715.928 79.4318C710.388 79.9235 700.074 82.0442 692.232 84.2878C677.682 88.4523 665.128 93.4927 636.474 106.708C628.846 110.227 620.129 114.192 617.06 115.544C591.445 126.839 574.486 132.079 556.054 134.354C550.528 135.03 536.7 135.045 531.452 134.369C513.51 132.049 495.232 126.409 470.553 115.621C468.358 114.669 460.101 110.95 452.197 107.354C436.635 100.3 430.02 97.3806 423.452 94.6913C401.566 85.7323 384.162 81.1068 366.574 79.5701C361.325 79.1091 348.034 79.1859 341.711 79.7084C323.846 81.1836 307.164 84.4568 283.099 91.1723C279.615 92.1404 268.964 95.2753 259.449 98.1336C249.933 100.992 238.944 104.234 235.077 105.341C202.586 114.592 178.552 118.434 159.414 117.435C137.927 116.297 119.863 112.133 82.2929 99.6395C55.22 90.6344 47.5002 88.2525 36.0203 85.3481C23.8651 82.2747 10.9733 80.0004 2.63959 79.4472C0.107255 79.2781 -0.000177511 79.2935 -0.000177511 79.8006C-0.000177511 80.277 0.245382 80.3538 2.5782 80.5229C9.51525 81.0146 20.504 82.8126 29.912 84.9793C42.0825 87.7915 51.2603 90.5115 74.9875 98.3794C95.3382 105.126 101.339 107.046 109.212 109.321C138.572 117.803 159.936 120.231 182.42 117.681C202.172 115.437 219.484 111.319 258.482 99.5934C295.684 88.4062 311.707 84.4876 330.277 82.0135C362.614 77.7261 386.525 81.1068 420.689 94.7989C427.426 97.5035 435.208 100.9 449.143 107.231C475.74 119.325 484.442 122.951 497.242 127.285C511.039 131.957 523.855 134.83 535.166 135.783C538.128 136.044 548.457 136.09 551.265 135.875ZM549.669 123.105C570.004 121.676 589.296 115.836 617.873 102.421C620.221 101.33 627.68 97.7033 634.494 94.3686C656.242 83.7192 664.56 79.8928 674.92 75.7898C690.635 69.5661 701.716 66.5849 716.88 64.5411C717.754 64.4181 718 64.2798 718 63.8649C718 63.3885 717.862 63.3424 716.619 63.4961C701.24 65.3248 685.77 69.812 666.816 77.9412C658.82 81.3681 652.405 84.38 634.771 92.9856C607.514 106.278 598.612 110.151 584.784 114.745C556.084 124.288 534.889 124.565 505.944 115.79C491.84 111.518 480.82 106.831 450.524 92.248C425.339 80.1233 414.55 75.4825 401.597 71.2258C385.927 66.0778 373.204 63.7727 358.624 63.4346C341.204 63.0351 323.57 65.3555 301.455 70.9338C289.299 73.9918 281.887 76.1893 256.778 84.1188C223.72 94.553 209.401 98.3641 192.871 101.161C181.223 103.128 174.945 103.696 165.292 103.681C154.226 103.666 145.724 102.759 133.937 100.346C119.51 97.4113 108.015 93.9076 78.0723 83.335C69.4317 80.277 59.0415 76.6965 54.9437 75.3595C34.0405 68.5058 18.6623 65.0636 1.81082 63.4808C0.137949 63.3271 -0.000177511 63.3578 -0.000177511 63.8496C-0.000177511 64.2952 0.245382 64.4028 1.51922 64.5411C16.6672 66.0932 26.5202 68.0448 42.1593 72.5627C50.2474 74.8985 59.0415 77.8183 74.4657 83.2736C110.578 96.0436 122.595 99.6088 139.355 102.498C157.649 105.663 172.567 105.617 192.273 102.36C209.585 99.4859 223.812 95.7056 258.881 84.6259C301.915 71.0414 318.644 67.0767 342.11 64.9099C347.85 64.372 363.995 64.4642 368.968 65.0482C383.84 66.8 397.315 70.3498 413.752 76.8501C423.482 80.7073 431.509 84.3339 450.079 93.3083C469.54 102.713 478.273 106.693 487.834 110.535C504.302 117.143 519.266 121.169 533.17 122.736C535.81 123.044 547.106 123.29 549.669 123.105ZM548.61 108.891C564.065 108.107 581.239 103.635 600.469 95.3675C609.079 91.664 614.512 89.0516 634.111 79.1859C658.529 66.8922 664.652 64.0032 675.595 59.5929C685.494 55.6128 695.961 52.3857 704.709 50.6031C708.699 49.7887 715.805 48.7283 717.202 48.7283C717.846 48.7283 718 48.6208 718 48.1598C718 47.6065 717.923 47.5912 715.821 47.7756C707.671 48.4978 695.071 51.4329 684.358 55.1364C671.129 59.7004 661.705 64.0032 629.982 79.9697C603.892 93.0932 593.225 97.7801 580.118 101.852C553.291 110.197 531.406 109.966 503.872 101.023C489.86 96.4739 480.391 92.2941 452.474 78.3715C433.596 68.9514 426.981 65.8012 418.694 62.2514C385.927 48.1905 362.108 44.8097 329.479 49.5889C311.384 52.232 295.761 56.3658 260.6 67.7835C242.444 73.6845 236.796 75.4671 229.598 77.6031C200.56 86.2087 177.908 89.8968 159.813 88.944C138.879 87.8376 120.078 83.2428 86.9432 71.1028C60.7451 61.5138 55.8646 59.7926 47.2393 57.1034C30.1115 51.771 14.6566 48.5286 2.76236 47.7602C0.137949 47.5912 -0.000177511 47.6065 -0.000177511 48.0983C-0.000177511 48.5747 0.322119 48.6361 3.92877 48.9435C13.9046 49.7579 26.7197 52.2474 38.6908 55.6743C49.1884 58.6708 58.6885 61.8979 77.6426 68.8746C102.459 78.018 112.22 81.2451 124.575 84.4261C145.325 89.7585 163.021 91.3106 180.547 89.3128C200.683 87.0231 219.453 82.3515 254.476 70.9031C271.174 65.4477 276.315 63.8035 283.866 61.5138C313.779 52.4011 334.482 48.6976 355.539 48.6822C371.424 48.6669 384.438 50.9412 401.274 56.6731C414.074 61.022 424.572 65.709 449.542 78.2178C471.673 89.2975 479.899 93.1393 490.52 97.3498C505.069 103.113 517.915 106.647 530.193 108.245C533.309 108.645 541.842 109.213 543.806 109.136C544.328 109.106 546.477 108.998 548.61 108.891ZM550.728 92.9241C565.139 91.8177 579.428 88.191 596.064 81.4142C604.858 77.8336 611.489 74.7141 629.967 65.4324C658.206 51.2485 665.604 47.7448 676.239 43.5189C689.822 38.1097 703.635 34.3755 714.531 33.1615C717.754 32.808 717.985 32.7312 717.985 32.1933C717.985 31.9321 717.923 31.6862 717.862 31.6862C717.8 31.6862 715.913 31.9167 713.641 32.2087C700.166 33.9452 685.77 38.1558 669.364 45.1632C661.168 48.6669 653.571 52.3242 633.804 62.2667C623.107 67.6452 612.241 73.0391 609.601 74.2531C584.769 85.7477 567.441 90.7727 548.886 91.8945C529.656 93.0471 507.264 87.7915 480.329 75.7744C473.039 72.5166 467.376 69.812 452.427 62.4358C430.619 51.6634 423.068 48.1598 412.8 44.0567C399.187 38.6321 385.773 34.8518 374.048 33.1461C361.11 31.2713 345.041 31.5633 328.758 33.9605C310.771 36.6191 293.474 41.1524 259.357 52.1706C227.787 62.359 213.79 66.3083 198.565 69.3356C173.457 74.3146 156.697 74.4221 134.106 69.7352C119.48 66.7078 108.476 63.2041 73.6676 50.4648C45.2595 40.0613 28.853 35.3743 12.6308 33.0385C9.65337 32.6082 1.19692 31.6862 0.214687 31.6862C0.107255 31.6862 -0.000177511 31.9321 -0.000177511 32.1933C-0.000177511 32.6236 0.260729 32.7312 1.81082 32.8695C19.0614 34.5138 33.0582 37.664 53.5931 44.5177C59.2564 46.4079 65.8558 48.7744 85.2703 55.8587C91.2865 58.0562 99.2058 60.8683 102.935 62.1131C134.72 72.7932 157.004 76.0203 180.578 73.3311C199.026 71.2258 218.548 66.4466 250.255 56.2736C272.141 49.2508 275.947 48.0368 282.562 46.0391C308.146 38.2941 326.993 34.4677 345.717 33.2229C351.625 32.8388 364.794 33.0539 369.643 33.6225C385.144 35.4512 400.737 39.9076 418.832 47.6987C426.659 51.0641 433.412 54.2605 451.537 63.2041C474.221 74.3914 480.084 77.096 490.765 81.3066C506.128 87.3766 519.68 91.0186 532.388 92.4938C536.746 93.0317 546.569 93.2468 550.728 92.9241ZM551.403 75.3288C565.354 74.3914 581.53 70.2884 598.873 63.2963C609.186 59.1319 616.737 55.6589 637.963 45.2707C651.131 38.8319 659.756 34.7596 666.018 32.0397C684.343 24.0795 700.703 19.1159 714.332 17.3948C717.493 16.9953 718 16.8723 718 16.4574C718 15.8581 717.601 15.8427 713.687 16.3806C700.903 18.1324 687.274 22.0357 671.758 28.3977C662.826 32.055 653.679 36.3117 633.036 46.4079C618.548 53.4921 611.964 56.5656 603.784 60.0539C585.03 68.0602 570.756 72.1324 555.286 73.9304C550.498 74.4836 539.003 74.5451 534.521 74.0533C516.012 71.9941 495.907 65.6782 467.913 53.1233C465.872 52.2013 458.919 49.0357 452.489 46.0698C427.672 34.6521 418.187 30.6874 405.28 26.3692C392.404 22.051 381.185 19.5001 369.382 18.2093C363.965 17.61 346.96 17.5331 341.066 18.0863C327.515 19.3464 316.603 21.129 302.375 24.4022C289.698 27.322 278.525 30.4415 249.304 39.17C211.411 50.4955 187.576 55.4284 167.717 56.0892C154.917 56.5195 139.846 54.5986 123.363 50.4648C112.788 47.8063 102.383 44.487 80.7274 36.8342C49.1117 25.6623 37.3555 22.0818 22.0848 18.9623C14.8715 17.487 4.38919 16.0118 1.13553 15.9964C0.183992 15.981 -0.000177511 16.0579 -0.000177511 16.5035C-0.000177511 16.9338 0.183992 17.0414 1.01275 17.0414C4.89566 17.0414 17.8182 19.0237 26.0598 20.8985C40.4404 24.1563 49.9711 27.1529 81.1111 38.1558C106.803 47.2377 119.817 51.141 133.692 53.907C158.247 58.7938 176.987 58.2406 206.362 51.7556C219.852 48.7744 230.089 45.993 257.546 37.8484C300.411 25.1245 318.183 21.1444 341.174 19.1159C346.361 18.6549 363.642 18.6549 368.032 19.1159C385.39 20.9292 402.625 25.6777 423.743 34.483C430.588 37.3413 438.185 40.7221 451.798 46.9919C473.254 56.8729 481.373 60.3766 491.548 64.1723C515.582 73.1005 533.846 76.512 551.403 75.3288ZM549.669 56.5348C564.433 55.705 579.643 52.232 597.001 45.7471C607.544 41.8131 615.51 38.3863 635.154 29.3504C662.166 16.9338 671.405 13.0613 684.266 8.7585C694.257 5.40847 704.893 2.8268 713.073 1.73574C718.153 1.05958 718 1.10569 718 0.521735C718 0.22976 717.969 -0.0161133 717.923 -0.0161133C716.235 -0.0161133 706.244 1.67427 701.256 2.81143C684.343 6.63784 669.962 12.1085 637.702 26.9532C616.906 36.5269 608.358 40.2457 598.75 43.9184C573.458 53.5843 552.232 57.1495 532.94 54.952C514.6 52.8621 494.648 46.9304 463.401 34.2986C457.983 32.1011 448.959 28.4591 443.326 26.1694C408.672 12.1393 388.306 6.49954 366.098 4.77842C361.663 4.44035 347.835 4.44035 342.402 4.79379C319.442 6.26903 299.536 10.1108 255.044 21.6669C220.527 30.6259 203.998 34.2064 186.164 36.5883C176.726 37.8484 171.922 38.1404 162.637 37.9867C151.479 37.8023 143.882 36.9725 132.187 34.6213C118.175 31.8092 107.248 28.6743 80.2056 19.6999C57.9672 12.3237 49.2345 9.60369 39.2586 6.96055C25.8296 3.41075 14.8869 1.41303 1.78013 0.122191C0.107255 -0.0468475 -0.000177511 -0.0161133 -0.000177511 0.491001C-0.000177511 0.952014 0.230034 1.05958 1.39644 1.18252C2.16381 1.25936 4.52732 1.5206 6.64527 1.73574C19.5064 3.10341 33.7182 6.22293 51.3217 11.5399C57.4454 13.384 64.4284 15.6583 84.7024 22.3584C118.083 33.4073 135.41 37.4796 155.255 38.8934C162.084 39.3851 174.608 39.0778 181.637 38.248C199.547 36.1273 216.368 32.7158 244.792 25.4318C281.994 15.8888 291.77 13.5223 303.434 11.2326C323.8 7.22179 338.534 5.60825 354.787 5.60825C367.664 5.60825 376.642 6.59174 389.334 9.37319C404.697 12.7386 419.538 17.7483 445.705 28.3669C474.773 40.1689 481.664 42.8274 492.638 46.4847C515.736 54.1837 534.061 57.4107 549.669 56.5348Z" fill="url(#paint0_linear)"/>
</g>
<g clip-path="url(#clip1)">
<path d="M1436 269.6C1436 269.953 1395.93 269.999 1077.01 269.999C758.087 269.999 718 269.953 718 269.6C718 269.246 758.072 269.2 1076.99 269.2C1395.91 269.2 1436 269.231 1436 269.6ZM1436 254.064C1436 253.556 1435.75 253.526 1429.03 253.372C1415.82 253.065 1340.34 252.327 1271.92 251.835C1213.71 251.42 1002.76 251.42 932.327 251.835C846.381 252.342 744.106 253.111 728.175 253.372C718.261 253.526 718 253.556 718 254.064C718 254.586 718.153 254.601 729.388 254.432C748.557 254.156 846.212 253.418 932.603 252.911C1002.4 252.496 1213.83 252.496 1271.66 252.911C1339.89 253.403 1413.36 254.125 1428.37 254.448C1435.86 254.601 1436 254.586 1436 254.064ZM1256.24 242.016C1270.82 241.77 1282.72 241.463 1317 240.433C1372.28 238.773 1382.68 238.574 1412.26 238.574H1436V238.005V237.436L1404.41 237.59C1387.06 237.682 1368.29 237.882 1362.73 238.036C1352.37 238.328 1326.99 239.081 1303.43 239.772C1259.66 241.078 1237 241.386 1214.32 241.001C1195 240.663 1190.87 240.556 1155.85 239.373C1089.64 237.144 1077.16 237.098 1000.41 238.835C956.53 239.834 947.767 239.957 921.43 239.957C892.362 239.957 879.701 239.757 798.835 238.02C791.744 237.867 770.657 237.667 751.964 237.59C718.123 237.436 718 237.436 718 237.959C718 238.481 718.23 238.497 751.841 238.65C770.457 238.743 791.545 238.942 798.712 239.096C879.793 240.832 892.562 241.032 921.707 241.032C946.232 241.032 959.784 240.863 988.99 240.172C1047.92 238.789 1074.17 238.466 1097.04 238.835C1115.93 239.142 1120.73 239.28 1155.59 240.448C1210.25 242.292 1225.68 242.523 1256.24 242.016ZM1250.25 229.876C1269.4 229.691 1289.85 228.815 1330.56 226.464C1381.65 223.498 1397.72 222.868 1421.56 222.868H1436V222.3V221.731L1416.12 221.885C1405.2 221.977 1393.38 222.161 1389.87 222.315C1369.73 223.176 1358.86 223.729 1332.7 225.25C1290.44 227.709 1275.93 228.354 1254.44 228.692C1229.48 229.092 1209.69 228.477 1173.4 226.188C1165.35 225.68 1153.16 224.912 1146.29 224.467C1116.96 222.622 1104.22 222.085 1083.93 221.885C1060.95 221.654 1043.78 222.1 998.306 224.067C944.989 226.372 941.827 226.449 910.81 226.449C879.639 226.449 873.454 226.295 817.866 224.052C773.45 222.269 755.432 221.777 733.255 221.777C718.583 221.777 718.015 221.793 718.015 222.269C718.015 222.745 718.813 222.761 740.008 222.93C765.531 223.114 771.394 223.283 817.605 225.127C873.608 227.356 879.609 227.509 910.672 227.509C941.489 227.509 946.646 227.371 995.497 225.235C1035.94 223.468 1046.8 223.13 1068.49 222.93C1096.48 222.669 1110.53 223.206 1160.64 226.433C1205.79 229.353 1225.63 230.122 1250.25 229.876ZM1266.07 218.32C1284.21 217.644 1302.08 216.353 1332.28 213.525C1373.12 209.699 1387.23 208.562 1404.61 207.686C1410.54 207.394 1427.87 206.902 1432.85 206.887C1435.89 206.887 1435.98 206.856 1435.98 206.303V205.734L1426.75 205.918C1401.44 206.41 1385.15 207.501 1342 211.543C1309.8 214.555 1300.9 215.308 1286.82 216.199C1270.06 217.244 1264.97 217.413 1247.87 217.398C1230.27 217.382 1223.88 217.152 1207.45 215.938C1195.17 215.031 1188.25 214.386 1156.38 211.159C1115.08 206.994 1099.68 206.011 1075.41 206.026C1052.05 206.041 1037.2 206.717 990.31 209.945C942.395 213.249 929.779 213.802 903.888 213.802C877.798 213.802 861.898 213.126 813.338 209.96C772.545 207.301 758.011 206.564 736.478 206.087C718.69 205.703 718 205.719 718 206.303C718 206.779 718.476 206.81 728.451 206.994C754.972 207.455 767.281 208.039 815.195 211.159C844.586 213.064 852.797 213.54 872.242 214.401C882.479 214.862 924.853 214.862 934.598 214.401C952.985 213.54 961.011 213.049 990.571 211.02C1059.79 206.272 1081.61 205.918 1120.35 208.9C1130.98 209.714 1137.05 210.283 1165.42 213.141C1196.12 216.23 1206.92 217.136 1224.59 218.089C1231.53 218.458 1258.26 218.612 1266.07 218.32ZM1267.41 207.762C1268.21 207.716 1271.21 207.563 1274.05 207.409C1285.61 206.794 1299.61 205.488 1315.28 203.552C1325.44 202.292 1330.38 201.646 1351.17 198.788C1385.22 194.132 1403.17 192.303 1423.51 191.443C1426.94 191.304 1431.17 191.181 1432.88 191.181C1435.83 191.181 1436.02 191.151 1436.02 190.644C1436.02 190.136 1435.83 190.106 1432.75 190.106C1425.59 190.106 1410.46 190.951 1398.78 191.996C1385.66 193.179 1373.38 194.67 1344.27 198.634C1308.74 203.475 1293.93 205.119 1274.19 206.395C1266.98 206.856 1237.93 206.871 1231.25 206.395C1212.25 205.073 1199.16 203.552 1165.7 198.757C1135.11 194.378 1127.99 193.456 1114.24 192.103C1090.97 189.814 1071.19 189.522 1044.56 191.043C1030.32 191.858 1016.83 193.01 988.192 195.822C952.616 199.326 937.806 200.509 920.11 201.262C889.953 202.553 866.18 201.447 811.22 196.222C764.518 191.781 748.725 190.659 726.579 190.198L718 190.029V190.597C718 191.151 718.077 191.166 721.929 191.166C727.147 191.166 739.563 191.596 748.449 192.103C763.382 192.933 775.844 193.947 805.358 196.76C857.831 201.739 872.917 202.707 898.824 202.722C923.901 202.737 938.497 201.785 988.315 196.898C1021.53 193.64 1032.91 192.718 1052.8 191.658C1062.43 191.151 1088.79 191.227 1097.22 191.796C1116.05 193.056 1127.72 194.424 1163.63 199.572C1201.84 205.042 1216.55 206.702 1235.78 207.686C1240.3 207.916 1263.48 207.978 1267.41 207.762ZM1265.01 197.943C1278.2 197.221 1284.72 196.683 1294.13 195.546C1306.74 194.024 1319.42 191.98 1340.62 188.093C1372.26 182.284 1380.64 180.839 1392.92 179.087C1407.07 177.074 1424.49 175.476 1432.47 175.476C1435.52 175.476 1436 175.369 1436 174.646C1436 174.216 1435.83 174.155 1434.86 174.262C1434.23 174.324 1431.58 174.447 1428.94 174.539C1412.46 175.061 1389.77 177.981 1360.46 183.36C1332.14 188.554 1325.5 189.752 1318.5 190.92C1284.27 196.591 1259.89 198.143 1235.21 196.237C1217.21 194.839 1201.64 192.472 1166.21 185.726C1134.05 179.61 1121.65 177.597 1105.45 175.876C1084.62 173.663 1063.03 173.755 1035.77 176.152C1022.29 177.336 1011.01 178.673 975.269 183.313C934.614 188.584 915.092 190.075 890.168 189.783C867.177 189.522 850.019 188.016 808.657 182.668C761.111 176.521 745.288 175.015 721.376 174.324C718.261 174.231 718 174.247 718 174.692C718 175.323 718.798 175.399 726.41 175.584C742.663 175.968 762.553 177.827 794.998 181.992C831.556 186.679 840.426 187.739 853.364 188.892C871.628 190.536 882.755 190.997 899.499 190.813C906.681 190.736 914.432 190.536 916.78 190.382C936.885 189.045 950.744 187.601 980.472 183.728C1016.62 179.026 1029.65 177.566 1045.88 176.414C1065.74 175 1083.44 175 1099.6 176.398C1117.19 177.92 1130.77 180.056 1168.08 187.155C1203.03 193.809 1217.61 195.976 1237.08 197.42C1242.15 197.82 1261.07 198.158 1265.01 197.943ZM1262.62 188.338C1281.54 187.877 1302.83 184.789 1331.36 178.35C1334 177.751 1342.24 175.845 1349.72 174.078C1392.95 163.92 1410.08 160.939 1433.01 159.571C1435.77 159.402 1436.02 159.356 1436.02 158.864C1436.02 158.342 1435.91 158.342 1432.78 158.511C1414.84 159.525 1396.02 162.43 1371 168.039C1368.38 168.622 1358.85 170.835 1349.87 172.925C1330.01 177.566 1323.46 179.026 1314.88 180.747C1271.32 189.43 1244.43 189.43 1201.83 180.762C1192.57 178.872 1186.01 177.382 1167.31 172.925C1132.8 164.688 1120.27 162.214 1102.02 160.017C1091.71 158.772 1087.32 158.557 1073.71 158.557C1057.87 158.572 1047.76 159.187 1030.77 161.216C1016.49 162.906 1011.17 163.705 970.803 170.236C930.654 176.721 906.022 178.949 883.445 178.165C860.363 177.351 845.399 175.538 800.477 168.146C759.53 161.4 743.615 159.448 722.22 158.526C718.077 158.342 718.046 158.357 718.046 158.926C718.046 159.418 718.199 159.494 719.289 159.494C723.678 159.494 737.721 160.509 747.298 161.507C760.313 162.875 771.608 164.504 798.758 168.976C821.442 172.71 830.435 174.109 839.444 175.338C863.663 178.611 884.474 179.917 901.54 179.226C923.502 178.334 940.661 176.291 979.981 169.883C1019.95 163.367 1035.62 161.338 1055.9 160.017C1063.21 159.54 1079.06 159.387 1085.42 159.725C1107.79 160.924 1125.6 164.043 1167.59 174.139C1202.43 182.514 1219.95 185.803 1239.26 187.585C1243.59 187.985 1256.33 188.569 1258.68 188.461C1259.29 188.431 1261.07 188.385 1262.62 188.338ZM1269.27 178.488C1286.19 177.305 1300.05 174.969 1320.33 169.883C1328.63 167.793 1334.81 166.102 1354.23 160.555C1383.48 152.21 1396.16 149.091 1410.88 146.586C1419.15 145.172 1430.9 143.789 1434.6 143.789C1435.88 143.789 1436.02 143.728 1436.02 143.19V142.591L1432.88 142.79C1425.58 143.251 1415.36 144.619 1406.1 146.34C1392.6 148.86 1378.88 152.349 1351.45 160.217C1313.48 171.112 1296.66 174.831 1275.66 176.967C1269.99 177.535 1254.21 177.781 1248.41 177.366C1234.21 176.367 1219.82 173.924 1201.48 169.36C1192.36 167.086 1187.54 165.764 1166.67 159.786C1136.88 151.242 1125.55 148.445 1110.13 145.802C1088.92 142.16 1070.18 141.669 1045.64 144.097C1028.19 145.818 1015.08 147.969 977.694 155.253C941.735 162.245 927.017 164.504 905.899 166.225C899.361 166.763 878.166 166.671 871.06 166.087C850.74 164.397 838.539 162.43 798.19 154.331C775.768 149.828 766.682 148.138 756.169 146.509C743.645 144.573 730.83 143.19 722.312 142.852C718.107 142.683 717.954 142.698 718.046 143.19C718.123 143.62 718.399 143.712 719.872 143.758C723.909 143.912 733.455 144.681 739.026 145.311C754.465 147.032 768.815 149.506 798.589 155.56C847.87 165.564 867.545 168.1 893.13 167.731C914.923 167.408 936.103 164.581 977.295 156.482C1012.24 149.613 1026.97 147.155 1043.24 145.449C1072.34 142.406 1093.14 143.282 1119.31 148.661C1131.63 151.196 1141.51 153.762 1166.24 160.831C1186.5 166.625 1191.82 168.1 1200.06 170.159C1218.47 174.769 1233.64 177.397 1247.87 178.427C1251.22 178.626 1266.23 178.688 1269.27 178.488ZM1266.76 168.791C1280.3 168.208 1294.74 165.81 1311.69 161.323C1320.82 158.91 1329.72 156.114 1353.17 148.323C1365.91 144.097 1378.28 140.04 1380.69 139.302C1400.64 133.201 1416.85 129.667 1431.46 128.222C1433.71 127.992 1435.65 127.823 1435.79 127.823C1435.91 127.823 1436.02 127.577 1436.02 127.27C1436.02 126.732 1435.94 126.716 1434.08 126.885C1417.37 128.437 1401.27 131.849 1380.44 138.242C1377.59 139.118 1365.74 142.99 1354.12 146.863C1330.93 154.562 1326.39 156.021 1318.09 158.403C1279.79 169.391 1254.62 170.605 1221.43 163.09C1207.34 159.909 1197.07 156.836 1168.11 147.155C1134.24 135.829 1119.92 131.895 1102.3 129.052C1085.1 126.271 1067.03 126.056 1046.05 128.376C1028.4 130.328 1013.39 133.186 973.98 142.083C938.006 150.197 919.512 153.332 899.115 154.731C894.097 155.084 881.251 155.069 875.818 154.731C854.669 153.378 838.216 150.412 796.303 140.378C760.037 131.695 743.891 128.745 724.323 127.162C717.923 126.624 718 126.624 718 127.254C718 127.7 718.291 127.777 720.578 127.93C741.251 129.344 758.103 132.356 796.042 141.423C835.377 150.827 849.804 153.547 870.124 155.376C876.478 155.945 892.608 156.175 898.824 155.776C917.732 154.562 937.177 151.396 968.317 144.419C975.239 142.867 985.414 140.593 990.97 139.348C1029.98 130.62 1053.91 127.423 1077.13 127.884C1081.52 127.961 1087.08 128.222 1089.5 128.468C1104.66 129.943 1120.06 133.171 1139.09 138.872C1144.72 140.562 1145.55 140.823 1168.34 148.399C1179.62 152.149 1190.96 155.852 1193.6 156.667C1218.73 164.366 1236.85 167.977 1254.32 168.791C1260.27 169.083 1260.12 169.083 1266.76 168.791ZM1268.73 158.526C1275.01 158.004 1277.18 157.773 1281.22 157.205C1298.96 154.685 1316.43 149.567 1346.63 138.011C1382.48 124.304 1394.36 120.231 1408.88 116.636C1417.26 114.561 1427.71 112.702 1433.77 112.21C1435.74 112.041 1435.98 111.964 1435.98 111.503C1435.98 110.996 1435.88 110.98 1433.62 111.15C1428.17 111.564 1416.89 113.547 1409.13 115.452C1394.64 119.002 1381.79 123.351 1353.15 134.338C1312.87 149.813 1296.43 154.531 1274.31 157.02C1269.16 157.604 1253.72 157.681 1249.19 157.159C1233.21 155.315 1218.16 151.734 1199.11 145.264C1191.33 142.621 1185.13 140.347 1169.68 134.477C1152.9 128.099 1145.7 125.487 1136.83 122.552C1103.99 111.687 1081.54 108.967 1050.93 112.133C1033.85 113.9 1015.3 117.527 988.176 124.411C941.904 136.152 929.196 138.933 911.194 141.254C899.929 142.714 897.473 142.867 885.794 142.852C874.037 142.836 870.554 142.621 860.271 141.238C843.665 139.01 830.374 135.967 795.259 126.348C771.701 119.893 758.916 116.789 746.73 114.53C737.629 112.855 727.392 111.488 721.115 111.134C718.107 110.965 718 110.965 718 111.488C718 111.979 718.245 112.041 721.008 112.194C729.679 112.702 742.893 114.684 755.233 117.312C763.045 118.971 779.451 123.151 796.456 127.807C833.689 137.996 848.791 141.269 866.793 143.098C877.69 144.204 892.408 144.327 901.77 143.405C923.257 141.269 938.435 138.165 984.34 126.501C1023.72 116.497 1043.67 112.994 1066.59 112.087C1085.59 111.334 1103.05 113.67 1124.62 119.847C1135.19 122.875 1146.64 126.885 1167.99 134.999C1193.68 144.773 1205.27 148.768 1217.68 152.134C1228.67 155.099 1238.6 157.036 1248.67 158.173C1251.23 158.449 1266.35 158.726 1268.73 158.526ZM1269.66 147.585C1291.33 145.756 1310.61 140.255 1342.93 126.67C1346.23 125.287 1353.32 122.275 1358.76 119.955C1389.85 106.708 1406.58 101.023 1423.91 97.8416C1426.78 97.3191 1435.09 96.1051 1435.88 96.1051C1435.95 96.1051 1436.02 95.8592 1436.02 95.5673C1436.02 94.9218 1436.23 94.9218 1431.41 95.5519C1411.64 98.1489 1393.44 103.942 1359 118.618C1331.35 130.389 1321.95 134.123 1310.37 137.904C1291.53 144.05 1276.85 146.694 1261.56 146.694C1250.53 146.694 1240.95 145.403 1227.92 142.13C1212.3 138.226 1199.91 133.693 1167.56 120.062C1136.28 106.893 1121.15 101.699 1103.65 98.1028C1092.68 95.8592 1085.49 95.1677 1073.02 95.1677C1060.51 95.1677 1051.13 95.9514 1038.1 98.1028C1021.96 100.777 1008.48 104.019 977.019 112.809C970.205 114.715 961.779 117.05 958.264 118.003C923.165 127.531 898.547 131.373 878.565 130.435C856.234 129.39 838.309 125.533 797.131 112.871C758.901 101.161 742.755 97.3652 722.819 95.4443C717.739 94.9526 718 94.9372 718 95.5826C718 95.8746 718.184 96.1205 718.399 96.1205C719.611 96.1205 729.909 97.3037 733.562 97.857C749.999 100.362 765.347 104.265 795.919 113.7C824.45 122.506 839.859 126.517 854.684 129.021C873.991 132.264 889.584 132.541 908.4 129.928C925.712 127.531 941.75 123.873 972.092 115.391C997.247 108.368 1005.75 106.094 1015.83 103.743C1031.15 100.162 1044.46 97.9338 1057.32 96.7813C1063.89 96.1973 1076.87 95.9822 1082.58 96.3663C1101.46 97.6418 1120.18 102.375 1145.47 112.256C1150.55 114.238 1153.71 115.544 1177.52 125.502C1189.32 130.435 1197.55 133.678 1205.17 136.382C1222.23 142.437 1238.77 146.356 1252.11 147.493C1255.01 147.739 1267.09 147.8 1269.66 147.585ZM1269.27 135.875C1289.63 134.292 1309.34 128.376 1339.6 114.761C1343.1 113.178 1350.71 109.705 1356.48 107.031C1377.31 97.4113 1387.38 93.1393 1398.51 89.2053C1410.31 85.0254 1422.42 81.9981 1432.19 80.7687C1435.6 80.3385 1436 80.2463 1436 79.7699C1436 79.2781 1435.86 79.2628 1433.93 79.4318C1428.39 79.9235 1418.07 82.0442 1410.23 84.2878C1395.68 88.4523 1383.13 93.4927 1354.47 106.708C1346.85 110.227 1338.13 114.192 1335.06 115.544C1309.44 126.839 1292.49 132.079 1274.05 134.354C1268.53 135.03 1254.7 135.045 1249.45 134.369C1231.51 132.049 1213.23 126.409 1188.55 115.621C1186.36 114.669 1178.1 110.95 1170.2 107.354C1154.63 100.3 1148.02 97.3806 1141.45 94.6913C1119.57 85.7323 1102.16 81.1068 1084.57 79.5701C1079.33 79.1091 1066.03 79.1859 1059.71 79.7084C1041.85 81.1836 1025.16 84.4568 1001.1 91.1723C997.615 92.1404 986.964 95.2753 977.449 98.1336C967.933 100.992 956.944 104.234 953.077 105.341C920.586 114.592 896.552 118.434 877.414 117.435C855.927 116.297 837.863 112.133 800.293 99.6395C773.22 90.6344 765.5 88.2525 754.02 85.3481C741.865 82.2747 728.973 80.0004 720.64 79.4472C718.107 79.2781 718 79.2935 718 79.8006C718 80.277 718.245 80.3538 720.578 80.5229C727.515 81.0146 738.504 82.8126 747.912 84.9793C760.083 87.7915 769.26 90.5115 792.988 98.3794C813.338 105.126 819.339 107.046 827.212 109.321C856.572 117.803 877.936 120.231 900.42 117.681C920.172 115.437 937.484 111.319 976.482 99.5934C1013.68 88.4062 1029.71 84.4876 1048.28 82.0135C1080.61 77.7261 1104.53 81.1068 1138.69 94.7989C1145.43 97.5035 1153.21 100.9 1167.14 107.231C1193.74 119.325 1202.44 122.951 1215.24 127.285C1229.04 131.957 1241.85 134.83 1253.17 135.783C1256.13 136.044 1266.46 136.09 1269.27 135.875ZM1267.67 123.105C1288 121.676 1307.3 115.836 1335.87 102.421C1338.22 101.33 1345.68 97.7033 1352.49 94.3686C1374.24 83.7192 1382.56 79.8928 1392.92 75.7898C1408.64 69.5661 1419.72 66.5849 1434.88 64.5411C1435.75 64.4181 1436 64.2798 1436 63.8649C1436 63.3885 1435.86 63.3424 1434.62 63.4961C1419.24 65.3248 1403.77 69.812 1384.82 77.9412C1376.82 81.3681 1370.4 84.38 1352.77 92.9856C1325.51 106.278 1316.61 110.151 1302.78 114.745C1274.08 124.288 1252.89 124.565 1223.94 115.79C1209.84 111.518 1198.82 106.831 1168.52 92.248C1143.34 80.1233 1132.55 75.4825 1119.6 71.2258C1103.93 66.0778 1091.2 63.7727 1076.62 63.4346C1059.2 63.0351 1041.57 65.3555 1019.45 70.9338C1007.3 73.9918 999.887 76.1893 974.778 84.1188C941.72 94.553 927.401 98.3641 910.871 101.161C899.223 103.128 892.945 103.696 883.292 103.681C872.226 103.666 863.724 102.759 851.937 100.346C837.51 97.4113 826.015 93.9076 796.072 83.335C787.432 80.277 777.041 76.6965 772.944 75.3595C752.04 68.5058 736.662 65.0636 719.811 63.4808C718.138 63.3271 718 63.3578 718 63.8496C718 64.2952 718.245 64.4028 719.519 64.5411C734.667 66.0932 744.52 68.0448 760.159 72.5627C768.247 74.8985 777.041 77.8183 792.466 83.2736C828.578 96.0436 840.595 99.6088 857.355 102.498C875.649 105.663 890.567 105.617 910.273 102.36C927.585 99.4859 941.812 95.7056 976.881 84.6259C1019.91 71.0414 1036.64 67.0767 1060.11 64.9099C1065.85 64.372 1082 64.4642 1086.97 65.0482C1101.84 66.8 1115.31 70.3498 1131.75 76.8501C1141.48 80.7073 1149.51 84.3339 1168.08 93.3083C1187.54 102.713 1196.27 106.693 1205.83 110.535C1222.3 117.143 1237.27 121.169 1251.17 122.736C1253.81 123.044 1265.11 123.29 1267.67 123.105ZM1266.61 108.891C1282.06 108.107 1299.24 103.635 1318.47 95.3675C1327.08 91.664 1332.51 89.0516 1352.11 79.1859C1376.53 66.8922 1382.65 64.0032 1393.59 59.5929C1403.49 55.6128 1413.96 52.3857 1422.71 50.6031C1426.7 49.7887 1433.81 48.7283 1435.2 48.7283C1435.85 48.7283 1436 48.6208 1436 48.1598C1436 47.6065 1435.92 47.5912 1433.82 47.7756C1425.67 48.4978 1413.07 51.4329 1402.36 55.1364C1389.13 59.7004 1379.71 64.0032 1347.98 79.9697C1321.89 93.0932 1311.23 97.7801 1298.12 101.852C1271.29 110.197 1249.41 109.966 1221.87 101.023C1207.86 96.4739 1198.39 92.2941 1170.47 78.3715C1151.6 68.9514 1144.98 65.8012 1136.69 62.2514C1103.93 48.1905 1080.11 44.8097 1047.48 49.5889C1029.38 52.232 1013.76 56.3658 978.6 67.7835C960.444 73.6845 954.796 75.4671 947.598 77.6031C918.56 86.2087 895.908 89.8968 877.813 88.944C856.879 87.8376 838.078 83.2428 804.943 71.1028C778.745 61.5138 773.865 59.7926 765.239 57.1034C748.112 51.771 732.657 48.5286 720.762 47.7602C718.138 47.5912 718 47.6065 718 48.0983C718 48.5747 718.322 48.6361 721.929 48.9435C731.905 49.7579 744.72 52.2474 756.691 55.6743C767.188 58.6708 776.688 61.8979 795.643 68.8746C820.459 78.018 830.22 81.2451 842.575 84.4261C863.325 89.7585 881.021 91.3106 898.547 89.3128C918.683 87.0231 937.453 82.3515 972.476 70.9031C989.174 65.4477 994.315 63.8035 1001.87 61.5138C1031.78 52.4011 1052.48 48.6976 1073.54 48.6822C1089.42 48.6669 1102.44 50.9412 1119.27 56.6731C1132.07 61.022 1142.57 65.709 1167.54 78.2178C1189.67 89.2975 1197.9 93.1393 1208.52 97.3498C1223.07 103.113 1235.92 106.647 1248.19 108.245C1251.31 108.645 1259.84 109.213 1261.81 109.136C1262.33 109.106 1264.48 108.998 1266.61 108.891ZM1268.73 92.9241C1283.14 91.8177 1297.43 88.191 1314.06 81.4142C1322.86 77.8336 1329.49 74.7141 1347.97 65.4324C1376.21 51.2485 1383.6 47.7448 1394.24 43.5189C1407.82 38.1097 1421.63 34.3755 1432.53 33.1615C1435.75 32.808 1435.98 32.7312 1435.98 32.1933C1435.98 31.9321 1435.92 31.6862 1435.86 31.6862C1435.8 31.6862 1433.91 31.9167 1431.64 32.2087C1418.17 33.9452 1403.77 38.1558 1387.36 45.1632C1379.17 48.6669 1371.57 52.3242 1351.8 62.2667C1341.11 67.6452 1330.24 73.0391 1327.6 74.2531C1302.77 85.7477 1285.44 90.7727 1266.89 91.8945C1247.66 93.0471 1225.26 87.7915 1198.33 75.7744C1191.04 72.5166 1185.38 69.812 1170.43 62.4358C1148.62 51.6634 1141.07 48.1598 1130.8 44.0567C1117.19 38.6321 1103.77 34.8518 1092.05 33.1461C1079.11 31.2713 1063.04 31.5633 1046.76 33.9605C1028.77 36.6191 1011.47 41.1524 977.357 52.1706C945.787 62.359 931.79 66.3083 916.565 69.3356C891.457 74.3146 874.697 74.4221 852.106 69.7352C837.48 66.7078 826.476 63.2041 791.668 50.4648C763.259 40.0613 746.853 35.3743 730.631 33.0385C727.653 32.6082 719.197 31.6862 718.215 31.6862C718.107 31.6862 718 31.9321 718 32.1933C718 32.6236 718.261 32.7312 719.811 32.8695C737.061 34.5138 751.058 37.664 771.593 44.5177C777.256 46.4079 783.856 48.7744 803.27 55.8587C809.286 58.0562 817.206 60.8683 820.935 62.1131C852.72 72.7932 875.004 76.0203 898.578 73.3311C917.026 71.2258 936.548 66.4466 968.255 56.2736C990.141 49.2508 993.947 48.0368 1000.56 46.0391C1026.15 38.2941 1044.99 34.4677 1063.72 33.2229C1069.63 32.8388 1082.79 33.0539 1087.64 33.6225C1103.14 35.4512 1118.74 39.9076 1136.83 47.6987C1144.66 51.0641 1151.41 54.2605 1169.54 63.2041C1192.22 74.3914 1198.08 77.096 1208.77 81.3066C1224.13 87.3766 1237.68 91.0186 1250.39 92.4938C1254.75 93.0317 1264.57 93.2468 1268.73 92.9241ZM1269.4 75.3288C1283.35 74.3914 1299.53 70.2884 1316.87 63.2963C1327.19 59.1319 1334.74 55.6589 1355.96 45.2707C1369.13 38.8319 1377.76 34.7596 1384.02 32.0397C1402.34 24.0795 1418.7 19.1159 1432.33 17.3948C1435.49 16.9953 1436 16.8723 1436 16.4574C1436 15.8581 1435.6 15.8427 1431.69 16.3806C1418.9 18.1324 1405.27 22.0357 1389.76 28.3977C1380.83 32.055 1371.68 36.3117 1351.04 46.4079C1336.55 53.4921 1329.96 56.5656 1321.78 60.0539C1303.03 68.0602 1288.76 72.1324 1273.29 73.9304C1268.5 74.4836 1257 74.5451 1252.52 74.0533C1234.01 71.9941 1213.91 65.6782 1185.91 53.1233C1183.87 52.2013 1176.92 49.0357 1170.49 46.0698C1145.67 34.6521 1136.19 30.6874 1123.28 26.3692C1110.4 22.051 1099.18 19.5001 1087.38 18.2093C1081.96 17.61 1064.96 17.5331 1059.07 18.0863C1045.51 19.3464 1034.6 21.129 1020.38 24.4022C1007.7 27.322 996.525 30.4415 967.304 39.17C929.411 50.4955 905.576 55.4284 885.717 56.0892C872.917 56.5195 857.846 54.5986 841.363 50.4648C830.788 47.8063 820.383 44.487 798.727 36.8342C767.112 25.6623 755.356 22.0818 740.085 18.9623C732.872 17.487 722.389 16.0118 719.136 15.9964C718.184 15.981 718 16.0579 718 16.5035C718 16.9338 718.184 17.0414 719.013 17.0414C722.896 17.0414 735.818 19.0237 744.06 20.8985C758.44 24.1563 767.971 27.1529 799.111 38.1558C824.803 47.2377 837.817 51.141 851.692 53.907C876.247 58.7938 894.987 58.2406 924.362 51.7556C937.852 48.7744 948.089 45.993 975.546 37.8484C1018.41 25.1245 1036.18 21.1444 1059.17 19.1159C1064.36 18.6549 1081.64 18.6549 1086.03 19.1159C1103.39 20.9292 1120.62 25.6777 1141.74 34.483C1148.59 37.3413 1156.19 40.7221 1169.8 46.9919C1191.25 56.8729 1199.37 60.3766 1209.55 64.1723C1233.58 73.1005 1251.85 76.512 1269.4 75.3288ZM1267.67 56.5348C1282.43 55.705 1297.64 52.232 1315 45.7471C1325.54 41.8131 1333.51 38.3863 1353.15 29.3504C1380.17 16.9338 1389.41 13.0613 1402.27 8.7585C1412.26 5.40847 1422.89 2.8268 1431.07 1.73574C1436.15 1.05958 1436 1.10569 1436 0.521735C1436 0.22976 1435.97 -0.0161133 1435.92 -0.0161133C1434.23 -0.0161133 1424.24 1.67427 1419.26 2.81143C1402.34 6.63784 1387.96 12.1085 1355.7 26.9532C1334.91 36.5269 1326.36 40.2457 1316.75 43.9184C1291.46 53.5843 1270.23 57.1495 1250.94 54.952C1232.6 52.8621 1212.65 46.9304 1181.4 34.2986C1175.98 32.1011 1166.96 28.4591 1161.33 26.1694C1126.67 12.1393 1106.31 6.49954 1084.1 4.77842C1079.66 4.44035 1065.83 4.44035 1060.4 4.79379C1037.44 6.26903 1017.54 10.1108 973.044 21.6669C938.527 30.6259 921.998 34.2064 904.164 36.5883C894.726 37.8484 889.922 38.1404 880.637 37.9867C869.479 37.8023 861.882 36.9725 850.187 34.6213C836.175 31.8092 825.248 28.6743 798.206 19.6999C775.967 12.3237 767.234 9.60369 757.259 6.96055C743.83 3.41075 732.887 1.41303 719.78 0.122191C718.107 -0.0468475 718 -0.0161133 718 0.491001C718 0.952014 718.23 1.05958 719.396 1.18252C720.164 1.25936 722.527 1.5206 724.645 1.73574C737.506 3.10341 751.718 6.22293 769.322 11.5399C775.445 13.384 782.428 15.6583 802.702 22.3584C836.083 33.4073 853.41 37.4796 873.255 38.8934C880.084 39.3851 892.608 39.0778 899.637 38.248C917.547 36.1273 934.368 32.7158 962.792 25.4318C999.994 15.8888 1009.77 13.5223 1021.43 11.2326C1041.8 7.22179 1056.53 5.60825 1072.79 5.60825C1085.66 5.60825 1094.64 6.59174 1107.33 9.37319C1122.7 12.7386 1137.54 17.7483 1163.71 28.3669C1192.77 40.1689 1199.66 42.8274 1210.64 46.4847C1233.74 54.1837 1252.06 57.4107 1267.67 56.5348Z" fill="url(#paint1_linear)"/>
</g>
<defs>
<linearGradient id="paint0_linear" x1="359.007" y1="-0.0161133" x2="359.007" y2="269.999" gradientUnits="userSpaceOnUse">
<stop stop-opacity="0"/>
<stop offset="1" stop-opacity="0.6"/>
</linearGradient>
<linearGradient id="paint1_linear" x1="1077.01" y1="-0.0161133" x2="1077.01" y2="269.999" gradientUnits="userSpaceOnUse">
<stop stop-opacity="0"/>
<stop offset="1" stop-opacity="0.6"/>
</linearGradient>
<clipPath id="clip0">
<rect width="718" height="270" fill="white"/>
</clipPath>
<clipPath id="clip1">
<rect x="718" width="718" height="270" fill="white"/>
</clipPath>
</defs>
</svg>
