<svg width="795" height="927" viewBox="0 0 795 927" fill="none" xmlns="http://www.w3.org/2000/svg">
<path d="M4.22829 -168.654C0.717019 -165.878 5.7904e-05 -165.161 5.7904e-05 -164.481C5.7904e-05 -163.874 0.11036 -163.727 0.404498 -163.948C0.625101 -164.131 2.94144 -165.933 5.5703 -168.011C8.21754 -170.07 10.4052 -171.798 10.4787 -171.871C10.5523 -171.945 10.1294 -172 9.52278 -172C8.62198 -172 7.72118 -171.43 4.22829 -168.654Z" fill="black"/>
<path d="M23.0899 -166.209C16.5453 -161.245 5.84605 -152.843 1.34206 -149.093C0.349347 -148.265 5.7904e-05 -147.751 5.7904e-05 -147.07C5.7904e-05 -146.188 0.128743 -146.261 3.4378 -149.001C9.57793 -154.075 17.5197 -160.307 25.0018 -165.951C29.0462 -169.003 32.4655 -171.577 32.631 -171.743C32.8148 -171.89 32.4839 -172 31.8405 -172C30.9213 -172 29.5609 -171.099 23.0899 -166.209Z" fill="black"/>
<path d="M49.3417 -168.764C34.7267 -158.469 17.1336 -144.901 4.37536 -134.109C0.680253 -131.002 5.7904e-05 -130.285 5.7904e-05 -129.513V-128.612L1.01116 -129.476C13.2179 -139.79 22.8877 -147.548 33.7156 -155.711C40.7933 -161.043 51.658 -168.893 54.673 -170.879C55.4451 -171.375 56.0517 -171.816 56.0517 -171.89C56.0701 -171.945 55.5738 -172 55.0039 -172C54.1582 -172 52.9817 -171.32 49.3417 -168.764Z" fill="black"/>
<path d="M69.674 -166.412C45.9959 -150.436 24.7628 -134.165 4.20991 -116.258C0.606718 -113.115 5.7904e-05 -112.453 5.7904e-05 -111.644V-110.706L0.882472 -111.515C1.36045 -111.956 4.02607 -114.291 6.76523 -116.663C27.3181 -134.459 49.3785 -151.281 71.5124 -166.044C76.2554 -169.206 80.1711 -171.835 80.2446 -171.891C80.3181 -171.946 79.8034 -172.001 79.1232 -171.982C78.057 -171.964 76.7701 -171.21 69.674 -166.412Z" fill="black"/>
<path d="M95.4102 -167.036C64.9853 -148.063 36.0494 -126.498 9.94469 -103.333C-0.791349 -93.8099 -0.0743869 -94.5269 0.0542985 -93.5709C0.1646 -92.7804 0.330053 -92.8907 3.65749 -95.9425C33.5677 -123.17 69.8569 -150.361 101.844 -169.445C104.014 -170.731 105.76 -171.835 105.76 -171.89C105.76 -171.945 105.227 -172 104.565 -172C103.573 -172 101.973 -171.118 95.4102 -167.036Z" fill="black"/>
<path d="M124.843 -168.856C82.0278 -144.68 42.9626 -116.019 5.99312 -81.6209C0.808938 -76.7857 5.7904e-05 -75.9216 5.7904e-05 -75.0943C5.7904e-05 -74.1567 0.0552087 -74.1935 2.79437 -76.7673C9.57793 -83.1468 16.8211 -89.7469 21.9685 -94.2511C54.1031 -122.38 89.3629 -147.365 126.296 -168.158C129.807 -170.125 132.73 -171.798 132.785 -171.871C132.877 -171.945 132.362 -172 131.664 -172C130.671 -172 129.292 -171.375 124.843 -168.856Z" fill="black"/>
<path d="M155.121 -169.904C142.087 -163.028 138.392 -161.043 132.509 -157.733C86.3847 -131.793 42.981 -99.2518 5.18424 -62.317C0.77217 -57.9782 5.7904e-05 -57.0773 5.7904e-05 -56.2684C5.7904e-05 -55.3675 0.31258 -55.6249 5.03717 -60.2211C50.169 -104.289 99.29 -139.753 154.018 -167.753C162.199 -171.945 162.272 -172 160.71 -172C159.349 -172 158.504 -171.687 155.121 -169.904Z" fill="black"/>
<path d="M183.965 -168.784C131.572 -144.939 81.752 -112.765 38.5505 -74.8746C28.605 -66.1602 22.52 -60.461 11.3795 -49.3934C1.21338 -39.3186 5.7904e-05 -38.0133 5.7904e-05 -37.094C5.7904e-05 -36.138 0.569951 -36.6528 8.51168 -44.6501C25.682 -61.9501 41.5654 -76.2718 59.3976 -90.5567C98.2422 -121.682 140.69 -147.751 185.528 -168.03C190.087 -170.089 193.874 -171.817 193.929 -171.891C194.002 -171.946 193.359 -172.001 192.495 -171.982C191.227 -171.964 189.756 -171.413 183.965 -168.784Z" fill="black"/>
<path d="M224.721 -171.21C223.674 -170.787 219.648 -169.206 215.805 -167.699C159.772 -145.655 105.136 -113.17 58.1291 -73.9367C40.297 -59.0451 20.3691 -40.2191 5.45999 -24.1877C0.735403 -19.0951 5.7904e-05 -18.1575 5.7904e-05 -17.275V-16.2639L1.94872 -18.3965C16.5821 -34.3544 34.8003 -52.0956 50.794 -65.9209C95.4295 -104.529 144.275 -135.323 198.598 -159.113C204.647 -161.76 219.758 -167.882 227.902 -171.008L230.457 -171.982H228.545C227.277 -171.964 226.008 -171.706 224.721 -171.21Z" fill="black"/>
<path d="M263.584 -170.218C186.244 -146.612 113.224 -105.485 52.5582 -51.3977C36.2519 -36.837 17.6661 -18.1398 3.58422 -2.08995C0.624451 1.29283 -0.000592712 2.15691 0.0177909 3.00261L0.0361745 4.01376L0.900205 3.03938C1.37818 2.50623 3.85997 -0.288254 6.41529 -3.19304C45.0025 -46.7096 90.6859 -84.5453 140.322 -114.089C180.03 -137.732 223.655 -156.944 266.305 -169.593C270.257 -170.77 273.621 -171.762 273.787 -171.836C273.952 -171.891 273.015 -171.946 271.709 -171.965C269.706 -171.965 268.4 -171.689 263.584 -170.218Z" fill="black"/>
<path d="M324.435 -171.466C310.096 -168.488 303.808 -167.072 295.297 -164.958C215.052 -144.974 140.801 -107.414 76.6052 -54.3191C50.6475 -32.8458 25.2965 -7.53009 3.73249 18.4291C0.478591 22.345 -0.0177665 23.0804 0.0741517 23.9261C0.16607 24.8637 0.239604 24.8086 2.70301 21.7751C18.9909 1.75418 42.3014 -22.4585 62.9462 -40.8064C113.501 -85.7386 172.77 -121.534 235.568 -145.029C266.968 -156.777 295.003 -164.499 331.605 -171.485L333.994 -171.944H330.336C328.314 -171.944 325.648 -171.724 324.435 -171.466Z" fill="black"/>
<path d="M573.845 -171.319C617.047 -164.921 650.78 -156.152 680.231 -143.632C686.61 -140.929 700.821 -133.814 706.354 -130.579C731.871 -115.65 751.817 -96.7509 765.549 -74.487C781.819 -48.105 790.367 -17.182 793.217 25.6727C793.75 33.6517 793.732 66.8544 793.198 76.488C791.489 107.062 789.448 128.664 783.271 181.299C777.517 230.294 775.477 249.01 773.436 271.605C765.494 359.061 766.634 417.818 778.345 526.931C778.951 532.63 780.385 545.72 781.506 556.071C789.356 627.771 791.544 656.966 791.544 689.856C791.544 721.331 789.044 745.268 783.4 768.028C776.396 796.248 764.796 819.413 747.736 839.232C743.177 844.527 734.628 852.984 729.444 857.304C703.762 878.741 669.716 894.79 626.551 905.784C592.284 914.536 552.079 920.308 505.826 923.176C467.477 925.548 424.055 926.044 397.05 924.463C288.402 918.029 185.233 880.211 98.2606 814.946C64.1222 789.318 32.3185 759.075 4.72465 725.945C0.294196 720.632 5.7904e-05 720.338 5.7904e-05 721.349C5.7904e-05 722.25 0.698636 723.243 4.50405 727.802C44.6539 775.805 91.9917 816.251 145.672 848.406C165.912 860.54 189.535 872.619 210.934 881.811C269.467 906.924 330.74 921.522 394.66 925.585C422.015 927.313 464.426 926.945 503.601 924.61C548.678 921.926 589.25 916.301 622.727 908.101C668.502 896.868 703.56 880.634 730.4 858.278C735.345 854.16 746.449 843.037 750.346 838.313C777.113 805.845 790 766.41 792.555 709.142C792.978 699.71 792.776 670.589 792.224 660.569C790.588 630.621 788.566 608.228 782.481 552.89C774.466 479.848 771.892 449.146 770.145 406.034C769.631 393.201 769.631 352.185 770.145 340.088C772.094 294.402 774.539 267.211 783.602 189.738C790.882 127.487 792.868 107.007 794.43 77.444C794.982 67.0199 795.166 41.2078 794.761 32.0522C793.934 13.833 792.39 -0.102585 789.614 -14.1301C779.76 -63.8791 756.394 -99.5453 716.373 -125.872C684.643 -146.757 642.25 -161.391 587.081 -170.529C579.507 -171.779 577.742 -171.981 574.01 -171.944L569.69 -171.907L573.845 -171.319Z" fill="black"/>
<path d="M411.554 -167.643C348.737 -165.4 288.825 -153.027 231.432 -130.432C142.381 -95.391 62.8904 -35.9901 3.89739 39.5894C0.533183 43.8914 -0.0183252 44.7738 0.0552093 45.6012C0.147127 46.5204 0.478033 46.1711 4.81657 40.6005C24.0275 15.9099 47.3931 -8.96458 71.5124 -30.4195C157.658 -107.084 265.055 -153.744 379.695 -164.334C400.414 -166.246 414.073 -166.705 443.082 -166.485C471.393 -166.264 489.225 -165.621 512.37 -164.021C602.229 -157.807 666.59 -140.783 710.123 -111.717C724.903 -101.844 738.36 -89.4344 748.563 -76.2709C768.142 -50.992 779.797 -17.9363 783.437 22.6387C784.411 33.5592 784.595 37.6038 784.779 52.2564C785.22 87.077 783.143 113.68 773.583 195.289C765.09 267.688 762.535 296.497 760.623 340.547C760.108 352.35 760.108 393.274 760.604 405.684C762.351 448.207 764.759 476.979 772.774 550.15C779.87 615.012 781.966 640.713 782.628 670.533C784.356 749.054 769.116 799.392 732.496 836.088C722.991 845.611 713.561 853.093 701.758 860.502C655.358 889.605 586.162 906.041 490.255 910.748C473.617 911.557 466.007 911.759 442.788 911.924C417.786 912.108 407.896 911.906 393.097 910.913C313.018 905.471 236.91 882.895 166.776 843.772C106.662 810.257 52.3382 764.203 8.98965 710.079C5.55191 705.777 2.16933 701.512 1.47075 700.574L0.202278 698.864L0.11036 699.857C0.0368257 700.666 0.404498 701.346 2.16933 703.607C35.3702 746.425 74.0125 783.415 118.225 814.688C154.404 840.279 194.793 861.881 236.248 877.784C286.196 896.941 339.233 908.578 392.968 912.182C406.333 913.083 415.047 913.322 434.185 913.322C540.534 913.322 620.742 900.857 676.279 875.688C693.927 867.691 709.332 858.149 723.286 846.567C728.654 842.118 738.25 832.484 742.735 827.061C764.134 801.157 776.653 769.461 781.562 728.886C784.76 702.449 784.907 670.901 782.04 631.411C780.495 610.287 778.822 593.244 773.289 542.686C767.921 493.654 765.31 465.563 763.582 438.041C759.317 370.679 761.119 317.823 770.605 232.739C771.487 224.852 773.473 207.515 775.054 194.186C783.621 121.236 785.716 96.5267 786.084 63.7468C786.323 42.3103 785.735 29.3675 783.768 13.4096C779.025 -25.1063 767.333 -55.0918 747.478 -79.764C712.715 -122.95 651.902 -149.111 559.083 -160.822C521.433 -165.565 478.618 -167.919 432.787 -167.772C422.382 -167.753 412.86 -167.698 411.554 -167.643Z" fill="black"/>
<path d="M414.9 -154.277C399.605 -153.707 386.589 -152.825 374.603 -151.593C295.701 -143.412 219.979 -117.581 152.584 -75.8481C94.5471 -39.906 43.6979 7.25075 3.38265 62.5151C0.478032 66.5046 -0.0183257 67.3503 0.0552088 68.2328C0.147127 69.2072 0.349347 68.9865 3.80547 64.2065C18.7697 43.5054 36.3813 22.749 55.2612 3.55542C104.419 -46.3958 162.714 -85.7942 227.663 -112.948C278.88 -134.367 335.446 -147.806 390.983 -151.758C422.015 -153.965 466.724 -153.542 509.962 -150.619C587.044 -145.416 646.479 -131.443 687.86 -108.812C741.945 -79.2308 769.318 -34.1332 774.815 34.4417C775.66 45.1048 775.936 52.6242 775.936 65.6589C775.936 97.9976 773.749 124.913 765.255 197.22C759.446 246.693 756.836 271.843 754.942 296.607C750.438 355.622 750.732 401.419 756.064 465.287C757.718 485.124 759.648 504.336 764.005 544.286C768.197 582.728 770.053 601.334 771.469 619.314C775.587 671.361 774.613 707.965 768.289 739.568C762.829 766.833 752.754 790.365 738.434 809.264C728.837 821.932 717.035 833.257 703.321 842.982C659.237 874.181 591.07 891.959 495.163 897.217C479.868 898.063 472.257 898.32 450.95 898.724C417.437 899.35 394.035 898.393 367.912 895.323C296.215 886.885 228.159 864.18 165.508 827.815C133.3 809.117 102.268 786.228 73.9022 760.251C65.9421 752.952 49.8197 736.847 42.5398 728.887C28.5682 713.627 13.751 695.445 2.55538 679.799C0.0552087 676.27 5.7904e-05 676.233 5.7904e-05 677.354C5.7904e-05 678.641 0.698637 679.671 8.08885 689.525C68.6261 770.142 151.297 832.006 245.458 867.139C291.711 884.403 341.678 895.25 391.149 898.798C406.389 899.883 413.19 900.085 435.104 900.048C559.653 899.883 645.651 882.675 699.607 847.119C730.86 826.528 751.982 798.693 763.619 762.714C774.171 730.118 777.315 690.849 773.841 634.886C772.443 612.273 770.568 592.638 764.649 538.366C757.663 474.332 755.273 445.542 753.582 404.893C753.067 392.759 753.085 353.269 753.582 341.503C755.475 297.416 757.957 270.207 767.333 190.509C772.682 144.952 774.944 121.64 776.433 96.2143C777.113 84.6871 777.389 56.7239 776.929 46.9984C775.201 11.2586 769.153 -15.8956 757.645 -39.6486C753.931 -47.2966 751.67 -51.2861 747.092 -58.1252C715.803 -105.043 657.141 -133.429 564.911 -146.317C536.894 -150.233 508.252 -152.531 471.43 -153.836C462.422 -154.167 420.36 -154.479 414.9 -154.277Z" fill="black"/>
<path d="M415.213 -140.783C269.578 -136.554 134.568 -72.1528 39.5616 38.4128C26.9321 53.1021 12.3539 72.3325 2.09579 87.8492C0.36773 90.4598 -0.0183257 91.2687 0.0552088 92.096C0.147127 93.0704 0.349347 92.8498 3.30911 88.3824C16.5453 68.4717 32.3736 48.1934 49.6542 28.9998C56.1253 21.8298 70.7035 6.95656 78.4062 -0.323776C162.695 -79.8743 271.471 -128.41 386.681 -137.915C406.719 -139.569 423.448 -139.992 449.553 -139.551C486.118 -138.908 513.197 -137.382 540.203 -134.422C659.402 -121.35 725.602 -85.353 752.313 -19.0578C759.648 -0.82016 764.115 20.12 766.229 46.3366C766.928 54.9222 767.204 82.1131 766.726 93.4749C765.549 121.254 763.49 143.261 756.376 204.004C751.798 243.126 750.052 259.158 748.25 279.032C741.724 350.824 741.926 401.51 749.041 478.597C750.456 493.838 751.982 508.675 755.402 539.91C760.898 590.248 762.663 609.202 763.987 632.128C767.645 694.691 762.24 737.435 746.357 771.723C720.859 826.748 665.818 859.932 574.47 875.357C534.522 882.104 487.001 885.542 433.835 885.542C416.665 885.542 407.197 885.267 394.66 884.421C315.72 879.053 240.053 855.851 171.997 816.195C105.265 777.293 47.9445 723.61 4.70627 659.539C0.294195 653.013 5.7904e-05 652.645 5.7904e-05 653.767C5.7904e-05 654.76 0.643484 655.918 3.78708 660.606C29.9654 699.526 62.9272 736.13 99.29 766.649C125.854 788.949 153.411 807.757 184.59 824.873C191.484 828.66 211.54 838.588 219.28 842.044C273.622 866.367 330.703 880.873 389.88 885.395C405.433 886.59 409.146 886.682 435.913 886.664C461.907 886.646 471.283 886.425 491.339 885.377C555.59 882.013 608.149 872.728 647.747 857.763C712.09 833.44 747.956 793.454 760.659 731.846C766.91 701.549 767.976 665.772 764.152 615.104C762.7 595.947 761.358 582.508 755.107 525.074C749.317 471.905 746.853 441.552 745.309 404.378C744.813 392.3 744.813 354.096 745.309 342.257C747.055 301.222 749.482 274.086 757.791 203.048C766.432 129.104 768.307 106.16 768.307 73.5643C768.307 55.8782 767.81 46.2447 766.229 32.6216C761.468 -7.99017 748.673 -38.5823 725.786 -64.0819C717.274 -73.5684 704.902 -83.7351 692.033 -91.806C644.585 -121.571 570.573 -137.584 467.146 -140.489C450.767 -140.911 425.048 -141.077 415.213 -140.783Z" fill="black"/>
<path d="M411.223 -127.233C410.084 -127.178 406.223 -126.976 402.62 -126.792C296.068 -121.24 194.076 -81.5289 111.515 -13.4504C91.0909 3.38995 71.0528 22.8042 53.8825 42.3655C35.2415 63.6366 17.9792 86.9484 3.52971 110.389C0.56995 115.206 5.7904e-05 116.327 5.7904e-05 117.412V118.68L0.606718 117.724C0.937623 117.191 2.61053 114.47 4.32021 111.676C33.3112 64.1514 73.5713 18.5941 117.692 -16.6861C179.038 -65.6997 248.988 -98.9392 325.225 -115.265C349.785 -120.523 373.041 -123.63 401.995 -125.524C415.452 -126.406 458.561 -126.204 482.111 -125.156C577.742 -120.909 645.137 -104.767 688.688 -75.701C698.21 -69.3399 704.644 -64.0451 712.917 -55.7352C724.315 -44.2999 731.852 -33.7839 738.985 -19.3887C748.269 -0.636292 754.115 21.2599 756.67 46.8698C757.865 58.9117 757.957 61.6878 757.957 82.3889C757.939 104.34 757.755 109.249 756.045 130.649C754.574 149.181 752.791 165.947 747.625 210.126C745.879 225.036 743.949 241.784 743.342 247.392C734.316 329.681 733.121 380.681 738.562 451.425C740.364 474.718 742.11 492.294 747.938 545.72C753.931 600.672 755.806 625.234 756.119 653.546C756.302 669.798 756.027 679.597 755.071 691.143C752.24 725.283 744.169 753.118 730.584 775.565C712.384 805.606 684.128 827.631 643.482 843.423C605.741 858.094 554.45 867.415 492.792 870.798C462.054 872.49 428.651 872.912 406.462 871.901C310.261 867.507 217.883 835.536 139.697 779.592C101.698 752.401 67.0452 719.363 37.8152 682.484C25.9945 667.574 12.9973 648.876 3.32749 632.955C0.0919759 627.587 5.7904e-05 627.477 5.7904e-05 628.745C5.7904e-05 630.161 0.77217 631.54 7.26159 641.743C38.955 691.566 80.263 736.443 127.104 771.925C153.393 791.836 178.413 807.334 208.011 822.005C265.846 850.667 328.35 867.709 392.766 872.361C415.838 874.034 450.454 874.089 483.876 872.526C569.525 868.518 632.47 854.472 675.635 829.708C719.259 804.687 744.316 767.862 753.343 715.521C756.56 696.861 757.681 679.744 757.406 653.693C757.093 624.866 755.42 602.694 749.354 546.823C745.07 507.425 744.39 500.972 743.158 488.525C737.864 435.007 735.86 393.862 736.742 357.02C737.753 314.624 740.493 281.679 748.912 210.254C757.883 134.179 759.685 111.087 759.317 76.6529C759.134 60.1803 759.005 57.2939 757.975 46.6859C752.313 -11.2994 729.499 -51.3229 686.5 -78.7345C651.718 -100.906 603.516 -115.044 538.034 -122.288C519.871 -124.292 499.557 -125.726 474.334 -126.792C466.65 -127.105 415.727 -127.454 411.223 -127.233Z" fill="black"/>
<path d="M410.745 -113.684C312.54 -109.897 218.765 -76.9512 139.826 -18.5062C116.644 -1.33495 92.9661 19.7707 73.7368 40.4718C48.6983 67.4054 27.2446 96.1774 9.02642 127.284C2.18771 138.977 5.7904e-05 143.169 5.7904e-05 144.676C5.7904e-05 146.018 0.202278 145.724 4.28344 138.334C22.9612 104.634 44.4701 74.6857 70.9425 45.5092C77.3584 38.4311 95.0986 20.6899 102.176 14.2737C129.623 -10.6192 157.787 -31.1549 189.039 -49.0432C252.352 -85.261 323.644 -106.771 396.572 -111.643C431.537 -113.978 486.394 -112.599 529.081 -108.297C585.022 -102.671 627.893 -91.9531 661.278 -75.2965C679.367 -66.2697 692.567 -56.967 705.086 -44.4286C716.631 -32.8831 725.381 -20.3079 732.275 -5.43472C747.442 27.3268 752.166 68.821 747.754 130.134C746.265 150.651 744.702 165.819 739.003 214.556C737.257 229.466 735.345 246.215 734.72 251.822C724.738 343.176 724.48 396.381 733.58 487.551C734.978 501.468 735.694 508.197 738.82 536.932C745.419 597.289 747.313 623.101 747.313 652.094C747.313 669.669 746.688 681.197 745.015 694.617C740.309 732.269 728.396 761.28 708.211 784.298C704.571 788.434 696.482 796.377 692.475 799.723C662.233 824.983 618.609 841.603 558.311 850.869C521.213 856.568 472.882 859.565 426.022 859.05C405.451 858.83 395.119 858.26 377.765 856.421C321.254 850.409 267.243 834.838 216.118 809.798C174.681 789.519 137.657 764.314 102.507 732.453C95.4111 726.037 77.0458 707.652 70.6116 700.537C43.5876 670.717 21.3067 639.408 2.44508 604.79C5.79357e-05 600.322 5.7904e-05 600.322 5.7904e-05 601.738C5.7904e-05 602.951 0.5148 604.073 3.5481 609.552C21.5089 641.89 42.6501 671.434 68.4239 700.188C74.7479 707.229 94.2897 726.864 101.441 733.372C167.732 793.472 246.819 833.569 333.497 850.998C355.815 855.484 377.71 858.223 404.219 859.859C412.841 860.392 456.227 860.374 469.996 859.841C527.022 857.616 568.459 852.303 606.2 842.412C656.369 829.249 692.695 807.702 715.399 777.643C739.849 745.267 750.07 703.093 748.545 640.787C747.883 613.412 746.063 591.057 739.959 535.185C732.477 466.702 730.345 441.424 728.764 403.147C728.268 391.141 728.268 355.641 728.764 344.058C730.437 304.807 732.68 279.877 740.585 212.019C748.765 141.9 750.512 120.243 750.512 89.3751C750.512 75.5131 750.236 68.2143 749.298 57.9924C744.316 2.98546 724.609 -34.6664 686.573 -61.839C644.034 -92.2472 576.235 -108.959 478.894 -113.059C457.458 -113.96 425.655 -114.254 410.745 -113.684Z" fill="black"/>
<path d="M414.422 -100.336C329.784 -97.4685 249.687 -73.1455 178.744 -28.7465C114.365 11.5344 61.144 66.0082 22.0972 131.568C16.3063 141.293 11.4531 150.21 5.5703 161.958C0.459652 172.143 6.18156e-05 173.209 0.0184454 174.699L0.0368291 176.316L0.551571 175.195C2.83114 170.286 11.0302 153.942 13.4017 149.548C34.3774 110.812 59.2689 76.7632 89.6938 45.1967C135.138 -1.94162 189.682 -39.0787 250.054 -63.9348C297.024 -83.2755 347.046 -94.8578 398.484 -98.259C425.011 -100.024 467.863 -99.4356 504.557 -96.825C618.113 -88.7173 685.47 -60.4785 717.164 -7.65926C735.97 23.6683 743.14 66.2472 739.629 125.648C738.158 150.504 736.595 165.947 728.819 232.518C718.782 318.393 716.778 364.704 720.363 426.348C721.87 452.105 724.168 477.035 729.738 528.126C734.242 569.344 735.915 586.994 737.202 606.647C740.952 663.639 736.963 702.854 724.26 734.218C704.81 782.202 663.465 812.849 595.317 829.763C564.892 837.32 529.357 842.155 487.644 844.434C459.168 845.997 420.673 846.273 401.48 845.078C349.693 841.842 301.142 830.995 254.007 812.096C190.179 786.504 133.502 747.823 85.6678 697.191C51.8787 661.433 23.3657 619.663 2.11418 574.768L6.18156e-05 570.3L-0.0183218 571.9C-0.0367054 573.315 0.459652 574.474 4.37537 582.416C21.9685 618.064 44.0289 651.561 69.5453 681.325C149.532 774.664 261.489 833.073 383.023 844.876C402.988 846.806 420.636 847.376 447.752 846.953C476.89 846.493 496.891 845.482 520.146 843.276C619.822 833.845 681.297 807.021 712.605 759.332C732.036 729.732 740.824 690.518 739.831 637.993C739.279 609.129 737.606 588.207 730.878 526.342C727.495 495.162 726.503 485.639 725.308 472.825C717.642 390.48 718.138 341.558 727.551 255.26C728.249 248.77 730.253 231.305 731.981 216.395C736.54 177.309 737.845 165.065 739.279 148.059C743.232 101.527 742.386 67.7915 736.577 40.0123C733.635 25.9296 728.837 11.7734 723.23 0.613861C700.913 -43.8771 657.141 -71.9873 586.566 -87.1363C552.998 -94.3431 513.933 -98.5532 466.797 -100.079C452.826 -100.447 423.412 -100.631 414.422 -100.336Z" fill="black"/>
<path d="M407.73 -86.5847C323.423 -82.2643 245.421 -56.8016 176.005 -10.9685C97.9664 40.5638 37.4659 114.636 2.37155 201.595C0.386114 206.504 5.7904e-05 207.717 5.7904e-05 209.243C5.7904e-05 211.045 0.0184414 211.027 3.14366 203.25C24.1561 150.945 52.6875 105.554 91.0725 63.2872C97.5068 56.2091 112.673 41.0418 119.769 34.5887C138.355 17.6932 156.904 3.22446 176.942 -10.0125C241.212 -52.4811 314.746 -77.9072 391.479 -84.2131C405.837 -85.3897 409.771 -85.5 436.225 -85.5C462.054 -85.4817 470.474 -85.2794 489.574 -84.2131C566.216 -79.9111 623.076 -66.4535 660.947 -43.6565C700.398 -19.9035 722.035 14.2185 728.929 63.563C730.804 77.0206 731.466 87.9595 731.448 105.609C731.429 134.252 729.701 155.523 722.091 220.77C718.598 250.682 717.347 261.952 715.914 276.366C708.284 353.048 708.578 401.712 717.164 486.448C717.77 492.496 719.498 508.619 720.987 522.279C725.951 567.855 727.587 585.449 728.801 605.893C730.712 638.158 729.756 665.478 725.933 687.705C718.579 730.449 700.214 761.152 668.429 783.802C633.647 808.584 581.695 823.586 509.631 829.671C472.937 832.76 426.206 833.569 397.509 831.583C299.01 824.781 205.768 786.504 130.891 722.139C109.732 703.938 88.793 682.336 71.6778 661.029C42.4479 624.627 18.88 584.033 2.16933 541.289L0.128743 536.105L0.0368252 537.814C-0.055093 539.322 0.239045 540.26 2.46346 545.738C32.392 619.553 80.2446 683.789 142.363 733.501C187.145 769.351 239.134 796.891 293.531 813.621C330.243 824.91 363.794 830.866 405.469 833.477C413.889 834.01 454.112 833.992 467.735 833.459C497.112 832.319 521.029 830.407 542.28 827.502C633.445 815.037 686.923 785.971 712.347 735.1C728.653 702.449 733.819 661.359 729.554 598.318C728.249 579.106 726.723 563.185 721.925 519.154C718.395 486.687 716.796 470.673 715.27 452.105C712.402 417.487 711.244 385.644 711.888 358.674C712.77 321.114 715.178 291.276 722.109 231.82C728.8 174.423 730.418 158.446 731.779 136.569C734.885 86.5806 731.08 51.0246 719.498 21.7378C717.274 16.0937 712.035 5.76154 708.799 0.55867C683.338 -40.2002 636.147 -65.332 561.712 -77.7969C535.754 -82.1356 510.017 -84.5992 473.158 -86.2722C463.598 -86.7686 414.9 -86.9524 407.73 -86.5847Z" fill="black"/>
<path d="M414.422 -73.3477C324.159 -70.0569 240.035 -41.2113 167.236 11.4424C137.859 32.6768 109.493 59.2426 85.9987 87.4815C47.9446 133.223 19.3396 186.097 2.05903 242.685C0.294203 248.458 6.48461e-05 249.745 0.0184485 251.749L0.0368321 254.084L0.661876 251.859C24.2297 168.337 72.9095 92.3719 139.513 35.1219C210.493 -25.8601 298.624 -62.8685 391.479 -70.6636C407.161 -71.9873 411.426 -72.116 435.6 -72.0976C467.735 -72.0608 490.806 -71.068 516.819 -68.6045C619.841 -58.7871 678.834 -30.2724 705.362 22.5468C713.469 38.6702 718.892 58.8382 721.153 81.2491C722.33 92.8682 722.587 98.8984 722.569 114.066C722.513 141.091 720.785 162.969 714.296 218.546C709.296 261.364 707.88 274.344 706.226 292.765C703.358 324.644 702.292 346.54 702.292 373.676C702.292 413.92 704.461 444.77 712.402 517.665C719.168 579.695 720.859 602.161 720.859 629.278C720.859 645.365 720.344 655.054 718.782 667.886C714.204 705.575 701.961 733.63 680.397 755.747C662.987 773.617 640.431 786.982 610.649 797.075C565.628 812.335 504.098 819.817 428.412 819.229C408.025 819.063 401.866 818.806 388.318 817.556C321.456 811.36 257.886 790.549 200.474 756.096C131.608 714.767 74.9501 655.311 36.7857 584.401C22.3546 557.596 9.54117 526.232 1.56267 498.232L0.165518 493.324L0.0735994 495.456C-0.0367024 497.938 1.25015 502.497 6.0299 516.709C36.418 607.143 96.0913 686.492 174.792 741.094C231.542 780.474 295.958 805.974 363.941 815.938C378.721 818.107 394.108 819.56 409.973 820.295C419.331 820.737 460.528 820.516 472.092 819.983C520.422 817.721 553.936 813.493 586.07 805.606C644.898 791.156 682.621 765.711 703.137 726.607C711.483 710.704 717.421 690.389 720.05 668.658C721.76 654.594 722.256 643.214 722.036 623.91C721.723 596.682 720.271 578.095 713.855 519.099C708.266 467.75 706.207 445.137 704.773 418.921C702.622 379.614 703.082 347.79 706.373 306.149C708.009 285.521 710.013 266.273 715.087 222.848C718.506 193.469 718.966 189.351 720.197 176.978C724.867 129.969 725.198 98.6411 721.319 71.6891C714.241 22.5284 692.181 -11.1891 651.957 -34.2987C625.669 -49.4109 590.74 -60.0372 546.49 -66.3983C512.922 -71.2335 473.489 -73.6787 431.795 -73.4948C423.522 -73.4764 415.727 -73.4029 414.422 -73.3477Z" fill="black"/>
<path d="M413.963 -59.835C338.369 -57.1692 265.165 -34.9238 201.301 4.73201C137.785 44.1855 86.2744 98.3836 49.691 164.238C45.1319 172.437 36.8776 189.094 32.9435 198.01C17.538 232.941 6.89391 269.214 1.08468 306.645C0.183886 312.51 4.95538e-05 314.441 0.0368168 318.43C0.0552004 321.077 0.147119 322.861 0.220653 322.419C0.294188 321.978 0.698627 318.908 1.13983 315.562C2.22447 307.344 3.89738 297.251 5.60706 288.647C24.6893 193.12 75.5568 106.969 150.378 43.4869C199.757 1.60661 258.198 -28.7649 320.831 -45.0353C348.829 -52.3157 375.688 -56.4155 407.878 -58.3458C421.941 -59.1915 460.62 -58.7503 484.17 -57.4634C569.672 -52.8304 627.194 -36.9093 663.888 -7.69603C669.017 -3.61462 679.257 6.53372 683.081 11.3321C708.211 42.8802 717.072 84.9444 712.733 151.975C711.483 171.169 709.847 187.66 705.251 227.003C701.703 257.338 700.674 266.585 699.221 280.999C692.328 349.261 692.217 394.984 698.743 464.478C700.012 477.972 700.949 487.054 703.652 511.947C706.078 534.285 707.568 548.533 708.56 559.086C714.48 621.391 712.954 659.926 703.284 691.915C687.456 744.293 646.773 776.448 575.61 792.865C542.133 800.587 503.344 804.779 454.241 805.974C421.022 806.782 399.256 805.9 374.603 802.775C300.389 793.325 229.887 764.682 170.141 719.713C130.928 690.187 96.7163 653.969 69.5637 613.265C42.503 572.672 22.1523 526.784 10.35 479.756C5.93796 462.18 3.05173 446.718 0.386106 426.422C0.110351 424.363 0.0919677 424.546 0.0368168 428.977C4.95538e-05 432.967 0.165502 434.897 1.08468 440.762C9.72499 496.32 28.8623 549.066 57.8901 597.326C99.1062 665.845 158.596 721.79 229.501 758.725C282.06 786.1 338.847 802.113 398.649 806.415C423.283 808.18 462.514 807.739 496.597 805.293C590.023 798.601 649.402 776.65 681.242 736.994C704.92 707.524 714.719 668.861 713.175 611.004C712.531 586.755 711.06 568.646 705.692 518.933C704.369 506.763 702.733 491.412 702.052 484.848C694.056 408.147 693.228 362.719 698.743 299.77C700.343 281.366 701.942 266.383 706.207 229.853C710.252 195.124 711.851 180.03 713.027 165.506C716.723 119.894 715.454 88.6581 708.873 62.129C703.872 41.9978 695.949 25.4516 684.11 10.5232C680.231 5.61449 670.028 -4.589 665.212 -8.41302C660.266 -12.329 654.972 -16.0795 650.137 -19.0762C614.657 -41.1194 562.19 -53.9887 489.924 -58.4194C465.382 -59.9085 433.21 -60.5152 413.963 -59.835Z" fill="black"/>
<path d="M411.701 -46.2671C410.819 -46.212 407.4 -46.0281 404.054 -45.8443C345.888 -42.627 286.564 -26.1727 234.759 1.11023C155.673 42.7516 92.3227 107.558 52.8714 187.163C17.6484 258.294 3.41943 337.237 11.4715 417.009C23.7517 538.568 89.1239 649.299 190.013 719.382C249.926 761.005 318.184 785.805 391.479 792.589C411.426 794.428 447.605 794.704 477.166 793.215C595.023 787.295 660.45 759.368 687.879 703.24C697.089 684.396 702.016 663.511 704.02 634.757C704.534 627.44 704.534 601.72 704.02 592.233C702.788 569.16 701.152 551.456 695.379 498.581C689.11 441.185 687.015 409.875 687.015 374.191C687.015 335.234 689.221 305.983 697.457 235.625C703.119 187.182 704.957 167.492 705.876 144.989C708.45 82.1316 696.684 41.4462 667.528 12.3065C660.358 5.13646 653.134 -0.636337 644.493 -6.0782C605.741 -30.5666 547.538 -43.3624 462.348 -46.1384C453.91 -46.451 415.875 -46.5245 411.701 -46.2671ZM462.201 -44.9067C554.377 -41.818 614.932 -27.147 652.84 1.29407C673.521 16.8107 687.474 36.3169 695.71 61.1914C704.939 89.1177 707.053 123.626 702.696 174.588C701.372 189.921 700.251 200.511 696.023 236.857C691.923 272.082 690.379 286.643 688.871 304.549C684.809 352.552 684.662 390.755 688.393 439.144C689.809 457.639 691.923 478.763 696.354 519.411C698.468 538.77 699.975 553.883 700.95 565.759C704.994 614.626 703.817 646.394 696.96 674.027C683.393 728.758 645.468 761.703 576.419 778.709C546.251 786.136 514.117 790.218 469.702 792.258C457.66 792.81 421.463 793.031 411.885 792.589C366.772 790.586 324.342 782 282.887 766.52C202.275 736.406 132.583 681.748 83.425 610.029C60.0778 575.981 40.7382 535.682 28.8256 496.339C12.3171 441.754 7.00424 385.902 12.9421 329.387C19.7625 264.618 41.6022 202.478 76.8804 147.471C103.776 105.517 139.311 67.4054 179.351 37.567C226.633 2.32361 280.994 -22.6428 338.149 -35.365C361.275 -40.5127 388.354 -44.0793 411.26 -45.017C417.456 -45.256 453.855 -45.1824 462.201 -44.9067Z" fill="black"/>
<path d="M414.422 -32.9014C413.282 -32.8463 409.55 -32.6441 406.131 -32.4602C342.671 -29.0407 279.964 -10.2148 224.887 21.9401C200.896 35.9492 179.424 51.6129 157.198 71.3397C151.205 76.6529 131.811 96.1223 126.259 102.41C112.269 118.221 101.275 132.506 89.9695 149.585C52.3198 206.449 29.7815 271.42 24.0826 339.591C23.0347 352.037 22.8141 358.325 22.8141 373.988C22.8141 392.722 23.3656 403.202 25.1856 419.693C39.1572 545.426 111.625 658.013 220.677 723.408C275.791 756.464 337.321 775.694 402.142 780.125C422.566 781.522 457.274 781.191 486.872 779.334C524.871 776.944 557.153 771.851 583.864 764.056C610.373 756.316 630.43 746.481 647.729 732.729C652.508 728.923 661.829 719.639 665.524 715.006C678.503 698.717 686.849 679.91 691.5 656.396C694.625 640.658 695.894 623.266 695.563 601.131C695.195 576.698 693.872 559.913 688.026 505.88C681.242 443.188 679.422 419.785 678.815 387.281C678.043 345.952 680.213 314.054 688.816 240.203C693.816 197.33 695.342 181.666 696.684 159.936C697.217 151.111 697.236 123.129 696.684 116.29C695.25 97.9975 692.53 83.3265 688.154 70.1999C673.043 24.9184 637.213 -3.52274 575.959 -18.9107C546.6 -26.283 513.4 -30.4931 468.709 -32.4786C461.631 -32.7912 418.595 -33.1404 414.422 -32.9014ZM468.562 -31.2101C509.649 -29.3348 539.394 -25.8601 566.822 -19.738C614.693 -9.03813 647.655 8.85017 668.318 35.3793C681.26 51.999 689.607 72.8656 693.412 98.1262C695.011 108.734 695.655 117.559 695.894 131.899C696.28 156.479 694.533 180.104 688.485 231.893C680.36 301.498 678.246 326.317 677.565 360.807C676.812 398.55 678.944 434.07 685.691 496.008C691.188 546.492 692.474 560.299 693.835 583.445C694.368 592.362 694.368 620.711 693.835 627.568C691.684 655.789 686.959 675.24 677.859 693.349C657.582 733.666 616.973 758.284 550.443 770.583C517.646 776.632 479.923 779.591 434.332 779.647C415.47 779.665 409.606 779.481 396.259 778.396C272.096 768.303 159.699 701.585 90.7048 596.995C41.4919 522.39 18.4756 433.831 25.0202 344.224C30.1124 274.362 53.0919 207.276 91.7711 149.199C114.695 114.801 143.631 83.1795 176.005 57.1651C231.358 12.6926 297.649 -16.4655 367.764 -27.1654C383.17 -29.5187 395.322 -30.6769 414.588 -31.6329C419.11 -31.8535 461.631 -31.5226 468.562 -31.2101Z" fill="black"/>
<path d="M417.603 -19.5358C396.388 -18.6717 380.339 -17.0539 362.268 -13.9652C274.67 1.01828 194.223 45.9321 134.899 112.963C122.545 126.917 112.728 139.694 101.956 155.799C67.5415 207.294 45.8856 266.107 38.716 327.494C36.7305 344.463 36.179 354.666 36.1606 373.841C36.1423 390.369 36.3996 396.528 37.5946 409.839C42.9442 469.056 61.4014 525.68 91.8814 576.441C105.522 599.146 121.387 620.454 139.33 640.144C148.301 649.998 162.953 664.117 174.222 673.806C227.534 719.565 294.248 750.727 363.591 762.291C387.196 766.226 406.462 767.733 433.357 767.715C522.867 767.697 587.155 755.434 626.698 730.854C653.115 714.418 670.414 691.841 679.091 662.407C684.22 645.015 686.353 628.543 686.665 603.944C686.996 577.599 685.636 558.46 679.422 501.394C674.275 454.182 672.786 437.232 671.113 407.099C670.58 397.337 670.377 361.487 670.8 350.53C671.958 320.838 673.925 298.74 680.231 244.652C687.088 185.913 688.632 165.653 688.246 139.841C687.971 121.181 686.812 109.892 683.706 95.3685C679.496 75.752 671.554 58.4337 660.138 44.112C656.553 39.6261 647.49 30.5441 642.967 26.9407C607.432 -1.37173 552.318 -15.6566 465.235 -19.1313C457.127 -19.4255 422.566 -19.738 417.603 -19.5358ZM464.904 -17.8444C551.454 -14.4432 606.807 -0.139954 641.846 27.8415C646.81 31.8126 655.487 40.4351 659.2 45.0864C672.657 61.9819 680.893 82.297 684.661 107.833C686.573 120.85 687.235 132.91 686.996 150.192C686.647 174.901 685.231 190.877 677.86 253.881C671.499 308.318 669.605 333.597 669.311 368.216C668.98 407.982 670.506 431.128 678.154 501.725C684.514 560.501 685.728 577.801 685.397 603.981C685.213 617.714 685.029 621.226 683.871 631.54C678.099 683.109 655.229 716.513 611.109 737.803C583.625 751.058 546.858 759.644 500.108 763.725C478.269 765.637 462.293 766.263 435.122 766.281C411.775 766.299 408.337 766.171 393.557 764.828C344.472 760.379 297.098 746.811 252.922 724.529C193.322 694.452 141.903 649.134 104.419 593.63C67.3025 538.678 44.7458 475.38 38.8814 409.673C37.6313 395.756 37.4291 390.663 37.4475 373.676C37.4659 353.416 38.1461 342.091 40.4624 323.817C52.8897 225.698 102.654 135.484 179.498 71.6523C217.276 40.288 260.827 16.2408 307.54 0.981506C342.101 -10.3251 376.791 -16.5391 414.22 -18.1569C421.61 -18.4695 453.873 -18.2673 464.904 -17.8444Z" fill="black"/>
<path d="M422.548 -6.15172C372.25 -5.34279 322.155 5.66965 275.865 26.0766C268.511 29.3123 252.223 37.42 245.293 41.2808C227.203 51.3556 207.992 64.28 191.778 77.2596C139.458 119.177 98.5731 175.103 74.6192 237.482C57.8349 281.219 49.3969 326.924 49.3969 374.136C49.3969 464.864 81.0718 551.199 139.697 620.38C151.867 634.72 167.787 650.733 182.531 663.4C239.208 712.138 310.261 743.227 384.806 751.923C401.866 753.908 412.51 754.46 433.854 754.423C511.506 754.313 568.312 745.028 606.66 726.147C646.938 706.31 668.337 676.509 675.415 630.418C677.235 618.597 677.915 608.081 677.933 592.031C677.952 567.965 676.683 550.812 671.021 498.545C663.925 433.15 662.252 409.379 662.252 374.338C662.252 338.598 664.035 314.569 671.481 250.554C677.952 194.866 679.422 176.702 679.441 153.005C679.459 124.012 676.168 102.943 668.723 84.0987C662.951 69.5013 655.138 57.5145 644.42 46.7962C612.708 15.0826 557.778 -1.3533 470.014 -5.41632C463.139 -5.72887 429.865 -6.42749 428.118 -6.2988C427.677 -6.26202 425.177 -6.18849 422.548 -6.15172ZM460.767 -4.40517C519.852 -2.62186 567.006 5.48579 599.968 19.5133C641.662 37.2545 665.248 64.997 673.999 106.583C676.885 120.317 678.172 134.528 678.172 152.894C678.172 175.581 676.573 195.731 670.984 243.549C664.384 300.027 662.362 322.291 661.259 351.228C660.836 362.149 661.057 396.969 661.59 406.824C663.079 433.849 664.918 454.642 669.716 498.563C672.198 521.305 673.815 537.392 674.679 547.944C678.816 598.594 676.738 630.804 667.638 657.425C662.785 671.637 656.369 683.109 647.214 693.992C643.96 697.853 636.129 705.446 631.827 708.884C623.849 715.282 613.002 721.9 602.689 726.644C573.404 740.101 534.081 748.393 484.188 751.628C455.528 753.485 422.198 753.761 402.013 752.272C323.589 746.536 249.925 717.12 189.388 667.39C159.092 642.497 131.792 611.886 110.945 579.419C65.9605 509.355 45.4076 427.727 51.7867 344.518C56.2723 286.165 74.3802 229.485 104.75 178.872C107.728 173.908 113.74 164.477 115.799 161.535C116.368 160.726 118.023 158.354 119.494 156.24C128.06 143.978 139.348 129.913 150.194 118.018C158.54 108.863 173.486 94.3942 183.34 85.974C235.494 41.3176 299.065 11.5527 366.184 0.356461C395.358 -4.47871 418.945 -5.67371 460.767 -4.40517Z" fill="black"/>
<path d="M414.422 7.54491C399.035 8.37222 389.255 9.27306 377.784 10.8725C264.669 26.7385 165.14 95.1479 108.96 195.639C105.265 202.239 97.0288 218.73 94.161 225.238C76.7149 264.894 66.7142 305.193 63.5339 348.838C62.4309 363.84 62.5963 388.273 63.8832 404.103C68.9938 466.611 89.4916 525.754 123.961 577.397C138.576 599.274 151.555 615.122 170.251 633.819C180.509 644.078 185.509 648.693 194.94 656.543C248.749 701.383 314.268 729.879 383.188 738.428C398.906 740.377 408.411 740.984 426.353 741.204C462.569 741.645 499.52 739.311 528.768 734.733C603.332 723.04 644.787 695.445 660.744 646.854C669.385 620.546 671.205 589.328 666.995 539.818C666.076 529.027 664.789 516.212 662.233 492.68C657.527 449.2 655.946 431.202 654.512 404.912C653.961 394.818 653.979 354.372 654.512 344.555C655.891 319.901 657.766 298.997 661.608 265.868C665.763 229.871 666.388 224.429 667.307 215.218C669.826 190.05 670.341 180.784 670.341 160.745C670.322 142.93 670.083 138.37 668.557 127.45C659.292 60.8421 616.385 26.4076 526.378 13.2809C508.896 10.7254 490.604 9.0892 467.459 7.96774C460.767 7.63683 418.724 7.30591 414.422 7.54491ZM467.293 9.2363C501.119 10.9277 524.706 13.5935 548.034 18.3735C582.945 25.5251 609.73 36.9788 628.591 52.7712C632.856 56.3379 639.989 63.4895 643.004 67.24C655.928 83.2163 664.053 103.587 667.307 128.112C668.594 137.819 668.962 143.408 669.127 156.59C669.458 181.06 668.135 198.507 661.903 251.988C656.534 298.023 654.953 314.698 653.281 343.249C652.729 352.589 652.527 385.608 652.95 396.933C653.942 423.535 655.726 444.88 661.112 494.408C667.712 555.133 669.054 579.805 667.142 605.268C664.697 637.827 656.479 661.599 640.927 681.086C637.507 685.37 629.308 693.478 624.602 697.228C603.001 714.454 573.385 725.89 532.427 732.802C502.737 737.821 464.26 740.395 426.519 739.917C408.742 739.697 399.164 739.072 383.519 737.123C314.691 728.592 249.447 700.188 195.712 655.385C179.479 641.853 162.033 624.406 148.503 608.154C120.082 574.051 97.7458 534.248 83.4066 492.165C74.2699 465.342 68.2768 437.379 65.6112 409.03C64.3611 395.774 64.1773 391.215 64.1773 374.301C64.1773 354.813 64.692 345.805 66.751 329.075C73.9206 270.611 95.8891 213.288 129.494 165.267C159.11 122.946 197.679 86.8564 241.156 60.7318C291.711 30.3603 348.627 12.6926 406.922 9.25467C410.084 9.07082 413.521 8.86859 414.569 8.79506C418.448 8.59283 460.988 8.90538 467.293 9.2363Z" fill="black"/>
<path d="M413.779 21.0576C372.048 23.0616 332.027 31.8862 294.781 47.2926C195.326 88.4191 119.733 172.786 89.9327 275.888C82.855 300.395 78.7739 323.67 76.6965 351.541C76.145 358.95 76.145 389.487 76.7149 397.098C79.1232 429.97 84.5096 457.455 94.2897 486.779C109.475 532.336 133.814 574.161 166.28 610.544C171.795 616.721 185.417 630.4 191.943 636.338C248.326 687.521 318.717 718.848 394.053 726.313C407.951 727.691 410.396 727.783 435.14 727.783C459.664 727.783 466.374 727.581 483.875 726.331C535.791 722.617 575.003 713.112 601.898 697.706C627.065 683.274 643.023 664.228 651.957 637.956C655.965 626.19 658.336 613.651 659.788 596.535C660.321 590.248 660.321 562.983 659.788 554.489C658.63 536.215 657.362 522.353 653.814 489.665C649.052 445.744 647.747 430.797 646.258 404.139C645.706 394.304 645.706 354.666 646.258 345.216C647.894 317.106 649.291 302.527 655.395 249.965C658.851 220.219 660.542 202.092 661.333 185.84C661.755 177.309 661.553 152.949 661.002 147.232C658.097 116.842 650.688 96.1039 636.165 77.7928C632.985 73.7665 625.007 65.8611 620.686 62.4048C589.416 37.4935 540.865 24.7713 464.131 21.4069C453.855 20.9105 420.985 20.7083 413.779 21.0576ZM453.432 22.3262C528.511 24.422 578.753 35.5632 611.421 57.3122C620.208 63.1586 629.437 71.5052 635.448 79.0245C647.526 94.1367 655.192 113.33 658.373 136.532C659.733 146.386 660.027 151.001 660.211 164.569C660.505 186.612 659.292 204.39 654.917 242.612C654.053 250.131 652.564 263.129 651.608 271.439C648.078 302.141 646.423 320.507 645.026 344.224C644.475 353.545 644.273 385.405 644.695 396.307C645.743 423.664 647.104 439.622 653.611 500.163C656.222 524.467 657.417 537.906 658.483 554.802C659.016 563.204 659.016 589.586 658.483 596.057C656.277 623.064 650.762 642.681 640.706 659.19C616.697 698.625 566.381 719.51 481.614 725.191C465.326 726.276 458.745 726.46 435.269 726.478C410.709 726.496 408.447 726.405 394.366 725.044C323.147 718.095 255.441 689.194 200.823 642.405C186.355 630.014 171.133 614.607 159.11 600.175C140.763 578.169 126.535 556.309 113.721 530.405C95.4111 493.452 84.0684 454.716 79.4725 413.497C77.8179 398.569 77.5422 393.237 77.5422 374.632C77.5422 354.721 78.0385 346.172 80.1159 329.718C91.0725 243.071 134.053 163.594 200.915 106.307C249.227 64.9235 308.643 37.1994 371.386 26.7936C386.111 24.3485 402.197 22.749 417.566 22.2159C424 21.9769 443.468 22.0504 453.432 22.3262Z" fill="black"/>
<path d="M417.437 34.4601C322.32 37.6406 233.123 80.6424 171.023 153.244C127.564 204.04 99.9518 266.714 91.9366 332.752C89.9511 349.077 89.3813 360.402 89.6019 379.099C89.7673 393.109 90.135 399.911 91.2564 410.629C99.529 488.672 134.256 560.924 190.142 616.391C246.212 672.023 319.912 706.384 398.3 713.407C413.264 714.749 430.949 715.135 451.336 714.565C501.891 713.149 537.666 707.965 568.017 697.669C575.83 695.022 580.739 693 587.835 689.525C600.74 683.201 610.594 676.325 619.4 667.537C636.809 650.145 646.644 627.605 650.1 597.05C651.222 587.233 651.479 579.915 651.295 564.362C651.038 542.852 649.898 528.365 645.008 483.745C641.037 447.619 639.327 428.223 637.985 404.434C637.434 394.745 637.25 364.557 637.673 354.096C638.776 326.832 640.265 310.616 647.104 251.675C652.839 202.276 654.09 176.427 651.884 153.372C650.542 139.326 647.821 126.88 643.684 116.015C640.247 106.932 634.235 96.3797 628.279 88.8971C625.246 85.1099 617.469 77.4251 613.333 74.1158C589.857 55.4186 555.608 43.8362 506.782 38.1186C488.747 36.0044 471.834 34.938 447.862 34.4233C432.217 34.0924 428.247 34.0924 417.437 34.4601ZM447.862 35.6918C479.261 36.3721 503.16 38.3392 525.901 42.0713C577.191 50.5283 610.52 66.9458 629.97 93.3462C645.927 115.022 652.821 144.823 651.424 186.171C650.744 206.191 649.475 220.421 644.585 262.338C639.897 302.601 638.151 321.004 636.754 345.161C636.202 354.776 635.982 384.983 636.404 395.811C637.324 419.766 639.033 440.412 643.482 481.19C649.236 534.046 649.99 544.268 649.99 568.627C649.99 586.938 649.769 591.148 648.225 601.922C643.445 635.308 630.669 658.583 607.561 676.031C586.732 691.75 555.958 702.596 516.047 708.314C480.695 713.37 430.085 715.006 398.355 712.138C325.059 705.501 255.753 674.872 201.338 625.105C189.425 614.203 175.968 599.918 166.004 587.6C126.296 538.458 101.349 479.958 93.3705 417.34C90.4843 394.653 89.9695 368.988 91.9366 345.345C101.11 235.386 164.57 135.852 260.882 80.4034C308.661 52.8999 362.654 37.5303 417.915 35.7286C428.578 35.3609 432.64 35.3609 447.862 35.6918Z" fill="black"/>
<path d="M411.554 48.1566C367.562 50.5099 324.379 61.8165 285.093 81.2859C270.791 88.364 261.709 93.6036 248.62 102.318C211.614 126.953 180.601 158.152 156.224 195.308C124.476 243.696 106.588 298.133 103.224 356.615C102.801 363.951 102.801 385.35 103.224 392.667C104.952 422.671 110.302 450.726 119.604 478.653C137.804 533.255 171.188 583.261 214.794 621.226C264.026 664.099 324.122 691.014 388.612 699.067C403.355 700.905 414.036 701.475 433.523 701.475C512.591 701.457 566.951 690.095 599.251 666.857C606.678 661.525 614.693 653.859 619.639 647.387C638.077 623.285 644.677 592.344 642.122 542.208C641.442 528.843 640.081 513.473 637.36 488.047C631.79 436.276 630.43 420.355 629.437 395.977C629.033 385.883 629.033 363.528 629.437 353.765C630.485 328.817 632.103 311.168 637.857 261.695C642.6 220.954 643.868 204.721 643.868 184.442C643.887 169.477 643.225 160.45 641.331 149.401C635.173 113.367 617.047 88.7317 584.912 72.6635C558.237 59.3345 520.918 51.4107 472.055 48.7266C454.866 47.8073 423.706 47.4948 411.554 48.1566ZM465.86 49.701C495.512 51.2637 517.701 53.8927 537.464 58.1763C598.056 71.303 629.474 98.1078 639.144 144.934C643.059 163.925 643.684 186.023 641.184 216.965C640.081 230.57 639.291 237.887 634.842 276.366C629.106 325.802 627.58 349.132 627.911 381.011C628.224 409.857 629.547 427.672 635.301 481.043C636.423 491.467 637.71 503.656 638.151 508.123C642.085 547.816 642.398 572.727 639.254 594.292C636.184 615.38 629.253 632.771 618.241 647.02C615.208 650.935 606.88 659.282 602.67 662.61C570.499 688.036 515.679 700.225 433.504 700.225C417.511 700.225 410.635 699.967 399.256 698.92C302.429 690.095 214.721 638.085 159.717 556.898C126.792 508.234 107.857 451.848 104.493 392.355C104.07 385.019 104.07 364.263 104.493 356.928C107.011 312.4 118.005 270.317 137.473 230.809C166.905 171.04 214.555 121.162 272.831 89.081C278.457 85.9739 292.447 79.0613 298.311 76.4875C332.725 61.3201 370.835 52.0174 407.73 49.7377C410.782 49.5539 414.018 49.3517 414.9 49.2781C418.228 49.0391 459.811 49.37 465.86 49.701Z" fill="black"/>
<path d="M417.29 61.3936C385.56 62.7725 357.267 68.0121 328.093 77.9031C288.697 91.2871 252.076 112.779 219.942 141.422C214.629 146.165 201.246 159.531 196.503 164.863C162.107 203.452 138.227 248.109 125.799 297.067C119.144 323.265 116.185 347.055 116.185 374.466C116.166 405.151 119.916 432.25 128.207 461.426C146.462 525.717 186.41 584.089 239.851 624.517C288.292 661.157 343.057 682.153 403.576 687.282C422.732 688.9 454.48 688.587 481.817 686.473C546.858 681.472 588.423 665.662 610.943 637.386C628.463 615.398 635.504 585.173 633.573 540.26C632.857 523.732 631.864 512.297 628.003 476.391C623.94 438.647 622.727 424.988 621.404 402.172C620.852 392.814 620.852 357.314 621.385 348.176C622.782 324.479 624.271 309.035 629.106 267.431C633.095 233.051 634.235 220.164 634.897 202.036C635.779 177.217 633.518 156.829 628.022 140.393C619.786 115.757 603.535 97.6115 578.514 85.0731C552.888 72.2406 516.966 64.6845 469.536 62.129C454.811 61.3569 427.328 60.9708 417.29 61.3936ZM462.679 63.085C503.711 65.0706 533.18 69.7035 557.851 78.0501C589.012 88.603 609.564 104.653 621.165 127.523C628.757 142.47 632.47 158.814 633.592 182.052C634.529 201.522 633.04 222.627 627.194 272.689C620.797 327.512 619.289 349.427 619.639 381.324C619.951 408.588 621.183 425.374 626.551 475.288C627.599 484.995 628.665 494.978 628.922 497.423C634.272 548.239 633.684 578.555 626.863 602.712C623.242 615.527 617.249 627.44 609.785 636.742C586.622 665.533 543.733 681.141 475.254 685.682C455.859 686.969 423.265 687.411 410.911 686.565C366.386 683.495 328.037 673.218 289.873 654.116C216.394 617.347 159.956 552.485 133.741 474.663C119.457 432.25 114.475 387.832 118.979 342.937C127.16 261.382 167.273 186.557 231.248 133.48C233.619 131.513 238.638 127.597 242.425 124.729C286.417 91.618 339.031 70.6595 393.538 64.5006C399.936 63.7836 411.223 62.8828 416.959 62.6254C421.978 62.4415 455.914 62.7541 462.679 63.085Z" fill="black"/>
<path d="M420.636 74.7593C358.554 76.5794 299.377 97.207 249.907 134.289C237.333 143.72 229.409 150.614 217.552 162.473C205.382 174.643 199.113 181.832 189.627 194.48C156.169 239.045 135.873 291.423 130.8 346.264C129.494 360.384 129.108 380.699 129.936 392.778C131.829 420.778 136.443 444.714 144.771 469.699C156.059 503.601 172.733 534.303 195.105 562.395C225.034 599.973 264.449 630.326 308.533 649.759C339.785 663.529 371.699 671.416 408.08 674.376C419.809 675.332 452.954 675.056 471.779 673.861C563.936 667.996 608.792 642.019 621.109 587.398C624.143 573.977 625.191 561.237 624.896 541.694C624.639 524.504 623.554 510.256 620.209 479.259C615.686 437.471 614.455 423.885 613.168 401.529C612.616 392.189 612.616 358.27 613.149 349.132C614.436 327.218 615.925 311.481 620.043 276.182C624.547 237.519 625.76 223.363 626.146 204.978C626.772 175.802 622.58 153.391 613.278 136.017C593.166 98.4755 548.292 79.9621 466.687 75.4763C453.91 74.8144 431.519 74.4467 420.636 74.7593ZM448.175 76.1565C504.337 77.5721 543.144 84.6502 571.124 98.5858C603.351 114.636 619.584 139.124 623.849 178.081C626.128 198.893 625.043 221.561 619.528 269.03C612.763 327.365 611.256 346.503 611.256 374.944C611.256 401.253 612.91 424.822 617.947 470.674C620.668 495.419 621.973 509.208 623.113 525.46C623.757 534.468 623.646 559.766 622.948 566.715C621.073 585.192 617.892 597.583 611.734 610.195C607.745 618.376 602.321 625.951 595.777 632.496C574.654 653.62 540.773 665.937 489.427 671.177C473.801 672.776 460.731 673.42 439.424 673.641C421.592 673.824 413.816 673.604 402.473 672.611C365.044 669.283 328.552 658.859 294.965 641.89C253.97 621.171 218.269 591.24 190.491 554.269C140.525 487.771 120.652 403.367 135.579 321.114C147.749 254.028 182.917 192.734 234.851 148.059C276.527 112.227 327.063 88.6213 380.964 79.8518C401.977 76.4323 419.901 75.4579 448.175 76.1565Z" fill="black"/>
<path d="M414.735 88.4743C413.76 88.5294 410.047 88.7868 406.444 89.0626C339.049 94.1735 275.203 123.626 226.946 171.867C163.835 234.963 133.87 322.732 145.102 411.567C156.794 503.987 212.974 585.026 295.737 628.892C329.324 646.707 366.735 657.628 405.083 660.826C427.53 662.702 463.948 661.874 490.824 658.896C521.746 655.458 545.056 649.465 563.605 640.144C574.305 634.775 581.327 629.775 588.938 622.163C591.677 619.424 594.931 615.802 596.199 614.111C607.046 599.587 612.745 583.427 615.263 560.189C615.76 555.666 615.852 552.136 615.852 538.679C615.852 528.604 615.704 520.441 615.447 516.856C614.399 502.387 613.186 489.849 609.987 460.158C605.281 416.733 603.994 395.903 604.343 369.374C604.527 355.255 604.748 350.18 605.685 336.888C606.697 322.879 607.91 310.727 611.256 281.771C616.293 238.089 617.102 227.959 617.12 208.508C617.138 192.385 616.421 184.056 614.087 172.823C604.215 125.28 568.808 100.608 497.81 91.7835C477.239 89.228 458.249 88.2169 432.383 88.3088C423.651 88.364 415.691 88.4191 414.735 88.4743ZM456.3 89.8531C529.908 92.7395 573.771 107.135 596.218 135.815C612.745 156.939 618.48 186.207 615.079 232.243C614.271 243.126 613.02 255.628 610.759 274.932C604.564 328.064 602.983 348.599 602.983 375.275C602.983 400.72 604.325 419.619 609.675 469.24C613.866 508.16 614.767 520.514 614.767 538.77C614.767 553.864 613.976 563.424 611.862 574.345C603.001 619.792 571.749 644.574 510.127 654.943C480.052 659.999 434.037 662.021 405.175 659.539C350.263 654.815 298.973 634.867 255.312 601.26C238.693 588.464 222.038 572.267 208.489 555.721C172.99 512.37 150.727 458.466 145.451 403.128C143.686 384.615 143.686 364.704 145.451 347.055C149.698 304.494 162.824 264.673 184.7 228.069C201.613 199.757 224.391 173.559 250.385 152.563C296.657 115.169 352.892 93.4197 412.51 89.8531C418.761 89.5038 446.998 89.4854 456.3 89.8531Z" fill="black"/>
<path d="M417.437 101.858C366.367 104.34 319.838 119.489 278.236 147.177C262.629 157.564 249.889 168.025 236.322 181.593C227.994 189.921 222.791 195.712 216.118 204.059C168.615 263.441 148.154 338.782 158.963 414.453C165.912 463.136 186.042 509.098 217.331 547.705C228.564 561.567 243.51 576.514 257.279 587.655C299.672 621.961 350.227 642.57 404.054 647.461C420.121 648.932 444.038 648.987 466.65 647.626C528.07 643.931 566.804 630.142 587.081 604.716C603.369 584.309 609.252 556.99 606.77 513.197C606.09 501.027 605.097 490.382 602.156 463.062C599.049 434.143 597.762 420.024 596.696 402.981C596.016 391.95 595.905 360.678 596.53 350.732C597.78 330.674 599.012 317.768 602.762 285.117C607.524 243.825 608.167 235.625 608.167 216.156C608.167 199.426 607.487 191.962 604.968 180.637C598.277 150.67 580.463 130.446 549.909 118.184C526.139 108.642 494.998 103.421 453.083 101.95C444.902 101.674 422.493 101.601 417.437 101.858ZM452.642 103.219C519.668 105.609 560.186 117.449 583.221 141.312C596.641 155.229 603.81 172.75 606.366 197.826C607.064 204.665 607.174 226.396 606.549 234.945C605.52 249.083 604.527 259.084 602.174 279.381C596.494 328.247 595.152 344.591 594.821 369.061C594.471 395.186 595.721 414.876 600.759 461.831C604.49 496.688 605.281 505.899 605.906 522.298C606.605 540.646 605.263 557.376 602.027 570.502C595.501 597.013 580.353 615.453 555.112 627.587C532.482 638.471 503.123 644.409 460.289 646.762C450.381 647.295 417.051 647.314 410.433 646.78C373.519 643.784 342.101 635.4 310.739 620.141C283.09 606.702 259.503 589.898 237.608 568.039C215.971 546.455 199.481 523.603 185.95 496.522C169.736 464.055 160.838 431.055 157.952 392.833C157.088 381.379 157.493 360.715 158.835 347.441C166.979 266.622 211.191 193.432 279.211 148.169C319.526 121.346 366.239 105.921 415.066 103.292C421.923 102.888 442.678 102.869 452.642 103.219Z" fill="black"/>
<path d="M417.29 115.334C387.803 116.805 360.429 122.67 333.736 133.223C289.303 150.798 250.459 180.471 221.468 219.024C193.506 256.198 176.078 300.321 171.078 346.577C169.902 357.424 169.663 362.314 169.644 375.11C169.626 388.071 169.902 393.458 171.078 404.103C176.63 454.219 196.448 501.229 228.545 540.443C255.937 573.904 292.042 600.469 332.064 616.593C356.606 626.484 381.093 632.238 408.539 634.591C420.048 635.584 447.844 635.492 465.235 634.426C525.478 630.712 561.785 617.236 580.923 591.516C593.607 574.492 599.086 551.824 598.442 519.264C598.093 502.277 597.505 495.309 592.357 446.957C587.578 402.099 586.658 375.183 588.846 343.433C589.82 329.203 590.905 318.687 595.501 278.443C598.258 254.267 599.159 242.648 599.417 227.959C599.84 202.257 596.806 185.067 589.14 169.753C583.202 157.895 574.838 148.592 563.201 140.852C540.81 125.961 507.609 117.982 458.396 115.665C448.763 115.206 423.927 115.003 417.29 115.334ZM458.212 116.934C503.693 119.121 535.993 126.273 557.631 138.94C575.996 149.695 587.688 164.55 593.424 184.461C596.953 196.686 598.038 206.247 598.038 224.76C598.02 241.435 597.339 250.977 594.049 279.546C590.776 308.116 589.581 319.092 588.828 327.494C586.897 349.151 586.291 363.197 586.548 381.177C586.861 403.202 588.037 419.215 592.174 457.473C596.457 497.037 597.523 512.205 597.155 528.346C596.659 550.702 593.424 566.311 586.364 580.21C570.701 611.041 535.313 627.568 474.298 632.496C452.311 634.279 423.026 634.555 406.922 633.157C351.716 628.322 301.289 606.794 258.97 569.988C253.143 564.932 241.23 553.055 235.88 546.988C188.23 493.011 165.251 422.653 171.869 351.081C173.1 337.863 175.545 323.688 178.873 310.745C193.506 253.697 227.406 203.176 274.982 167.547C314.709 137.8 362.985 120.022 412.492 116.952C415.544 116.768 419.147 116.548 420.452 116.492C424.699 116.272 451.3 116.603 458.212 116.934Z" fill="black"/>
<path d="M415.525 128.884C414.827 128.939 412.124 129.16 409.477 129.344C403.631 129.766 394.053 130.961 387.564 132.064C311.308 144.989 245.146 193.745 209.702 263.147C188.193 305.248 179.296 353.14 184.13 400.628C187.44 433.059 197.146 464.662 212.46 492.809C250.973 563.608 320.702 611.077 399.862 620.362C412.198 621.814 415.856 621.98 433.854 621.961C458.469 621.924 476.062 620.821 494.06 618.137C538.751 611.482 565.388 596.719 578.919 571.109C583.202 563.001 586.162 553.552 587.853 542.503C589.269 533.329 589.453 530.332 589.416 515.587C589.379 497.626 588.901 490.933 584.967 454.274C577.761 387.06 577.614 364.594 584.011 308.061C584.802 301.148 586.07 289.805 586.861 282.892C588.239 270.722 589.159 261.364 589.986 251.032C590.537 244.211 590.537 220.182 589.986 215.2C588.938 205.64 587.559 198.543 585.408 191.851C574.047 156.314 543.163 137.856 483.839 131.127C479.298 130.612 470.842 129.895 462.33 129.325C457.605 128.994 418.319 128.627 415.525 128.884ZM464.426 130.759C510.164 133.829 539.376 141.845 559.285 156.737C562.999 159.513 569.047 165.414 572.08 169.202C580.04 179.148 585.353 192.256 587.688 207.626C588.938 215.862 589.14 219.373 589.14 232.574C589.14 250.499 588.589 257.099 583.423 301.865C581.033 322.475 579.728 336.557 578.735 352.515C578.202 360.843 578.202 390.204 578.735 398.863C579.746 415.538 580.904 428.334 584.048 457.639C587.651 491.338 588.166 498.306 588.166 515.459C588.184 528.935 588 532.391 586.879 540.462C583.257 566.384 572.503 584.456 553.127 597.215C534.21 609.662 505.862 617.052 466.521 619.755C449.425 620.932 422.603 621.189 411.573 620.27C389.218 618.413 371.515 614.865 351.789 608.301C303.146 592.123 261.029 561.089 230.439 518.915C208.801 489.058 193.874 453.521 187.697 417.009C185.528 404.268 184.553 393.568 184.278 379.89C183.91 361.947 185.344 345.437 188.818 327.751C203.36 253.495 251.984 189.645 319.857 155.634C348.866 141.11 379.806 132.726 413.337 130.336C419.606 129.877 455.822 130.189 464.426 130.759Z" fill="black"/>
<path d="M415.047 142.415C367.011 145.614 323.552 162.05 286.049 191.226C245.274 222.922 215.419 268.846 203.102 318.816C198.029 339.425 195.933 358.288 196.337 379.89C196.521 390.241 196.705 393.127 197.679 401.878C202.459 445.045 219.537 486.356 246.837 520.864C255.882 532.299 268.953 545.665 280.369 555.17C315.665 584.567 359.308 602.97 404.881 607.658C415.047 608.706 420.673 608.871 438.303 608.706C455.988 608.522 463.727 608.154 476.559 606.867C511.598 603.374 536.508 595.303 553.072 582.103C566.179 571.661 574.636 557.045 578.294 538.55C580.371 528.071 580.849 521.066 580.629 504.777C580.408 488.801 580.04 483.984 576.419 449.825C571.988 408.055 570.904 391.362 571.271 369.87C571.621 349.702 572.705 336.006 576.897 299.788C581.015 264.103 581.474 258.091 581.493 240.699C581.511 226.212 581.327 223.363 579.875 214.74C576.069 192.09 566.161 176.243 548.531 164.66C529.54 152.159 501.892 145.338 459.811 142.727C452.605 142.268 420.489 142.066 415.047 142.415ZM459.48 143.978C496.358 146.257 520.606 151.423 539.615 161.057C561.528 172.161 573.955 189.112 578.423 213.987C579.948 222.48 580.206 226.249 580.187 240.516C580.169 257.797 579.709 263.57 575.444 300.781C571.363 336.263 570.315 349.629 569.966 369.687C569.598 391.399 570.72 409.158 574.948 448.685C578.57 482.477 579.066 489.058 579.287 504.685C579.507 520.459 578.919 528.659 576.823 538.936C570.959 567.653 553.623 586.038 522.72 596.333C499.906 603.944 471.43 607.474 433.026 607.474C419.239 607.474 414.257 607.272 405.157 606.353C360.117 601.775 316.805 583.611 281.876 554.655C268.861 543.863 255.624 530.148 245.458 516.93C220.53 484.499 204.757 446.369 199.37 405.537C197.146 388.715 196.852 368.712 198.58 352.019C204.205 297.49 228.527 247.116 267.592 209.133C307.889 169.955 358.94 147.342 415.323 143.684C420.875 143.334 452.348 143.536 459.48 143.978Z" fill="black"/>
<path d="M417.603 155.799C387.214 157.582 359.455 164.752 333.13 177.566C267.574 209.501 221.762 272.505 211.706 344.518C210.051 356.321 209.794 360.733 209.794 375.57C209.794 390.406 210.07 394.818 211.706 406.621C219.004 458.926 245.403 507.351 285.571 542.135C320.28 572.194 363.26 590.505 408.999 594.733C419.606 595.708 432.53 595.928 447.862 595.377C528.29 592.527 563.274 572.194 570.481 524.136C571.657 516.268 571.915 512.002 571.878 500.751C571.841 486.209 571.179 477.402 567.925 446.921C565.131 420.704 564.359 412.247 563.403 397.061C562.888 388.843 562.888 362.627 563.421 354.703C564.414 339.646 565.664 326.666 568.275 304.219C571.97 272.34 572.576 264.563 572.576 248.145C572.576 234.853 572.356 231.342 571.106 223.933C566.51 196.76 551.95 179.019 525.625 168.521C508.583 161.737 486.486 157.729 456.943 156.093C449.039 155.67 423.21 155.468 417.603 155.799ZM456.465 157.362C491.321 159.329 515.091 164.293 533.015 173.356C554.083 184.02 565.775 200.216 569.837 224.429C571.143 232.169 571.308 234.872 571.308 248.329C571.308 264.655 570.848 270.685 567.006 303.924C563.072 337.973 562.024 351.155 561.693 370.017C561.326 391.399 562.337 406.327 567.448 454.587C571.087 489.021 571.602 505.31 569.562 521.287C567.668 536.123 563.569 547.448 556.583 557.247C554.377 560.336 548.31 566.678 545.038 569.344C532.114 579.805 512.039 587.196 486.431 590.909C463.249 594.274 430.214 595.377 409.348 593.465C374.916 590.321 341.972 579.143 312.834 560.722C308.33 557.872 307.54 557.339 301.712 553.202C285.13 541.436 267.555 524.173 254.577 506.91C230.696 475.159 215.769 436.735 211.89 397.08C210.897 386.895 210.621 371.966 211.246 362.351C213.82 322.916 226.1 286.349 247.646 254.047C264.136 229.319 286.968 206.89 311.713 191.116C343.682 170.727 379.346 159.274 417.621 157.049C423.467 156.718 448.561 156.92 456.465 157.362Z" fill="black"/>
<path d="M421.114 169.165C382.894 170.599 346.458 182.457 314.378 203.912C268.456 234.633 236.358 283.444 226.339 337.789C225.365 343.102 224.115 352.184 223.545 358.233C222.975 364.245 222.975 387.244 223.545 393.274C226.119 420.502 232.755 444.181 244.484 467.824C269.449 518.18 314.47 556.659 367.654 573.113C381.35 577.342 394.605 580.007 409.955 581.588C416.665 582.287 440.086 582.544 450.785 582.048C497.075 579.915 525.294 571.679 542.519 555.298C557.447 541.087 563.716 520.992 563.035 489.481C562.76 476.667 562.024 467.842 558.55 435.173C555.388 405.445 554.322 387.795 554.652 370.183C554.983 352.717 555.903 341.264 559.634 308.704C563.035 278.921 563.789 269.416 563.807 255.83C563.826 243.623 563.201 236.802 561.344 228.437C557.153 209.611 547.134 195.914 530.625 186.446C515.679 177.879 493.637 172.437 464.554 170.157C453.156 169.238 431.85 168.76 421.114 169.165ZM442.604 170.433C480.438 171.408 505.936 175.893 524.779 184.92C532.427 188.579 537.592 192.109 543.034 197.348C554.561 208.471 560.443 222.499 562.208 243.071C562.704 248.826 562.631 263.772 562.061 271.898C561.473 280.392 560.425 290.816 558.55 307.105C554.358 343.194 553.494 355.071 553.476 375.753C553.458 396.252 554.193 406.75 558.384 445.836C561.271 472.696 562.116 485.528 561.785 497.754C561.289 517.095 558.127 530.7 551.546 541.841C537.611 565.428 509.153 577.084 457.091 580.485C448.561 581.037 417.989 581.037 412.014 580.485C384.677 577.911 361.018 571.219 337.321 559.343C285.387 533.347 246.304 485.473 231.284 429.474C226.689 412.339 224.666 397.705 224.335 379.394C224.133 368.124 224.409 361.799 225.512 352C231.744 296.534 261.139 245.314 306.198 211.321C339.38 186.299 379.714 171.959 421.261 170.452C424.956 170.323 428.522 170.194 429.221 170.157C429.92 170.139 435.949 170.268 442.604 170.433Z" fill="black"/>
<path d="M417.915 182.751C408.08 183.431 399.642 184.534 391.167 186.226C344.399 195.547 302.889 221.947 274.192 260.592C253.363 288.665 241.046 320.636 237.094 356.946C236.285 364.392 236.285 387.244 237.075 394.69C240.164 423.167 248.124 448.263 261.507 471.611C287.759 517.444 331.365 550.665 381.883 563.332C401.278 568.186 419.404 569.822 444.498 568.958C472.147 568.02 490.622 565.318 506.929 559.858C532.372 551.327 546.49 536.528 551.821 512.756C553.697 504.428 554.083 499.85 554.083 485.933C554.083 478.45 553.917 471.225 553.678 468.412C552.851 458.466 552.263 452.362 550.737 438.059C544.854 382.923 544.854 366.855 550.755 315.838C551.454 309.881 552.355 301.718 552.796 297.674C556.987 258.533 555.425 238.604 546.876 222.021C541.141 210.88 532.519 202.79 519.687 196.521C504.741 189.204 485.548 185.086 457.569 183.155C452.642 182.843 421.482 182.512 417.915 182.751ZM457.422 184.461C493.159 187.053 515.238 193.12 530.46 204.592C533.64 206.982 538.879 212.203 541.085 215.182C552.207 230.165 555.608 250.223 552.814 284.179C552.281 290.724 551.601 297.104 549.045 319.864C545.92 347.606 545.222 357.939 545.222 376.084C545.222 393.789 545.883 404.268 548.733 431.036C552.575 467.328 552.814 470.379 552.833 485.344C552.851 498.784 552.538 502.792 550.884 510.954C549.082 519.908 545.258 529.045 540.663 535.48C529.577 550.978 509.447 560.556 478.783 564.95C467.293 566.605 459.223 567.212 442.825 567.726C421.445 568.388 405.194 567.156 389.053 563.682C332.358 551.474 284.395 514.337 258.051 462.235C247.425 441.203 241.193 419.766 238.436 394.708C237.737 388.42 237.48 370.054 237.958 362.976C241.267 315.231 261.507 271.439 295.664 238.144C328.81 205.824 371.386 187.016 418.099 184.038C421.831 183.799 452.899 184.13 457.422 184.461Z" fill="black"/>
<path d="M417.915 196.264C368.408 199.242 322.1 222.977 290.461 261.548C268.603 288.187 254.889 320.324 250.863 354.243C249.098 369.135 249.282 386.453 251.359 401.382C257.481 445.284 280.148 485.933 314.397 514.429C339.454 535.277 369.511 548.882 401.351 553.772C410.874 555.243 415.599 555.592 428.1 555.776C469.757 556.383 500.016 550.959 518.363 539.579C527.077 534.174 534.173 526.287 538.475 517.242C546.141 501.082 547.226 481.373 542.74 439.603C538.806 402.908 538.181 394.156 538.181 376.048C538.181 358.895 538.732 350.842 541.839 323.173C545.589 289.75 546.012 284.418 546.049 271.88C546.067 262.412 545.755 257.889 544.652 251.491C539.21 219.998 517.977 204.077 473.673 198.304C458.157 196.3 432.916 195.363 417.915 196.264ZM454.554 197.826C480.383 199.518 498.527 203.323 512.37 209.942C523.989 215.512 532.555 223.565 537.703 233.824C539.56 237.519 540.957 241.306 542.096 245.774C544.155 253.863 544.817 260.206 544.817 271.733C544.799 283.554 544.211 290.982 541.196 317.437C535.331 368.878 535.313 381.306 541.03 435.43C541.986 444.475 542.997 454.734 543.291 458.245C544.303 470.674 544.376 486.153 543.457 493.93C542.06 505.66 538.677 515.716 533.53 523.401C531.195 526.876 526.176 532.225 522.573 535.038C508.914 545.701 487.718 551.695 455.528 553.975C447.715 554.526 424.643 554.747 418.411 554.324C393.465 552.633 371.552 546.786 350.079 536.086C327.596 524.872 308.367 509.686 292.318 490.419C270.386 464.11 256.525 432.25 252.315 398.514C251.267 390.075 250.973 385.221 250.973 375.9C250.973 371.084 251.12 365.201 251.323 362.847C254.356 324.718 268.217 290.54 292.612 261.07C296.804 256.014 309.727 243.034 314.728 238.879C332.578 224.043 351.605 213.417 373.188 206.247C388.759 201.081 401.958 198.617 420.801 197.367C424.055 197.165 449.59 197.514 454.554 197.826Z" fill="black"/>
<path d="M420.948 209.629C388.042 211.119 355.999 222.682 329.361 242.703C317.173 251.859 305.628 263.423 296.418 275.686C282.924 293.647 273.236 313.999 267.886 335.601C259.779 368.308 261.728 403.128 273.401 434.345C295.462 493.397 348.517 534.818 410.856 541.675C427.401 543.495 453.69 542.815 472.68 540.076C499.685 536.178 517.021 527.593 526.489 513.4C535.773 499.464 538.346 481.539 535.607 449.789C535.35 446.718 534.412 437.526 533.548 429.345C530.515 400.573 529.927 391.932 529.927 376.048C529.927 359.924 530.404 353.398 533.714 323.486C536.177 301.277 536.618 296.607 537.096 287.489C538.787 255.223 531.25 236.067 512.205 224.245C500.549 217.002 482.386 212.295 458.874 210.402C447.163 209.482 431.482 209.17 420.948 209.629ZM443.395 210.898C462.477 211.523 475.272 213.049 487.901 216.156C495.806 218.105 500.237 219.686 506.634 222.848C524.283 231.562 533.033 245.057 535.497 267.284C536.085 272.523 535.993 287.36 535.331 295.32C535.037 298.924 533.805 310.8 532.592 321.758C528.823 355.843 528.051 368.583 528.713 385.92C529.246 399.837 529.504 402.797 533.217 438.703C534.798 453.87 535.239 460.819 535.239 470.526C535.258 483.616 534.247 491.595 531.507 499.924C527.849 511.065 521.727 519.228 512.37 525.478C499.042 534.377 479.059 539.396 451.061 540.885C430.508 541.969 415.819 541.455 401.903 539.138C341.31 529.045 291.307 485.786 272.225 426.973C260.478 390.755 261.728 350.824 275.736 315.323C287.244 286.146 307.209 260.445 332.78 241.858C354.289 226.231 380.633 215.715 406.94 212.222C418.044 210.751 427.953 210.383 443.395 210.898Z" fill="black"/>
<path d="M417.125 223.344C372.379 226.911 331.953 249.634 305.371 286.183C281.748 318.651 271.931 359.538 278.071 399.837C288.09 465.489 340.41 517.867 405.819 527.703C419.478 529.762 441.115 530.001 459.021 528.328C500.549 524.412 520.606 511.083 526.066 483.745C527.426 476.943 527.665 473.836 527.647 463.044C527.628 451.645 527.334 447.435 525.11 426.311C522.187 398.789 521.654 390.884 521.654 376.231C521.654 361.56 522.242 353.398 525.147 327.806C527.003 311.407 527.72 303.961 528.18 295.798C529.945 264.747 522.775 246.711 504.392 235.883C492.369 228.805 474.481 224.723 449.48 223.326C442.733 222.958 421.868 222.958 417.125 223.344ZM456.466 225.054C459.517 225.33 462.624 225.624 463.323 225.716C481.283 227.996 491.725 230.772 501.395 235.791C506.267 238.328 509.502 240.663 513.179 244.321C520.753 251.859 524.761 261.162 526.599 275.391C527.187 280.006 527.114 295.559 526.452 303.097C526.158 306.425 525.073 316.831 524.025 326.188C520.827 355.052 520.385 361.193 520.385 376.526C520.404 391.252 520.845 397.925 523.676 425.098C526.158 448.869 526.342 451.645 526.342 463.007C526.342 473.744 525.992 478.009 524.614 484.223C519.337 507.903 503.381 520.257 471.393 525.423C459.591 527.335 450.05 527.96 433.045 527.979C417.952 527.997 413.742 527.721 403.907 526.048C355.778 517.941 314.36 486.834 292.87 442.655C272.39 400.536 272.445 351.173 293.017 309.403C301.106 292.967 310.647 279.804 323.662 267.1C348.976 242.391 381.166 227.757 417.125 224.595C422.18 224.172 449.958 224.484 456.466 225.054Z" fill="black"/>
<path d="M421.114 236.563C410.598 237.445 404.403 238.328 397.289 240.001C364.382 247.704 335.373 267.21 315.592 294.934C285.443 337.164 281.214 393.109 304.672 439.456C311.805 453.539 319.802 464.533 331.108 475.784C354.308 498.857 383.446 512.499 416.132 515.624C423.21 516.304 447.66 516.102 455.693 515.312C476.007 513.308 489.225 509.576 499.005 503.104C502.792 500.604 508.234 495.309 510.385 492.018C514.337 485.988 516.727 479.333 518.124 470.508C518.841 465.93 519.099 452.546 518.621 445.027C518.271 439.53 517.849 435.154 515.422 411.199C512.315 380.552 512.481 369.08 516.525 332.421C519.117 308.999 519.338 306.223 519.356 295.633C519.374 285.632 519.154 282.966 517.757 276.55C512.775 253.881 496.597 242.372 463.745 238.144C455.473 237.078 448.175 236.673 435.453 236.563C428.339 236.489 421.886 236.508 421.114 236.563ZM446.299 237.997C470.915 239.229 488.141 243.347 499.116 250.627C502.149 252.631 506.782 256.915 508.877 259.636C513.436 265.574 516.451 273.847 517.701 283.848C518.308 288.72 518.216 302.968 517.518 310.598C517.205 314.018 516.323 322.383 515.569 329.24C510.918 370.679 510.863 380.699 515.091 420.667C517.315 441.754 517.481 444.016 517.481 455.543C517.481 467.052 517.205 470.048 515.551 476.63C509.392 501.045 489.942 512.021 448.358 514.503C439.718 515.017 418.448 514.723 412.841 514.025C382.269 510.164 355.153 497.239 333.24 476.097C289.928 434.253 278.567 369.08 305.187 315.084C327.045 270.777 369.989 241.692 419.055 238.034C424.184 237.629 438.854 237.611 446.299 237.997Z" fill="black"/>
<path d="M421.298 250.094C371.735 253.072 328.35 285.282 310.941 331.998C289.947 388.384 311.382 451.756 362.305 483.837C378.059 493.765 395.965 500.016 414.9 502.185C424.423 503.288 443.542 503.122 455.84 501.854C479.923 499.354 494.869 492.643 502.517 480.859C504.723 477.457 505.568 475.729 506.947 471.813C509.227 465.305 510.091 458.76 510.054 448.207C510.035 439.732 509.631 434.125 507.609 414.435C504.079 380.037 504.116 370.109 507.958 336.704C511.561 305.267 511.506 292.508 507.719 281.146C500.935 260.812 482.092 251.73 443.266 250.057C434.993 249.726 427.364 249.726 421.298 250.094ZM443.082 251.363C471.779 252.613 488.766 257.779 498.619 268.24C506.487 276.586 509.741 288.371 509.208 306.627C508.988 314.312 508.601 318.834 506.616 336.576C502.921 369.87 502.792 380.57 505.826 410.17C508.62 437.508 509.098 444.843 508.638 453.962C507.627 473.909 500.88 485.767 486.541 492.809C476.173 497.901 463.709 500.42 443.707 501.45C435.968 501.854 421.739 501.67 416.481 501.1C387.141 497.956 360.595 485.142 340.152 464.239C325.427 449.2 314.985 431.294 309.158 411.107C304.065 393.531 302.944 374.926 305.848 356.633C310.959 324.46 328.46 295.504 354.694 275.814C373.905 261.401 397.381 252.797 421.371 251.363C427.401 251.013 435.049 251.013 443.082 251.363Z" fill="black"/>
<path d="M420.305 263.644C419.772 263.717 417.86 263.919 416.003 264.122C395.487 266.273 375.761 274.546 358.352 288.261C354.142 291.57 344.105 301.737 340.704 306.131C327.247 323.504 319.599 342.257 316.879 364.594C316.272 369.613 316.364 384.376 317.044 389.763C320.28 415.409 330.887 437.655 348.462 455.672C366.882 474.553 389.42 485.657 416.316 489.04C421.5 489.702 445.527 489.591 452.145 488.874C476.743 486.245 489.648 479.848 496.229 466.997C500.991 457.694 502.222 446.093 500.55 426.219C500.292 423.149 499.594 415.924 498.987 410.133C497.185 392.87 496.799 387.097 496.799 376.691C496.799 365.807 497.185 360.421 499.281 341.337C501.45 321.647 501.505 320.985 501.487 311.076C501.469 303.079 501.377 301.351 500.789 298.17C498.711 286.9 494.005 279.16 486.008 273.865C478.14 268.644 467.974 265.776 451.484 264.066C448.175 263.736 422.346 263.386 420.305 263.644ZM452.568 265.5C465.345 266.898 473.912 268.994 480.787 272.413C491.725 277.855 497.424 285.981 499.667 299.292C500.145 302.104 500.255 304.476 500.237 311.389C500.219 320.526 500.127 321.776 498.16 339.738C494.538 372.867 494.52 379.688 498.013 413.479C500.402 436.644 500.605 444.953 498.95 454.477C495.696 473.395 483.581 483.083 458.672 486.723C450.16 487.974 446.447 488.176 432.714 488.176C423.449 488.176 418.411 488.047 416.316 487.753C393.888 484.664 376.35 477.274 359.198 463.706C355.006 460.378 345.888 451.241 342.303 446.755C328.736 429.768 320.85 410.629 318.129 388.145C317.614 383.824 317.614 369.356 318.147 364.723C321.861 332.237 338.535 303.851 365.081 284.823C379.99 274.141 399.55 266.916 418.522 265.059C423.338 264.618 447.163 264.912 452.568 265.5Z" fill="black"/>
<path d="M421.739 277.064C398.171 278.793 375.688 289.088 358.996 305.8C347.634 317.161 338.608 332.182 334.031 347.276C329.508 362.222 328.515 378.107 331.144 393.752C338.185 435.871 372.305 469.332 414.422 475.435C425.121 476.98 442.384 476.851 454.719 475.123C476.191 472.108 487.001 464.294 490.824 449.035C492.111 443.924 492.314 441.681 492.295 432.783C492.277 424.16 492.148 422.12 490.42 405.702C487.901 381.839 487.92 370.937 490.438 348.673C492.718 328.468 493.288 318.007 492.497 310.892C491.413 301.204 488.435 294.401 482.993 289.198C475.437 281.973 463.948 278.407 444.222 277.175C439.553 276.881 425.195 276.807 421.739 277.064ZM444.204 278.443C460.547 279.491 471.834 282.433 478.93 287.507C482.129 289.787 485.493 293.611 487.148 296.828C490.126 302.619 491.192 307.62 491.413 316.996C491.597 324.129 491.229 329.516 489.593 344.224C486.357 373.198 486.376 379.32 489.74 412.082C491.376 427.911 491.578 437.728 490.42 444.604C487.571 461.555 478.029 469.901 457.477 473.395C450.086 474.663 443.781 475.086 432.401 475.104C420.801 475.123 417.419 474.847 409.459 473.247C394.77 470.287 379.824 463.283 367.893 453.797C364.106 450.781 355.411 442.03 352.322 438.114C335.078 416.31 327.725 387.943 332.229 360.641C337.652 327.898 359.29 299.843 389.42 286.514C399.145 282.212 410.102 279.362 420.286 278.498C424.882 278.076 438.266 278.057 444.204 278.443Z" fill="black"/>
<path d="M422.382 290.522C395.689 292.765 372.324 306.535 357.507 328.707C344.068 348.82 339.711 374.228 345.612 397.889C352.01 423.498 369.658 444.714 393.704 455.708C400.451 458.797 409.734 461.426 418.081 462.621C422.493 463.265 443.284 463.136 448.763 462.456C466.246 460.249 475.07 455.58 479.886 446.001C483.931 437.967 484.501 427.47 482.147 404.581C480.475 388.365 480.254 385.093 480.254 376.875C480.254 368.712 480.475 365.476 482.092 350.438C483.71 335.399 483.949 331.649 483.747 324.515C483.618 319.901 483.398 317.309 482.938 315.249C479.611 299.953 469.224 293.004 446.575 290.89C441.777 290.412 426.261 290.191 422.382 290.522ZM447.862 292.287C468.286 294.475 477.901 300.707 481.265 313.944C482.221 317.676 482.57 321.28 482.57 327.163C482.57 333.138 482.35 335.987 480.824 350.107C479.188 365.145 478.967 368.344 478.967 376.857C478.967 385.424 479.188 388.641 480.842 404.728C482.147 417.432 482.552 427.745 481.945 433.242C480.199 449.053 472.275 456.995 455.05 460.139C447.715 461.481 443.91 461.757 432.089 461.757C422.915 461.757 420.287 461.647 417.272 461.187C402.363 458.852 390.174 453.796 378.409 445.1C373.574 441.534 365.081 433.022 361.459 428.15C352.966 416.733 347.579 403.937 345.208 389.505C344.289 383.971 344.215 370.44 345.061 364.98C348.609 341.981 360.246 322.144 378.096 308.704C391.626 298.519 405.708 293.28 423.963 291.662C427.07 291.404 443.505 291.827 447.862 292.287Z" fill="black"/>
<path d="M425.085 303.924C409.642 304.77 395.303 310.286 383.299 319.974C368.721 331.741 358.849 349.96 356.79 368.951C356.348 372.941 356.348 380.772 356.79 384.744C359.474 409.434 374.603 431.386 396.48 442.288C408.926 448.502 421.334 450.745 438.174 449.844C451.263 449.145 458.616 447.454 464.205 443.85C472.386 438.574 475.493 429.474 474.61 413.35C474.445 410.353 473.875 403.606 473.342 398.348C471.375 378.732 471.43 373.474 473.875 351.688C474.849 343.029 475.217 331.391 474.665 327.438C472.533 312.437 463.856 305.892 443.891 304.237C438.211 303.796 430.14 303.649 425.085 303.924ZM443.689 305.542C451.024 306.131 457.716 307.693 461.778 309.771C465.437 311.628 469.058 315.158 470.805 318.577C471.798 320.507 472.956 324.662 473.36 327.714C473.985 332.366 473.581 342.238 472.275 354.409C470.198 373.658 470.18 379.32 472.073 398.532C473.342 411.346 473.654 417.487 473.323 422.579C472.312 437.544 465.565 444.788 450.142 447.417C441.851 448.833 426.427 449.182 419.496 448.134C411.371 446.884 404.9 444.898 397.987 441.552C375.688 430.705 360.852 409.434 357.984 384.21C357.451 379.486 357.764 369.778 358.628 364.943C360.834 352.46 365.945 341.117 373.721 331.501C376.662 327.843 382.802 321.978 386.663 319.11C395.763 312.345 405.911 308.043 417.584 306.002C423.43 304.954 434.221 304.77 443.689 305.542Z" fill="black"/>
<path d="M420.912 317.787C401.609 320.526 385.174 332.255 376.276 349.702C369.75 362.461 368.04 377.868 371.588 391.877C376.736 412.265 392.123 428.334 412.363 434.437C418.448 436.276 421.445 436.607 431.795 436.607C442.218 436.607 445.84 436.239 451.281 434.658C455.142 433.536 457.569 432.158 459.977 429.749C463.506 426.219 465.069 422.303 465.768 415.317C466.19 411.107 465.878 404.765 464.757 393.752C463.359 380.184 463.415 373.327 464.996 359.097C465.712 352.607 465.878 349.831 465.878 343.268C465.878 335.932 465.823 335.105 465.161 332.825C462.661 324.148 457.605 320.232 446.281 318.209C441.409 317.327 425.949 317.07 420.912 317.787ZM445.307 319.312C452.053 320.434 456.024 322.052 459.131 324.957C461.448 327.108 462.808 329.461 463.837 333.046C464.518 335.399 464.573 336.171 464.554 343.396C464.536 349.794 464.389 352.589 463.654 358.95C462.017 373.216 462.017 379.816 463.58 395.646C464.683 406.787 464.885 411.383 464.426 415.483C463.102 427.617 458.065 432.562 444.81 434.676C440.472 435.375 427.383 435.651 422.989 435.154C395.689 432.029 374.75 411.181 371.368 383.714C370.835 379.32 371.166 370.017 372.011 365.844C377.14 340.639 397.105 321.978 422.254 318.834C425.857 318.43 441.814 318.743 445.307 319.312Z" fill="black"/>
<path d="M422.695 331.152C412.657 332.531 404.146 336.796 396.737 344.205C390.193 350.732 386.038 358.398 383.997 367.627C383.28 370.845 383.005 380.111 383.501 383.622C385.964 400.885 397.528 415.152 413.742 420.961C419.367 422.984 426.905 423.903 434.644 423.535C448.855 422.873 453.892 420.024 456.355 411.273C457.201 408.258 457.127 398.624 456.208 389.579C455.252 380.276 455.289 373.713 456.337 363.656C457.33 353.968 457.44 346.908 456.631 343.433C454.425 333.873 447.862 330.637 431.023 330.729C428.118 330.729 424.349 330.931 422.695 331.152ZM443.34 332.88C452.679 334.866 455.859 339.37 455.859 350.585C455.859 353.379 455.528 358.711 455.05 363.454C453.984 374.062 453.984 380.202 455.068 391.583C456.3 404.746 455.932 410.317 453.506 414.876C451.116 419.38 446.685 421.347 437.2 422.12C426.758 422.984 417.639 421.586 410.065 417.983C397.436 411.971 388.207 400.132 385.211 386.104C384.383 382.243 384.383 372.113 385.211 368.271C389.328 349.004 404.642 334.682 423.669 332.31C427.769 331.796 439.92 332.145 443.34 332.88Z" fill="black"/>
<path d="M425.25 344.389C420.378 344.904 415.323 346.779 410.984 349.666C402.877 355.052 397.528 364.116 396.608 374.025C395.303 387.851 402.73 401.271 414.9 407.118C420.231 409.673 424.552 410.427 432.732 410.225C437.733 410.096 439.148 409.967 440.858 409.397C444.369 408.258 446.336 406.29 447.421 402.834C448.193 400.407 448.322 393.311 447.715 386.968C447.071 380.239 447.072 374.154 447.733 367.922C449.553 350.493 447.31 345.529 437.089 344.371C433.909 344.021 428.725 344.022 425.25 344.389ZM439.736 346.117C442.862 346.945 444.351 348.066 445.546 350.456C447.31 353.986 447.476 358.711 446.244 369.539C445.785 373.584 445.877 381.398 446.446 387.354C447.053 393.697 446.924 400.095 446.116 402.613C445.288 405.206 443.193 407.265 440.564 408.129C437.88 408.993 428.964 409.342 424.864 408.736C415.029 407.283 406.628 401.547 401.829 392.962C395.8 382.17 396.535 368.602 403.704 358.582C405.304 356.358 409.44 352.276 411.536 350.842C415.378 348.232 420.893 346.191 425.544 345.639C429.092 345.216 437.457 345.511 439.736 346.117Z" fill="black"/>
<path d="M426.997 357.736C424.202 358.104 422.493 358.637 420.139 359.851C417.272 361.34 415.047 363.38 413.154 366.212C410.911 369.595 409.881 372.904 409.845 377.004C409.808 380.864 410.249 382.887 411.885 386.233C415.562 393.807 422.915 397.686 432.567 397.135C438.211 396.804 439.332 395.131 439.203 387.023C439.093 380.625 439.13 373.382 439.277 367.756C439.442 361.413 438.836 359.465 436.299 358.159C435.159 357.589 429.993 357.35 426.997 357.736ZM435.913 359.465C437.99 360.825 438.45 363.454 437.935 371.139C437.677 375.018 437.659 378.474 437.861 382.445C438.302 391.197 437.88 393.917 435.857 395.26C434.497 396.142 427.162 396.069 424.129 395.131C418.283 393.311 414.128 389.229 412.069 383.273C409.808 376.709 411.536 369.282 416.5 364.263C420.526 360.182 425.121 358.6 432.181 358.858C434.203 358.931 435.398 359.115 435.913 359.465Z" fill="black"/>
<path d="M426.776 371.47C424.074 372.904 422.621 376.103 423.32 379.063C424 381.931 426.684 384.174 429.442 384.192H430.655V370.808L429.295 370.826C428.578 370.845 427.419 371.12 426.776 371.47ZM429.386 377.5C429.386 381.011 429.276 382.923 429.074 382.923C428.247 382.923 426.574 381.967 425.802 381.048C423.504 378.327 424.165 374.614 427.291 372.702C429.368 371.433 429.386 371.488 429.386 377.5Z" fill="black"/>
</svg>
